<svg width="24" height="24" viewBox="0 0 24 24" fill="current" xmlns="http://www.w3.org/2000/svg"><path d="M15.649 1C14.606 1.90183 13.4674 2.68645 12.2581 3.34787C13.941 4.27003 15.8272 4.77358 17.7265 4.99246C16.015 9.73965 13.9446 14.4103 11.0058 18.5367C11.5489 19.3596 12.1505 20.1454 12.8167 20.8726C14.5079 19.7483 15.9145 18.2496 17.1201 16.6278C19.7455 13.0623 21.5253 8.95858 23 4.80706C22.0587 4.69942 21.1245 4.51881 20.2227 4.22817C18.431 3.64091 16.6919 2.61349 15.649 1Z" fill="current"/><path fill-rule="evenodd" clip-rule="evenodd" d="M8.83863 2.18198C6.64752 4.04425 4.03527 5.47116 1.19822 6.03328C0.401639 11.6979 2.01393 17.7667 5.89156 22.0342C7.70961 20.8573 9.18915 19.2331 10.4641 17.4975C12.9759 14.0206 14.7065 10.0581 16.1813 6.05129C16.0311 6.02475 15.8807 5.9992 15.7302 5.97364C15.0057 5.85059 14.2803 5.7274 13.581 5.49268C11.72 4.9102 9.91755 3.85049 8.83863 2.18198ZM6.88189 16.2297C5.04833 14.224 4.30319 11.3689 4.65962 8.69933C5.99203 8.42421 7.22276 7.76166 8.25975 6.88964C9.02644 8.02595 10.4091 8.53662 11.7188 8.69814C10.9437 10.8128 10.0144 12.9107 8.58034 14.6677C8.07676 15.2514 7.52298 15.798 6.88189 16.2297Z" fill="current"/></svg>