<svg width="24" height="24" viewBox="0 0 24 24" fill="current" xmlns="http://www.w3.org/2000/svg"><path d="M6.43211 2.14956C7.05324 1.44997 7.96776 0.867493 8.94125 1.02636C9.08995 1.02126 9.1714 1.21372 9.08174 1.32574C8.98542 1.44527 8.85511 1.52644 8.72503 1.60748C8.66671 1.64381 8.60844 1.68011 8.5533 1.71982C7.81807 2.19742 7.34556 2.99475 7.10827 3.82367C6.98196 4.33384 6.9535 4.94992 7.32112 5.37048C7.51431 5.58476 7.7843 5.61804 8.05458 5.65136C8.20175 5.6695 8.349 5.68765 8.48398 5.73504C8.97381 5.91834 9.36283 6.3817 9.41778 6.9081C9.50439 7.60157 9.1408 8.28086 8.64491 8.74312C8.26811 9.09958 7.72744 9.21359 7.22433 9.15864C6.96487 9.14406 6.71657 9.07335 6.46841 9.00268C6.21404 8.93025 5.9598 8.85785 5.69383 8.84597C4.81197 8.80833 3.90465 9.1515 3.31607 9.81946C2.86597 10.295 2.63481 10.9356 2.56659 11.5781C2.39958 12.8225 2.88125 14.1392 3.83133 14.9641C3.85779 14.9879 3.88478 15.0118 3.91204 15.036C4.22786 15.3164 4.58049 15.6295 4.57674 16.0842C3.99325 16.132 3.43521 15.8561 2.96679 15.5333C1.62974 14.4915 0.930152 12.7451 1.00551 11.07C1.05032 9.75836 1.70407 8.52314 2.6287 7.61379C3.29061 6.92237 4.09507 6.37965 4.9525 5.9611C5.38153 5.75744 5.39623 5.24564 5.4085 4.8183C5.41003 4.76488 5.41153 4.71277 5.41379 4.66275C5.35066 3.7198 5.84454 2.84812 6.43211 2.14956Z" fill="current"/><path d="M14.8943 1.04841C15.5358 0.923155 16.213 1.06063 16.7466 1.44148C17.5714 1.98118 18.161 2.83351 18.4849 3.75508C18.5891 4.04974 18.5939 4.36087 18.5986 4.67162C18.6037 5.00737 18.6088 5.34267 18.7394 5.65628C18.8034 5.82795 18.9718 5.91551 19.1242 5.99478L19.1253 5.99537C20.5367 6.69602 21.8381 7.75809 22.5286 9.20302C23.2271 10.6298 23.1111 12.3578 22.4319 13.7681C22.0602 14.5289 21.5307 15.2448 20.7975 15.6897C20.384 15.9209 19.9258 16.1408 19.439 16.0919C19.4416 15.6571 19.7604 15.358 20.0595 15.0773C20.1176 15.0227 20.175 14.9688 20.2293 14.9148C21.1183 14.1073 21.5775 12.8659 21.4481 11.6745C21.3891 11.0248 21.1793 10.368 20.7394 9.87518C19.9961 9.00445 18.7139 8.61856 17.6214 8.98001C17.0093 9.16743 16.3108 9.28661 15.714 8.99027C15.0816 8.62872 14.6336 7.93222 14.5756 7.20413C14.5073 6.45562 15.1143 5.70312 15.8749 5.65933L15.8771 5.65915C16.1657 5.63476 16.4843 5.60783 16.6906 5.37421C17.0257 4.9903 17.0236 4.43226 16.9228 3.96078C16.7273 3.12373 16.2833 2.31824 15.5827 1.80298C15.51 1.7388 15.416 1.68415 15.3207 1.62877C15.0849 1.4917 14.8414 1.35012 14.8943 1.04841Z" fill="current"/><path d="M14.1224 3.98211C13.3424 2.32735 10.5552 2.28662 9.81598 3.99331C10.3913 4.2876 10.7487 4.85582 10.926 5.4607C11.6306 5.46375 12.3363 5.46273 13.041 5.46172C13.214 4.8599 13.5572 4.2876 14.1224 3.98211Z" fill="current"/><path fill-rule="evenodd" clip-rule="evenodd" d="M10.6062 6.63046C10.9411 6.51791 11.2951 6.53033 11.6486 6.54273C11.8358 6.5493 12.0229 6.55586 12.207 6.54384C12.327 6.55166 12.4543 6.54711 12.5834 6.54248C12.9593 6.52902 13.3505 6.51501 13.6204 6.80459C13.8259 7.04618 13.8495 7.34534 13.8734 7.64638C13.8925 7.88844 13.9118 8.13172 14.0257 8.34729C14.4727 9.24139 15.3933 9.88089 16.3902 9.97563C16.8933 10.0347 17.2171 10.5163 17.3209 10.9766C17.4523 11.5764 17.5022 12.221 17.3016 12.8126C17.0083 13.7321 16.546 14.5906 16.0073 15.3879C15.9197 15.5142 15.8296 15.6403 15.7391 15.7668C15.2338 16.4739 14.7173 17.1967 14.5532 18.063C13.9213 18.0607 13.2893 18.0621 12.6572 18.0635C11.5852 18.0659 10.5125 18.0682 9.44024 18.0528C9.31459 17.3377 8.90993 16.7203 8.51873 16.1234L8.51251 16.114C7.70093 15.0183 6.96366 13.8269 6.62049 12.4949C6.51558 11.7729 6.55332 10.9542 6.98507 10.3382C7.19843 10.0486 7.52612 9.99063 7.85551 9.93231C8.04171 9.89934 8.22845 9.86627 8.39539 9.79124C9.16326 9.47055 9.85263 8.84327 10.0858 8.02651C10.1031 7.92214 10.1131 7.81049 10.1233 7.69685C10.1605 7.28163 10.2 6.83994 10.6062 6.63046ZM13.1611 11.0275C12.4942 11.225 12.0634 11.9858 12.264 12.6588C12.4208 13.331 13.1551 13.7973 13.8302 13.6273C14.6163 13.4786 15.0979 12.5224 14.7599 11.7983C14.5308 11.1761 13.7915 10.8239 13.1611 11.0275ZM10.6143 13.5764C10.2599 13.6537 9.97484 13.9664 9.93515 14.3278C9.86583 14.8208 10.2772 15.333 10.7854 15.3227C11.261 15.3411 11.6744 14.9083 11.6662 14.4389C11.6836 13.9094 11.1316 13.4501 10.6143 13.5764Z" fill="current"/><path d="M10.7701 18.966C10.5471 19.1972 10.3322 19.4344 10.1265 19.6809C10.6276 20.4375 11.1133 21.2043 11.598 21.97C11.7385 22.2673 12.2426 22.2623 12.3953 21.9802C12.6064 21.6465 12.8205 21.3145 13.0346 20.9824C13.3163 20.5455 13.5981 20.1085 13.8729 19.6677C13.6929 19.4612 13.5084 19.2602 13.324 19.0592C13.2955 19.0281 13.267 18.997 13.2385 18.966C12.4157 18.968 11.5929 18.968 10.7701 18.966Z" fill="current"/></svg>