<svg width="24" height="24" viewBox="0 0 24 24" fill="current" xmlns="http://www.w3.org/2000/svg"><path fill-rule="evenodd" clip-rule="evenodd" d="M1.50002 8.10114C0.902516 8.27974 0.879733 8.49218 1.22476 10.6677C1.4418 12.0361 1.4628 12.4017 1.44011 14.4161C1.42089 16.1107 1.44321 16.6768 1.53265 16.7662C1.96318 17.1969 6.45035 16.3334 8.25009 15.4735C9.19553 15.0219 9.20068 15.0168 8.96461 14.7801C8.82257 14.6377 8.76603 14.4633 8.76603 14.1674C8.76603 13.7857 8.726 13.7172 8.24653 13.2779C7.79012 12.8597 6.90732 12.2354 5.85959 11.5903L5.53144 11.3882H5.90647C6.50032 11.3883 7.52536 11.639 8.17181 11.9423L8.76603 12.2211V11.6078C8.76603 11.0553 8.79322 10.9672 9.04008 10.7197C9.19084 10.5686 9.38726 10.445 9.47652 10.445C9.62653 10.445 9.62559 10.4302 9.46423 10.2514C8.96639 9.69981 7.31309 8.88971 5.85959 8.48504C4.29274 8.04878 2.2707 7.87074 1.50002 8.10114ZM19.7355 8.34629C17.5042 8.57265 15.3633 9.2612 14.5439 10.016L14.1808 10.3505L14.5674 10.7266L14.9539 11.1028V11.8496V12.5965L15.3963 12.4002C15.8675 12.1912 16.9961 12.1445 17.6729 12.306L18.001 12.3843L17.4854 12.5072C16.4603 12.7515 15.2616 13.174 15.1066 13.3457C15.0194 13.4423 14.922 13.7429 14.89 14.0138C14.8516 14.3385 14.7525 14.6008 14.5994 14.7832L14.3671 15.06L14.5903 15.2998C15.2873 16.0491 17.7024 16.6874 20.7775 16.935C22.4689 17.0712 22.5482 17.0448 22.5482 16.3451C22.5482 16.0783 22.4993 15.2752 22.4396 14.5606C22.3154 13.074 22.394 12.1502 22.786 10.4864C22.9341 9.85839 23.0148 9.27183 22.9977 8.94874L22.9701 8.42638L22.5951 8.36011C22.2177 8.29337 20.3462 8.28435 19.7355 8.34629ZM10.0012 11.1325C9.80822 11.3385 9.79735 11.4362 9.79735 12.9698C9.79735 14.5642 9.80091 14.5931 10.0275 14.8202C10.2538 15.0473 10.2837 15.051 11.86 15.051C13.4363 15.051 13.4661 15.0473 13.6924 14.8202C13.9192 14.593 13.9226 14.565 13.9226 12.9567C13.9226 10.7819 14.058 10.915 11.8469 10.915C10.252 10.915 10.1993 10.9212 10.0012 11.1325Z" fill="current"/></svg>