<svg width="24" height="24" viewBox="0 0 24 24" fill="current" xmlns="http://www.w3.org/2000/svg"><path d="M15.5867 1.46498C16.8687 0.754532 18.4922 0.898378 19.7342 1.62383C20.9262 2.25922 21.7505 3.42619 22.1945 4.67947C22.6773 6.06157 22.5823 7.63008 21.9519 8.94959C21.1588 10.6657 19.5842 11.9715 17.7905 12.5369C17.1238 12.7532 16.4259 12.842 15.7317 12.9196C15.5113 12.948 15.2902 12.9294 15.0694 12.9109C14.7953 12.8878 14.5217 12.8649 14.2508 12.932C13.5391 13.0834 12.9663 13.6225 12.6298 14.2479C12.4042 14.6342 12.2864 15.0611 12.1687 15.4881C12.0912 15.7689 12.0138 16.0497 11.9056 16.3192C11.3202 17.8376 10.2208 19.1072 8.94507 20.0952C7.61176 21.1309 6.18456 22.0489 4.70492 22.8582C4.20962 23.1371 3.54546 22.9971 3.24401 22.5042C3.00387 22.2328 3.09393 21.8413 3.31906 21.5925C3.8033 21.0117 4.2951 20.437 4.78696 19.8621C5.3724 19.1779 5.95808 18.4935 6.53106 17.7988C6.61537 17.6938 6.70056 17.5891 6.78587 17.4842C7.3663 16.7708 7.95229 16.0505 8.30342 15.1922C8.38332 15.0026 8.46175 14.8118 8.54029 14.6206C8.99282 13.5192 9.44917 12.4084 10.2133 11.4812C11.1489 10.2579 12.5786 9.43118 14.1095 9.25231C14.4955 9.18606 14.8886 9.18878 15.281 9.19149C15.8293 9.19529 16.3763 9.19907 16.9012 9.01463C17.5141 8.82952 18.0544 8.41174 18.3583 7.84516C18.8086 7.09223 18.7561 6.11285 18.3646 5.34989C18.167 5.1296 17.8864 5.03308 17.6077 4.93725C17.4718 4.89052 17.3364 4.84396 17.2114 4.78328C17.1619 4.8806 17.1056 4.97648 17.049 5.07276C16.8809 5.35885 16.7108 5.64839 16.7136 5.98903C16.7074 6.58814 16.5823 7.22232 16.1657 7.67753C15.3741 8.51187 13.7368 8.28544 13.2927 7.1898C12.9362 6.36805 12.92 5.42618 13.0901 4.55689C13.3703 3.20356 14.3472 2.05159 15.5867 1.46498Z" fill="current"/><path d="M5.025 2.85875C5.00394 2.57658 5.18849 2.36619 5.36308 2.16717C5.39589 2.12976 5.42835 2.09276 5.45903 2.05576C5.49143 2.07959 5.52503 2.10326 5.559 2.12719C5.77286 2.27784 6.00156 2.43895 6.03942 2.71742L6.05591 2.80393C6.23349 3.73662 6.42769 4.7566 7.17136 5.41534C7.88757 6.00098 8.80193 6.11518 9.69676 6.22695C9.95051 6.25864 10.2027 6.29014 10.4483 6.33214L10.4653 6.39845C10.489 6.49113 10.521 6.61593 10.5397 6.68487C10.4929 6.7142 10.4461 6.74415 10.3992 6.77418C10.0802 6.97848 9.75528 7.18658 9.37142 7.23018C8.44965 7.38911 7.45772 7.73806 6.95996 8.58978C6.65223 9.06344 6.56651 9.60623 6.48074 10.1493C6.39777 10.6747 6.31475 11.2004 6.03062 11.6642C5.97933 11.6517 5.90273 11.6323 5.82613 11.6129C5.74953 11.5935 5.67293 11.5742 5.62164 11.5617C5.52436 11.2543 5.45605 10.9349 5.38771 10.6154C5.24166 9.93254 5.09547 9.24902 4.66602 8.67988C4.03813 7.78552 2.88992 7.46285 1.84302 7.48167C1.51276 7.51442 1.26914 7.28841 1.0454 7.08084L1 7.03883C1.22389 6.77119 1.47654 6.47347 1.85803 6.46724C2.68729 6.39217 3.53657 6.11828 4.12193 5.49789C4.81236 4.81371 5.035 3.80059 5.025 2.85875Z" fill="current"/><path d="M18.666 13.7715L18.2857 13.794C18.2558 14.3756 18.1694 14.9771 17.8442 15.475C17.3565 16.2705 16.4721 16.697 15.6267 17.0097C16.3183 17.1185 17.025 17.3337 17.5478 17.8226C18.1795 18.3968 18.4171 19.2649 18.5196 20.0841C18.5832 19.9948 18.6544 19.9084 18.726 19.8216C18.9292 19.5753 19.135 19.3259 19.1738 18.9984C19.2726 18.4281 19.4453 17.8027 19.9418 17.4487C20.2833 17.1885 20.7248 17.1535 21.1376 17.1235C21.4215 16.9408 21.4552 16.4943 21.1101 16.3706C20.5034 16.3018 19.843 16.1767 19.429 15.6838C19.0785 15.3316 18.9629 14.8655 18.8475 14.4005C18.7945 14.1869 18.7416 13.9735 18.666 13.7715Z" fill="current"/></svg>