<svg width="24" height="24" viewBox="0 0 24 24" fill="current" xmlns="http://www.w3.org/2000/svg"><path d="M11.2091 1.18316C11.6436 0.949548 12.1552 0.992886 12.6288 1.02777C13.9089 1.29204 14.819 2.73602 14.4617 4.00136C14.3064 4.53095 13.9448 4.96647 13.5326 5.31954C13.2038 5.59861 13.003 5.98445 12.7894 6.3502C14.1669 6.68526 15.5358 7.19058 16.6647 8.068C18.188 9.26671 19.3656 11.069 19.3782 13.0574C19.3403 15.6293 19.3286 18.2012 19.3773 20.7731C19.3888 21.2065 19.2377 21.7213 18.7916 21.8883C18.0242 22.1642 17.2419 22.4021 16.4565 22.6262C15.3455 22.9433 14.1827 22.9898 13.0336 22.9972C10.5336 23.0363 8.01454 22.6674 5.66045 21.8122C5.21964 21.6833 4.98391 21.2182 5.00399 20.7805C5.03887 18.8449 5.1023 16.9084 5.05367 14.9718C5.03148 14.0543 4.91414 13.1229 5.11816 12.217C5.65199 9.54688 7.88248 7.36816 10.4977 6.70748C10.874 6.62397 11.1996 6.40831 11.5495 6.25824C11.3529 5.92102 11.1848 5.54893 10.8687 5.30369C10.4448 4.96225 10.1065 4.5003 9.96703 3.96964C9.68059 2.90621 10.2175 1.67365 11.2091 1.18316ZM8.92475 11.9147C8.32858 12.0458 7.84655 12.5501 7.72076 13.1441C7.47759 14.0437 8.09178 15.0796 9.01776 15.2488C9.97653 15.4782 10.9892 14.6716 11.0146 13.6938C11.1119 12.6092 9.9966 11.6039 8.92475 11.9147ZM14.6637 11.9602C14.1478 12.1589 13.743 12.6293 13.6309 13.1716C13.4068 14.0246 13.9321 14.9814 14.7853 15.2224C15.967 15.604 17.208 14.3069 16.8782 13.141C16.6362 12.2265 15.5665 11.6134 14.6637 11.9602ZM9.48285 17.5279C9.48186 17.8703 9.48079 18.2128 9.4755 18.5564C11.3138 18.5871 13.152 18.5617 14.9903 18.5691C14.9924 18.2203 14.9924 17.8725 14.9893 17.5246C13.1542 17.5279 11.318 17.5226 9.48285 17.5279Z" fill="current"/></svg>