<svg width="24" height="24" viewBox="0 0 24 24" fill="current" xmlns="http://www.w3.org/2000/svg"><path fill-rule="evenodd" clip-rule="evenodd" d="M9.75219 5.29032C7.60835 7.9909 6.99972 8.58773 6.12943 8.84317C5.45666 9.0407 5.28003 9.22022 4.97667 10.0155C4.67021 10.8189 3.92737 11.9927 2.93528 13.2411C2.49972 13.7892 2.19135 14.2638 2.19135 14.386C2.19135 14.9826 1.9701 15.5784 1.49659 16.2572L1 16.9692L1.9483 18.0153C2.46989 18.5908 3.08035 19.2705 3.30488 19.5258L3.71315 19.99L4.3143 18.822C4.64494 18.1796 4.92859 17.5987 4.94474 17.5312C4.96171 17.4599 4.82476 17.3542 4.61848 17.2794C4.42296 17.2085 4.20528 17.0911 4.13466 17.0186C4.02454 16.9053 4.13986 16.8928 4.95286 16.93C6.12012 16.9834 6.61534 16.8522 7.89355 16.1512C8.48776 15.8253 9.03207 15.6031 9.45458 15.5142C10.1404 15.3699 11.3734 14.7623 11.5347 14.4892C11.6038 14.3723 11.5929 14.2164 11.4953 13.9262L11.3605 13.5249L10.7675 13.4991C10.4166 13.4839 9.96961 13.5352 9.67264 13.6247C8.72178 13.9114 8.5499 13.9048 8.17647 13.5676C7.65971 13.1009 7.62167 12.9733 7.85322 12.4815C8.05449 12.0537 8.60518 11.3125 10.0575 9.5146C11.1699 8.13738 11.4973 7.60333 11.4973 7.16631C11.4973 6.72713 11.2772 6.15836 11.1072 6.15836C11.038 6.15836 10.5864 6.63611 10.1035 7.22008C9.12048 8.40896 7.78443 9.76647 7.43719 9.9292C6.97061 10.1478 7.11394 9.89466 7.91025 9.09316C8.36022 8.64028 9.20861 7.64687 9.79544 6.88563C10.3824 6.12429 10.8971 5.50147 10.9395 5.50147C10.9819 5.50147 11.1193 5.58452 11.2447 5.68605C11.3702 5.78759 11.4989 5.84389 11.5307 5.81124C11.62 5.71946 11.5992 4.8854 11.501 4.61982C11.3911 4.32244 11.083 4 10.9089 4C10.8361 4 10.3156 4.58069 9.75219 5.29032ZM12.7966 4.21114C12.4519 4.58961 12.3222 5.20277 12.4682 5.76338C12.5224 5.97143 12.5281 5.97255 12.6466 5.79848C12.714 5.69966 12.8533 5.59606 12.9562 5.56838C13.16 5.51357 13.2543 5.61577 14.5832 7.33138C14.9829 7.84751 15.6632 8.6232 16.0951 9.05516C16.527 9.48711 16.8802 9.87777 16.8802 9.92319C16.8802 10.3077 15.7083 9.30477 14.4879 7.87604C13.9722 7.27207 13.4163 6.62804 13.2527 6.44467L12.9553 6.11144L12.7787 6.32662C12.6816 6.44495 12.5752 6.72694 12.5422 6.9531C12.4573 7.5353 12.6999 7.94698 14.2868 9.91362C15.6412 11.5924 16.1682 12.3298 16.2817 12.7052C16.3647 12.98 16.0446 13.5262 15.6899 13.7149C15.3493 13.8961 15.0233 13.8901 14.6632 13.6961C14.4536 13.5832 14.1282 13.5368 13.5096 13.5319L12.648 13.5249L12.5315 13.935C12.456 14.2003 12.4448 14.4024 12.4997 14.5077C12.637 14.7718 13.7936 15.341 14.5058 15.4951C14.938 15.5886 15.5215 15.829 16.196 16.1915C17.4208 16.8497 17.9852 16.9898 19.1566 16.9269L20.0189 16.8805L19.7674 17.103C19.629 17.2254 19.4156 17.3255 19.2928 17.3255C19.1702 17.3255 19.0699 17.3683 19.0699 17.4207C19.0699 17.473 19.3423 18.0748 19.6753 18.7579L20.2807 20L21.1406 19.0616C21.6135 18.5455 22.2253 17.8632 22.5002 17.5456L23 16.968L22.5042 16.2191C22.0206 15.4886 21.9707 15.36 21.8493 14.5333C21.8031 14.2184 21.6286 13.9265 21.0247 13.1544C20.0566 11.9167 19.3683 10.8165 18.9851 9.89447C18.6675 9.13042 18.579 9.05112 17.747 8.78536C17.036 8.55836 16.4318 7.97006 14.7599 5.87683C13.5482 4.35979 13.2284 4 13.0919 4C13.0353 4 12.9024 4.09497 12.7966 4.21114Z" fill="current"/></svg>