<svg width="24" height="24" viewBox="0 0 24 24" fill="current" xmlns="http://www.w3.org/2000/svg"><path d="M13.9217 3.38628C13.8861 3.43504 13.8509 3.48326 13.8141 3.52756C12.8942 4.72454 11.97 5.91721 11.0416 7.10772C11.6109 7.46357 12.1782 7.8248 12.741 8.1925C12.9157 8.30579 13.099 8.41253 13.304 8.46325C14.5518 8.77138 15.7984 9.08514 17.045 9.39891C17.8443 9.60007 18.6435 9.80123 19.4431 10.0009C19.6738 10.0796 19.9607 10.0117 20.0621 9.77237C20.8708 8.35319 21.6795 6.93303 22.4841 5.51066C22.6738 5.27451 22.5347 4.90247 22.2339 4.86149C20.827 4.51697 19.419 4.17699 18.0112 3.83707C17.044 3.60352 16.0768 3.36999 15.1102 3.13503C15.0516 3.1215 14.993 3.10615 14.9343 3.09076C14.7545 3.0436 14.5736 2.99618 14.3866 3.00024C14.1725 3.04289 14.0447 3.21784 13.9217 3.38628Z" fill="current"/><path d="M7.76335 6.41534C7.34924 6.54583 6.96744 6.75179 6.60513 6.988C5.68365 7.52944 4.76873 8.08185 3.85368 8.63434C3.33285 8.94881 2.8117 9.26347 2.28956 9.57598C2.09445 9.67668 1.97953 9.86628 1.86937 10.048L1.85283 10.0753C1.86966 10.095 1.88642 10.1149 1.90323 10.1349C2.02425 10.2786 2.14748 10.425 2.31221 10.5206C2.86909 10.857 3.42718 11.191 3.9852 11.525C5.00157 12.1334 6.01768 12.7415 7.0257 13.3632C7.31467 13.5411 7.66729 13.6652 8.0059 13.5692C8.28523 13.4883 8.52975 13.3321 8.77344 13.1765C8.86753 13.1165 8.96149 13.0565 9.05729 13.0009C10.098 12.3783 11.1362 11.7509 12.1743 11.1236L12.1753 11.123L12.1929 11.1123C12.5385 10.9035 12.884 10.6947 13.2295 10.4862C13.3978 10.3794 13.5551 10.2295 13.608 10.0311C13.4938 9.74166 13.2245 9.58682 12.9653 9.43783C12.904 9.40259 12.8431 9.36757 12.7852 9.33127C11.7302 8.68681 10.6693 8.05114 9.60861 7.41561C9.23171 7.18978 8.85484 6.96396 8.47828 6.73778C8.25286 6.6019 8.00805 6.50701 7.76335 6.41534Z" fill="current"/><path d="M22.5248 7.09828C22.6475 6.84698 22.7704 6.59548 22.9596 6.38513C23.0126 6.75152 23.0018 7.12054 22.9911 7.48924C22.9865 7.64576 22.982 7.80224 22.9823 7.95841C22.977 8.24874 22.972 8.53911 22.967 8.82949C22.9467 10.0124 22.9264 11.1957 22.8831 12.3775C22.8722 12.7172 22.8507 13.0677 22.6997 13.3794C22.4183 13.9526 22.1482 14.5312 21.8781 15.1099C21.6472 15.6045 21.4162 16.0992 21.1782 16.5907L21.1684 16.6095C20.9828 16.9638 20.7918 17.3284 20.4665 17.5752C20.3978 16.4987 20.4052 15.419 20.4125 14.3391C20.4165 13.7574 20.4205 13.1757 20.4125 12.5943C20.4203 12.4114 20.4161 12.225 20.4118 12.0379C20.4002 11.5243 20.3884 11.005 20.624 10.5379C21.1828 9.54866 21.7329 8.55455 22.2827 7.56115L22.3612 7.41925C22.4192 7.31448 22.472 7.20639 22.5248 7.09828Z" fill="current"/><path d="M17.655 10.3995C16.7365 10.1674 15.818 9.93537 14.9021 9.6954C15.2859 10.185 15.5642 10.7759 15.5653 11.4089C15.6011 12.7979 15.5615 14.1874 15.5218 15.5767C15.5054 16.1526 15.489 16.7285 15.4779 17.3043C16.2943 17.5171 17.1113 17.727 17.9284 17.9369L18.8316 18.1692C19.1282 18.2931 19.512 18.0969 19.4862 17.7518C19.5228 15.5994 19.5541 13.447 19.5843 11.2956C19.622 11.0606 19.4516 10.8352 19.2198 10.7964C18.6988 10.6632 18.1766 10.5313 17.655 10.3995Z" fill="current"/><path d="M1.14882 11.1356C1.24924 11.0262 1.39112 11.1014 1.51501 11.1671C1.55342 11.1875 1.59011 11.207 1.62329 11.2197C2.45574 11.7164 3.28701 12.2159 4.11833 12.7156C4.88067 13.1737 5.64349 13.6322 6.40685 14.0881C7.0453 14.4602 7.27385 15.241 7.26846 15.9387C7.27047 16.5134 7.26634 17.0882 7.26222 17.6631C7.25527 18.6308 7.24832 19.5989 7.27062 20.5669C7.2669 20.6972 7.26898 20.8283 7.27106 20.9596C7.27622 21.2848 7.2814 21.611 7.19845 21.9268C7.06053 22.0233 6.92392 21.9423 6.79541 21.8661C6.75603 21.8428 6.71742 21.8199 6.67976 21.8027C5.97299 21.3757 5.26432 20.9515 4.55559 20.5273C3.57846 19.9424 2.60122 19.3575 1.62869 18.765C1.1747 18.4976 1.00109 17.9498 1.00324 17.4494C1.00118 16.5764 1.00158 15.7033 1.00197 14.8303C1.0024 13.8702 1.00283 12.91 1 11.9498C1.00775 11.8759 1.00751 11.7973 1.00727 11.7176C1.00665 11.5087 1.006 11.2925 1.14882 11.1356Z" fill="current"/><path d="M14.3522 11.064C14.1883 11.1014 14.0204 11.1398 13.8777 11.2336C12.3098 12.1847 10.7375 13.1282 9.161 14.0632C8.54096 14.4104 8.27784 15.1448 8.27138 15.8231C8.26574 16.7669 8.2666 17.7111 8.26746 18.6553C8.26824 19.5138 8.26902 20.3724 8.26492 21.231C8.26061 21.4845 8.29723 21.7368 8.33826 21.987C8.3632 21.9816 8.38842 21.9766 8.41372 21.9715C8.52951 21.9485 8.64711 21.9252 8.74797 21.8597C9.22551 21.5728 9.70275 21.2855 10.18 20.9981C11.2546 20.351 12.3293 19.7039 13.4076 19.0625C13.4622 19.029 13.5183 18.9963 13.5746 18.9636C13.8283 18.816 14.0876 18.6652 14.2509 18.4154C14.4978 18.0758 14.5323 17.6412 14.5366 17.2357C14.5345 15.5815 14.5345 13.9273 14.5366 12.2732C14.5357 12.2042 14.5363 12.1345 14.5368 12.0645C14.5396 11.7199 14.5425 11.3683 14.3695 11.06L14.3522 11.064Z" fill="current"/></svg>