<svg width="24" height="24" viewBox="0 0 24 24" fill="current" xmlns="http://www.w3.org/2000/svg"><path fill-rule="evenodd" clip-rule="evenodd" d="M10.4092 1.05729C7.32821 1.52932 5 4.33872 5 7.5844C5 10.1434 6.36964 12.2545 8.82263 13.4763L9.88526 14.0056L10.907 12.9029C12.0637 11.6545 12.0868 11.7419 10.5371 11.5017L9.54082 11.3475L10.411 10.5251C11.0888 9.88472 11.2441 9.67916 11.1129 9.59544C11.0204 9.53642 10.908 9.48726 10.8631 9.48619C10.6612 9.48168 9.31586 8.09028 9.09926 7.66207C8.51597 6.50841 8.73987 5.06796 9.66371 4.03139C11.0726 2.4507 13.1738 2.3677 14.5188 3.83973C15.0856 4.46008 15.6275 5.50413 15.8712 6.44559C15.969 6.82333 16.0739 7.15749 16.1041 7.18813C16.1345 7.21865 16.3021 7.05489 16.4767 6.82392C16.8533 6.326 17.1968 5.27578 17.3083 4.28195L17.3885 3.56577L16.8284 3.01667C16.1698 2.37078 14.4896 1.51626 13.3579 1.25144C12.3271 1.01026 11.2005 0.936041 10.4092 1.05729ZM14.5493 11.0424C14.0867 11.3711 13.7305 11.6763 13.7577 11.7206C13.7848 11.7649 14.2356 12.012 14.7596 12.2697C15.2835 12.5274 15.7123 12.7731 15.7123 12.8156C15.7123 12.8582 15.1164 13.3108 14.3879 13.8213C13.6596 14.3319 13.0438 14.765 13.0197 14.7838C12.9956 14.8025 13.1995 15.074 13.473 15.3871C14.572 16.6453 14.9356 17.7606 14.611 18.8792C14.363 19.7342 13.8587 20.3165 12.9843 20.7573C11.3026 21.605 9.52857 20.9757 8.65617 19.2219C8.26064 18.4267 8.09937 17.7854 7.99248 16.5831L7.91102 15.6662L7.58483 15.9005C7.14139 16.219 6.60684 17.0599 6.2272 18.0362L5.91184 18.847L6.17152 19.3884C7.08041 21.2823 10.8441 23.2216 13.1407 22.9794C15.547 22.7257 17.8472 20.8888 18.6638 18.5688C18.8227 18.1173 18.9375 17.4342 18.9769 16.7037C19.0319 15.6881 19.0029 15.4334 18.733 14.5602C18.2627 13.0383 17.321 11.7846 15.9152 10.809L15.3903 10.4446L14.5493 11.0424Z" fill="current"/></svg>