<svg width="24" height="24" viewBox="0 0 24 24" fill="current" xmlns="http://www.w3.org/2000/svg"><path d="M14.428 2.02345C14.6467 1.61551 14.9338 1.18338 15.4011 1.04152C15.825 0.939124 16.2456 1.0456 16.6606 1.15064C16.7893 1.1832 16.9174 1.21563 17.0449 1.24165L17.1824 1.27357C18.4841 1.57554 19.8482 1.89196 20.8902 2.77776C22.3152 4.02358 22.855 6.10726 22.3866 7.91826C22.2811 8.2987 22.1546 8.74516 21.7654 8.92764C21.4835 9.04782 21.1729 8.97263 20.8839 8.90265C20.8527 8.89509 20.8218 8.8876 20.7912 8.88043C19.7807 8.61868 18.7833 8.22833 17.9609 7.57078C17.2813 7.06286 16.7744 6.36234 16.3643 5.62787C16.0432 5.10886 16.151 4.45132 16.3049 3.89493C16.372 3.60794 16.6501 3.4386 16.9338 3.44301C17.9278 3.40782 18.8966 3.92022 19.5014 4.69762C19.9873 5.32658 20.3195 6.05894 20.6262 6.78797C21.0221 4.85926 19.5992 2.85473 17.7068 2.44899C17.0537 2.30494 16.2917 2.35003 15.7705 2.81405C15.3219 3.19889 15.1438 3.82346 15.2163 4.39853C15.3703 5.66195 15.9267 6.90342 16.8767 7.76762C17.7497 8.58137 18.8955 8.99699 20.0006 9.38946C20.2034 9.46709 20.4118 9.5367 20.6209 9.60651C21.3152 9.8384 22.0164 10.0726 22.5395 10.61C22.4924 10.6597 22.4458 10.711 22.3988 10.7627C22.1429 11.0442 21.8777 11.336 21.4894 11.4149C20.4239 11.7064 19.3485 11.9647 18.2622 12.1615C17.2637 12.3584 16.3412 11.8174 15.521 11.3237C14.0816 10.4089 12.9424 9.09152 12.0363 7.66096C11.7065 7.131 11.9473 6.46354 12.2255 5.96434C12.5997 5.25961 12.9952 4.56694 13.3908 3.8742C13.7414 3.26015 14.0921 2.64605 14.428 2.02345Z" fill="current"/><path d="M10.0792 7.88838C10.4838 7.70367 10.9533 7.95329 11.1898 8.29309C12.408 9.92261 13.8607 11.4071 15.6035 12.4759C15.8212 12.6243 16.0741 12.809 16.0873 13.0993C16.1094 13.4272 15.8546 13.664 15.6309 13.872C15.61 13.8914 15.5894 13.9105 15.5693 13.9295C14.8788 14.521 14.2104 15.1391 13.5616 15.7779C13.5221 15.8182 13.4825 15.8596 13.4425 15.9014C13.149 16.2082 12.8366 16.5348 12.3982 16.5949C11.9132 16.6532 11.4877 16.3657 11.1039 16.1064L11.0831 16.0923C9.46119 14.9741 8.31988 13.2939 7.50835 11.5236C7.37143 11.2481 7.4671 10.9599 7.56028 10.6792C7.59281 10.5813 7.62504 10.4842 7.64696 10.3889C7.70973 10.4222 7.77512 10.4537 7.84101 10.4854C8.11669 10.6181 8.40109 10.7551 8.53866 11.0453C9.15112 12.124 10.1705 12.9465 11.3437 13.3434C11.1175 13.0069 10.8849 12.6745 10.6523 12.342C10.1803 11.6674 9.70803 10.9926 9.28973 10.2833C8.82679 9.45755 9.19398 8.26003 10.0792 7.88838Z" fill="current"/><path d="M5.83988 12.5266C5.81062 12.5451 5.78178 12.5635 5.75338 12.581C4.71317 13.3057 3.66308 14.0172 2.59209 14.6967C2.52892 14.7386 2.46433 14.7796 2.39947 14.8209C2.08502 15.0207 1.76418 15.2247 1.56729 15.551C1.08677 16.3108 0.908644 17.2543 1.04389 18.1394C1.12416 18.5737 1.32648 19.0707 1.7883 19.2105C2.12147 19.316 2.51622 19.5106 2.51842 19.9163L2.51859 19.9442C2.52171 20.4596 2.52521 21.0388 2.96265 21.3953C3.18806 21.4019 3.39918 21.3084 3.58941 21.1974C3.96833 20.9716 4.29195 20.6745 4.61543 20.3776C4.83545 20.1756 5.0554 19.9737 5.29265 19.7943C5.32729 19.797 5.37925 19.8014 5.4312 19.8058C5.48316 19.8102 5.53511 19.8146 5.56975 19.8174C5.34017 20.4132 5.10406 21.0066 4.86787 21.6001C4.75451 21.885 4.64113 22.17 4.52844 22.4553C4.72176 22.5016 4.91469 22.5502 5.10766 22.5988C5.70715 22.7499 6.307 22.901 6.92 22.9842C7.5358 23.0864 8.10974 22.6785 8.37695 22.1463C9.08838 20.8005 9.93509 19.5337 10.7839 18.2736C10.8022 18.2434 10.8211 18.213 10.8402 18.1823C10.9911 17.9396 11.1537 17.6779 11.1127 17.3851C11.0564 17.0723 10.7835 16.8919 10.5327 16.7261C10.4943 16.7007 10.4564 16.6757 10.42 16.6506C9.04441 15.7698 7.94262 14.4856 7.24443 13.0121C7.21619 12.9611 7.18923 12.907 7.16187 12.8521C7.04534 12.6182 6.92163 12.3699 6.66159 12.2853C6.36373 12.1938 6.08693 12.3696 5.83988 12.5266Z" fill="current"/></svg>