<svg width="24" height="24" viewBox="0 0 24 24" fill="current" xmlns="http://www.w3.org/2000/svg"><path fill-rule="evenodd" clip-rule="evenodd" d="M10.7349 1.1816C7.6154 2.03648 5.13262 4.88874 3.69868 9.26493C3.20785 10.7629 3 12.0381 3 13.551C3 17.6695 4.43051 21.671 6.28677 22.7444L6.72876 23L6.78799 21.0914C6.85827 18.8268 7.08755 17.7198 7.76424 16.3778C8.2932 15.3289 9.22348 14.3627 10.2428 13.8037C10.607 13.604 11.6002 13.2256 12.4498 12.9631C14.2503 12.4065 14.5092 12.2851 14.8032 11.8591C15.3614 11.0502 15.3176 10.0355 14.7011 9.50023C14.2697 9.12574 13.7386 9.12084 12.9815 9.4845C12.6675 9.63532 12.3816 9.7288 12.3462 9.69232C12.2171 9.55916 12.2863 7.86981 12.4478 7.20839C12.6971 6.1881 13.4422 4.74977 14.1243 3.97207L14.7314 3.27998H14.3394C12.5578 3.27998 10.2045 5.63486 8.90536 8.71808C8.71375 9.17282 8.52491 9.51186 8.48568 9.4715C8.33563 9.31658 8.42381 7.72435 8.62823 6.90014C9.04867 5.20394 9.8205 3.9951 11.6172 2.21899L12.8501 1L12.0964 1.00752C11.6818 1.01163 11.0691 1.08995 10.7349 1.1816ZM19.2432 5.70634C19.0913 5.78409 18.84 6.10363 18.6848 6.41632C18.3742 7.04207 17.5813 7.67373 16.9542 7.79503C16.6714 7.84986 16.5264 7.80392 16.2649 7.57684C15.5939 6.99441 14.8252 7.11537 14.3769 7.87403C14.0765 8.38224 14.103 8.48746 14.5537 8.57467C15.0566 8.67203 15.7676 9.33254 15.9359 9.85887C16.3635 11.1955 15.2786 13.3119 14.1658 13.3119C14.0412 13.3119 13.9393 13.3592 13.9393 13.417C13.9393 13.6394 14.6813 14.512 14.9548 14.6113C15.3892 14.7688 16.2185 14.2999 16.7129 13.6173C17.1028 13.0791 17.618 11.7368 17.7596 10.891C17.8199 10.53 17.9474 10.376 18.5967 9.87928C19.018 9.55711 19.62 9.1588 19.9346 8.99419C20.9673 8.45383 21.2622 7.59701 20.7626 6.58823C20.3782 5.81202 19.7495 5.44722 19.2432 5.70634Z" fill="current"/></svg>