<svg width="24" height="24" viewBox="0 0 24 24" fill="current" xmlns="http://www.w3.org/2000/svg"><path fill-rule="evenodd" clip-rule="evenodd" d="M9.31738 1.53325C7.8181 0.657246 5.78305 0.879616 4.51058 2.05999C3.36503 3.06515 2.86413 4.67454 3.03148 6.16601C3.23147 8.73661 3.42752 11.3075 3.62357 13.8784C3.83267 16.6203 4.04176 19.3622 4.25564 22.1038C4.39291 21.6736 4.5239 21.2416 4.65484 20.8098C4.82708 20.2419 4.99925 19.6741 5.18556 19.1108C5.38547 20.4079 5.59212 21.704 5.79989 23C5.96335 22.5168 6.12764 22.034 6.2919 21.5513C6.66826 20.4453 7.04449 19.3397 7.41038 18.2303C7.4684 18.8924 7.52418 19.5549 7.57997 20.2176C7.61276 20.6071 7.64555 20.9966 7.67881 21.3861C8.91648 16.3097 10.1676 11.2368 11.4187 6.16488C11.8095 4.38366 10.9144 2.41152 9.31738 1.53325ZM5.44724 5.36973C5.36975 4.5263 5.94028 3.66152 6.768 3.44363C7.81474 3.11569 8.97038 3.95239 9.05459 5.02831C9.19833 6.06156 8.32346 7.10714 7.26891 7.09036C6.32435 7.12066 5.49666 6.30077 5.44724 5.36973Z" fill="current"/><path fill-rule="evenodd" clip-rule="evenodd" d="M19.2107 4.65119C18.1663 4.08291 16.8141 4.18061 15.8583 4.88479C15.2912 5.3228 14.7925 5.8967 14.5365 6.57283C14.295 7.34016 14.0535 8.10752 13.812 8.8749C12.5932 12.7474 11.3742 16.6204 10.1575 20.4935C10.494 20.0341 10.822 19.5687 11.1501 19.1033C11.4571 18.6676 11.7641 18.2321 12.078 17.8015C11.8076 18.9098 11.5596 20.0246 11.3116 21.1391C11.2661 21.3436 11.2206 21.5481 11.175 21.7525C12.3383 20.2072 13.501 18.6613 14.6637 17.1154C16.5228 14.6437 18.3819 12.1719 20.2439 9.7017C20.5393 9.29744 20.7774 8.84253 20.883 8.34952C21.2211 6.92773 20.5136 5.32616 19.2107 4.65119ZM17.3835 8.63709C16.695 8.29789 16.7197 7.18036 17.4239 6.87383C18.1034 6.49642 18.9502 7.20731 18.7885 7.93627C18.7054 8.56631 17.9394 8.97284 17.3835 8.63709Z" fill="current"/></svg>