<svg width="24" height="24" viewBox="0 0 24 24" fill="current" xmlns="http://www.w3.org/2000/svg"><path d="M1.82867 7.79517C1.88733 8.20675 1.87542 8.62475 1.79475 9.03267L1.21083 11.9504C1.07333 12.6361 1.12375 13.3511 1.43817 13.9753C2.89658 16.872 6.4395 21.2509 12.0009 21.2509C17.5623 21.2509 21.1053 16.8729 22.5637 13.9753C22.8781 13.3511 22.9285 12.6361 22.791 11.9504L22.2071 9.03267C22.1255 8.62475 22.1136 8.20675 22.1723 7.79517L23 2L17.9684 3.54825C17.3882 3.727 16.7575 3.60692 16.2845 3.22742L15.2523 2.4015C14.9269 2.14117 14.5236 2 14.1074 2H9.8935C9.47733 2 9.07308 2.14208 8.74858 2.4015L7.71642 3.22742C7.2425 3.60692 6.61183 3.72608 6.03158 3.54825L1 2L1.82775 7.79517H1.82867ZM4.66758 11.1667C5.12592 6.58333 9.25092 6.58333 10.1676 11.1667C10.1676 11.1667 9.25092 10.25 7.41758 10.25C5.58425 10.25 4.66758 11.1667 4.66758 11.1667ZM19.3342 11.1667C19.3342 11.1667 18.4176 10.25 16.5842 10.25C14.7509 10.25 13.8342 11.1667 13.8342 11.1667C14.2926 6.58333 18.4176 6.58333 19.3342 11.1667ZM12.0009 14.8333C14.2926 14.8333 16.5842 13.9167 16.5842 13.9167C16.5842 18.9583 7.41758 18.5 7.41758 13.9167C7.41758 13.9167 9.70925 14.8333 12.0009 14.8333Z" fill="current"/></svg>