<svg width="24" height="24" viewBox="0 0 24 24" fill="current" xmlns="http://www.w3.org/2000/svg"><path d="M9.22486 2.24601C9.7877 1.5676 10.5938 1.00474 11.5052 1.00102C12.3085 0.97586 13.0512 1.42037 13.5609 2.01583C13.5803 2.03966 13.6002 2.06366 13.6202 2.08787C13.8265 2.33718 14.0511 2.60861 14.0511 2.94493C14.0199 3.20642 13.7785 3.29548 13.5515 3.37926C13.4735 3.40804 13.3971 3.4362 13.3316 3.47051C12.8713 3.63545 12.6942 4.19178 12.8331 4.6335C12.9067 5.16001 13.5003 5.32681 13.9439 5.41255C14.9438 5.56258 15.7909 6.23634 16.3472 7.05453C16.4572 7.3406 16.3668 7.74042 16.0863 7.90535C15.7229 8.16909 15.2308 8.34333 14.8003 8.1346C14.5098 7.9955 14.2707 7.78486 14.0312 7.57392C13.8166 7.38488 13.6017 7.1956 13.3494 7.05732C13.5488 7.32383 13.7314 7.63414 13.6979 7.98174C13.67 8.31977 13.5553 8.63647 13.4405 8.95323C13.3711 9.14468 13.3017 9.33615 13.2515 9.53237C12.7568 11.291 12.7617 13.1166 12.7665 14.9333C12.768 15.4741 12.7694 16.0142 12.7577 16.5514C12.7339 17.9209 12.5064 19.2722 12.2793 20.6208C12.2204 20.9707 12.1615 21.3204 12.1063 21.6702C12.0495 21.9989 11.8727 22.2761 11.6958 22.5533C11.6025 22.6997 11.5091 22.8461 11.4334 23C11.368 22.8612 11.2974 22.7243 11.2268 22.5873C11.057 22.2581 10.887 21.9284 10.7877 21.5704C10.3673 20.1223 10.2006 18.6126 10.167 17.1086C10.1434 16.4077 10.1637 15.7068 10.184 15.0061C10.2077 14.1853 10.2314 13.3646 10.1847 12.5442C10.1195 11.1772 9.89676 9.8008 9.3665 8.53251C9.17839 8.17071 9.3427 7.81715 9.50408 7.46991C9.57298 7.32165 9.64134 7.17454 9.68151 7.02844C9.64557 7.04873 9.60914 7.06882 9.57256 7.08899C9.30176 7.23828 9.0224 7.3923 8.86883 7.67142C8.68061 7.98826 8.34796 8.23896 7.96682 8.22775C7.48131 8.2082 7.02283 7.99477 6.61649 7.74129C6.37422 7.58009 6.38821 7.24275 6.56244 7.03589C7.21288 6.25963 8.03947 5.51133 9.08973 5.39112C9.46618 5.36502 9.83897 5.17212 10.0356 4.84317C10.1763 4.53378 10.2331 4.14519 10.058 3.83674C9.92444 3.61965 9.70413 3.50453 9.48388 3.38945C9.26451 3.27483 9.04519 3.16023 8.91176 2.94493C8.85222 2.70094 9.02165 2.49438 9.16999 2.31354C9.18879 2.29063 9.20725 2.26812 9.22486 2.24601Z" fill="current"/><path d="M2.04657 6.72189L2.15892 6.75029C2.52912 6.84363 2.90014 6.93717 3.24964 7.09376C3.66234 7.27257 4.07606 7.4491 4.48977 7.62563C5.66504 8.12712 6.84023 8.62857 7.99196 9.18203C8.41785 9.40476 8.83531 9.79806 8.84374 10.3124C9.03053 12.3381 9.17488 14.3675 9.31922 16.3966C9.36498 17.04 9.41075 17.6834 9.45786 18.3266C9.49791 18.5066 9.38219 18.6418 9.2724 18.77C9.24688 18.7998 9.22166 18.8292 9.19881 18.8588L9.13657 18.75C8.92488 18.3808 8.70953 18.0053 8.63406 17.5811C8.33677 16.091 7.60899 14.6876 6.54761 13.5973C5.91668 12.9366 5.1749 12.3915 4.39399 11.92C4.31483 11.8707 4.2322 11.8252 4.14937 11.7795C3.91723 11.6517 3.68359 11.5229 3.52081 11.3086C3.29875 11.019 3.1407 10.6907 2.9828 10.3626C2.9121 10.2158 2.84143 10.069 2.76505 9.92572C2.84426 9.82691 2.92441 9.72906 3.00455 9.63217C3.91293 9.97515 4.82412 10.3097 5.73568 10.6444L6.15151 10.7971L6.24097 10.606C5.18515 10.0208 4.12561 9.44299 3.06418 8.86989C2.69237 8.67142 2.33266 8.4049 2.14163 8.01906C1.94966 7.61463 1.99066 7.15242 2.04657 6.72189Z" fill="current"/><path d="M20.9461 6.81603C20.8023 6.79434 20.6544 6.77206 20.5193 6.84285C18.594 7.63587 16.6706 8.43734 14.7677 9.28435C14.394 9.4372 14.1237 9.81 14.1061 10.2153C13.8798 12.787 13.7012 15.362 13.5227 17.9364L13.5022 18.2314C13.4763 18.4291 13.5348 18.6195 13.5921 18.8062L13.5936 18.811C13.9653 18.32 14.2645 17.7701 14.4275 17.1737C14.5776 16.5997 14.7518 16.0284 15.0174 15.4954C15.7033 14.0584 16.8998 12.9067 18.2819 12.1397C18.3667 12.0914 18.4536 12.0451 18.5408 11.9987C18.8723 11.8223 19.2076 11.6439 19.4429 11.3429C19.8094 10.8806 19.9396 10.2946 20.0655 9.7278C20.0779 9.67201 20.0902 9.6164 20.1027 9.56112C19.6285 9.73939 19.1558 9.92171 18.6832 10.104C18.0712 10.3401 17.4592 10.5762 16.8439 10.8033C17.7852 10.0264 18.8566 9.43829 19.9224 8.85322C20.0046 8.80808 20.0868 8.76295 20.1689 8.71777C20.8324 8.34314 21.0374 7.53802 21.0085 6.82515C20.9878 6.82231 20.967 6.81917 20.9461 6.81603Z" fill="current"/></svg>