<svg width="24" height="24" viewBox="0 0 24 24" fill="current" xmlns="http://www.w3.org/2000/svg"><path fill-rule="evenodd" clip-rule="evenodd" d="M14.7754 3.31418C14.2436 1.77652 12.535 0.715761 10.9193 1.06768C9.87852 1.26464 8.95378 1.98547 8.50687 2.94626C7.96496 4.03901 8.07197 5.41071 8.75179 6.41947C9.17177 7.03332 9.7876 7.52127 10.5014 7.74414C11.4902 8.07212 12.6209 7.89317 13.4727 7.2993C14.7395 6.46446 15.3154 4.73685 14.7754 3.31418ZM9.68765 4.20497C9.38768 3.71409 9.72163 3.07423 10.2125 2.86528C10.5814 2.66732 11.0353 2.96425 11.1283 3.34117C11.2643 3.84606 10.9894 4.42093 10.5385 4.66987C10.1745 4.87982 9.85159 4.48991 9.68765 4.20497Z" fill="current"/><path d="M4.84359 7.94737C4.58235 7.8334 4.32143 7.71956 4.06476 7.5994L4.06523 7.65589C4.06763 7.96693 4.07008 8.28491 4.19073 8.5771C4.32792 8.94608 4.56092 9.25772 4.79419 9.56971C4.95533 9.78523 5.1166 10.0009 5.24649 10.2358C5.55248 10.7781 5.88735 11.3024 6.22223 11.8267C6.39721 12.1006 6.57226 12.3747 6.74313 12.6512C5.94572 12.6857 5.14831 12.7231 4.35089 12.7604C3.90076 12.7815 3.45013 12.8026 3 12.8232C3.64991 13.7605 4.63131 14.3412 5.59515 14.9115C5.77149 15.0158 5.94731 15.1199 6.12034 15.2256C5.81147 15.4814 5.50438 15.7392 5.19732 15.997C4.80957 16.3225 4.42189 16.6479 4.03077 16.9693C4.04739 16.9843 4.06351 17.0009 4.07976 17.0177C4.13586 17.0755 4.19369 17.1351 4.27972 17.1382C4.65122 17.2011 5.0269 17.2362 5.40255 17.2713C5.92864 17.3205 6.45466 17.3697 6.96907 17.4951C7.56999 17.6381 8.13087 17.982 8.47774 18.5009C8.51814 18.5554 8.55325 18.616 8.58846 18.6768C8.68048 18.8357 8.77319 18.9958 8.96262 19.0508C8.99942 18.8137 9.04995 18.5771 9.10053 18.3403C9.22313 17.7665 9.34606 17.1911 9.2746 16.6023C9.25693 16.4334 9.20763 16.2714 9.15837 16.1096C9.10735 15.942 9.05638 15.7745 9.04061 15.5995C9.01524 15.0217 9.01737 14.4432 9.01949 13.8647C9.02164 13.281 9.02378 12.6973 8.99768 12.1143C8.92863 10.9056 8.11587 9.8948 7.17106 9.20902C6.47128 8.65749 5.65592 8.30177 4.84359 7.94737Z" fill="current"/><path d="M17.9823 8.12171C18.3059 7.95831 18.6296 7.79487 18.9594 7.64371C19.0135 7.68673 19.1205 7.77168 19.1745 7.81362C18.9598 8.83472 18.3835 9.67802 17.8059 10.5232C17.3395 11.2056 16.8723 11.8892 16.594 12.6686C17.0525 12.6927 17.5108 12.7183 17.9691 12.744C18.7091 12.7855 19.4489 12.827 20.1892 12.8616C19.526 13.8234 18.5127 14.4156 17.522 14.9947C17.3687 15.0843 17.2158 15.1737 17.065 15.264C17.5838 15.6836 18.0984 16.1085 18.613 16.5334C18.845 16.7249 19.077 16.9165 19.3094 17.1076C19.1171 17.1372 18.9249 17.1702 18.7325 17.2032C18.1471 17.3036 17.5602 17.4042 16.9649 17.4125C16.4451 17.4025 15.8881 17.4545 15.4613 17.7824C15.1869 17.9761 15.0123 18.254 14.8373 18.5326C14.7042 18.7443 14.5709 18.9564 14.3935 19.1321C14.1868 19.3708 13.896 19.4969 13.6123 19.6198C13.5776 19.6349 13.543 19.6499 13.5087 19.665C13.2794 18.8787 13.5242 18.0761 13.7556 17.3172C13.7734 17.2587 13.7912 17.2005 13.8087 17.1426C14.1552 16.181 14.1249 15.1586 14.0951 14.1493C14.0886 13.9328 14.0823 13.7168 14.0796 13.5023C14.0662 12.9988 14.1226 12.4982 14.1789 11.9984C14.1939 11.8652 14.2089 11.732 14.2226 11.5988C14.2353 11.3901 14.353 11.2163 14.467 11.0479C14.4878 11.0171 14.5086 10.9865 14.5285 10.9559C14.6083 10.84 14.6867 10.722 14.7654 10.6038C15.1347 10.0483 15.5084 9.48605 16.0542 9.09038C16.3478 8.86357 16.6865 8.71969 17.0249 8.57599C17.1876 8.50685 17.3503 8.43776 17.5078 8.3595C17.6665 8.28117 17.8244 8.20144 17.9823 8.12171Z" fill="current"/><path d="M9.34338 8.08519C9.07427 7.95232 8.78848 7.81122 8.4917 7.93885C8.24975 8.08987 8.1967 8.42978 8.28374 8.68474C8.44271 9.17757 8.68763 9.65051 9.04752 10.0274C9.36845 10.3693 9.60939 10.7822 9.75237 11.2281C9.92988 11.7668 9.9796 12.3285 10.0293 12.8904C10.06 13.2368 10.0907 13.5833 10.1513 13.9246C10.4053 15.3592 10.6462 16.8318 10.4132 18.2865C10.3864 18.4809 10.3409 18.6724 10.2954 18.8639C10.222 19.1728 10.1487 19.4814 10.1543 19.8012C10.1591 20.4858 10.3919 21.1293 10.6224 21.7667C10.6743 21.9102 10.7261 22.0533 10.7752 22.1966L10.7804 22.2111C10.883 22.4977 11.0002 22.8247 11.302 22.9544C11.5634 23.0634 11.8376 22.9546 12.0827 22.8573L12.0898 22.8545C12.092 22.7154 12.0994 22.5759 12.1069 22.4362C12.1271 22.0568 12.1474 21.6765 12.0619 21.3039C11.8189 20.1031 12.0528 18.8614 12.4887 17.7337C12.7647 17.0428 13.0066 16.3309 13.0826 15.5871C13.152 15.0839 13.1305 14.5788 13.109 14.0737C13.0953 13.7499 13.0815 13.426 13.0916 13.1027C13.0918 12.9942 13.0903 12.8843 13.0887 12.7737C13.079 12.0654 13.0689 11.3258 13.4865 10.7222C13.5757 10.5998 13.667 10.4783 13.7584 10.3565C14.1489 9.83647 14.5424 9.31258 14.7862 8.7067C14.8362 8.41776 14.7352 7.9309 14.3623 7.94084C14.1386 7.93396 13.9349 8.02877 13.7345 8.12206C13.6744 8.15006 13.6146 8.17792 13.5546 8.20285C12.2838 8.7837 10.7691 8.75767 9.50745 8.1638C9.4535 8.13956 9.39879 8.11255 9.34338 8.08519Z" fill="current"/></svg>