<svg width="24" height="24" viewBox="0 0 24 24" fill="current" xmlns="http://www.w3.org/2000/svg"><path fill-rule="evenodd" clip-rule="evenodd" d="M11.9448 1C11.9448 1 17.0224 1.1672 18.1521 7.545C19.2807 13.9195 21.5984 14.4805 21.5984 14.4805C21.5984 14.4805 19.9088 20.5525 14.2801 23C14.2801 23 17.1577 18.3063 17.1577 14.7962C17.1577 12.8899 16.6429 9.7417 11.9492 9.7417C7.2555 9.7417 6.7407 12.8943 6.7407 14.7962C6.7407 18.3063 9.6183 23 9.6183 23C3.9896 20.5514 2.3 14.4849 2.3 14.4849C2.3 14.4849 4.6133 13.9239 5.743 7.5461C6.8705 1.165 11.9437 1 11.9437 1H11.9448ZM7.965 13.32C8.768 11.0738 11.9448 11.1596 11.9448 11.1596C11.9448 11.1596 15.1249 11.0738 15.9246 13.3189C15.0336 15.8577 13.9325 18.8211 11.9448 18.8211C9.9615 18.8211 8.8538 15.8577 7.965 13.3189V13.32Z" fill="current"/></svg>