<svg width="24" height="24" viewBox="0 0 24 24" fill="current" xmlns="http://www.w3.org/2000/svg"><path d="M5.2904 5.01099C5.96537 5.01448 6.64034 5.01398 7.3153 5.01348C7.82176 5.01311 8.32823 5.01273 8.83469 5.01405C9.00987 5.30228 9.14124 5.61393 9.22892 5.93984C9.6037 7.27098 9.70957 8.65719 9.80028 10.0311C10.8538 10.0289 11.9069 10.0293 12.9598 10.0297C13.3734 10.0299 13.7875 10.03 14.2011 10.03C14.2714 8.78545 14.3854 7.53784 14.6666 6.32075C14.7806 5.86243 14.912 5.39801 15.1789 5.00284L15.6825 5.00189C16.6907 4.99989 17.6984 4.99789 18.7068 5.00488C19.089 5.57716 19.2183 6.25974 19.3446 6.92665C19.3604 7.00985 19.3761 7.09281 19.3923 7.17528C19.7182 9.24791 19.7661 11.3551 19.6755 13.4481C19.599 14.7365 19.4962 16.033 19.1784 17.2878C19.0715 17.6931 18.9472 18.1026 18.7028 18.4478C18.1268 18.4429 17.5507 18.4437 16.9746 18.4446C16.3732 18.4455 15.7715 18.4464 15.1697 18.4407C14.968 18.1332 14.8244 17.7919 14.7358 17.4354C14.3946 16.1226 14.2805 14.764 14.1971 13.4145C12.7304 13.4175 11.2638 13.4165 9.79716 13.4145C9.72286 14.7375 9.60772 16.0666 9.28386 17.355C9.26775 17.4078 9.25214 17.4614 9.23643 17.5154C9.14194 17.8398 9.04402 18.1761 8.81436 18.4285C8.12174 18.4526 7.4284 18.4489 6.73497 18.4452C6.25481 18.4427 5.7745 18.4402 5.29448 18.4468C4.91582 17.8819 4.78579 17.2062 4.65889 16.5467C4.64141 16.4558 4.62399 16.3653 4.60598 16.2754C4.23526 13.9268 4.20164 11.5334 4.36868 9.16541C4.46747 8.01653 4.5846 6.85749 4.92987 5.75244C5.00828 5.48662 5.13152 5.23709 5.2904 5.01099Z" fill="current"/><path d="M1.49807 7.42809C1.5808 7.19499 1.67302 6.93517 1.91406 6.8451C2.32129 6.82732 2.72963 6.83051 3.13797 6.83369C3.40977 6.83581 3.68159 6.83793 3.95306 6.83386C3.60576 8.84433 3.54261 10.8925 3.59761 12.9285C3.64242 14.1608 3.74122 15.3942 3.95713 16.6092C3.69541 16.6032 3.43285 16.6073 3.17028 16.6113C2.72476 16.6182 2.27919 16.6251 1.83767 16.5828C1.56827 16.3417 1.47391 15.9827 1.38416 15.6413C1.37076 15.5903 1.35747 15.5397 1.34371 15.49C1.04733 14.1221 0.989278 12.7146 1.0015 11.3182C1.03715 10.0563 1.10131 8.77511 1.45166 7.55497C1.46741 7.51448 1.48258 7.47175 1.49807 7.42809Z" fill="current"/><path d="M22.1615 6.83597C21.4557 6.83294 20.7489 6.83294 20.0431 6.83499C20.2681 8.20274 20.3812 9.5869 20.4066 10.972C20.4382 12.8572 20.3619 14.7516 20.038 16.6114C20.3172 16.6096 20.5965 16.6107 20.8758 16.6117C21.2478 16.6131 21.6198 16.6145 21.9914 16.6093C22.2372 16.6223 22.3527 16.3678 22.4387 16.1785L22.4447 16.1652C22.736 15.4218 22.8214 14.619 22.9052 13.8311C22.9079 13.8062 22.9105 13.7814 22.9132 13.7565C23.0547 11.9905 23.0374 10.2021 22.7542 8.45025C22.7445 8.40097 22.7349 8.35132 22.7253 8.30145C22.6255 7.78338 22.5211 7.24106 22.1615 6.83597Z" fill="current"/></svg>