<svg width="24" height="24" viewBox="0 0 24 24" fill="current" xmlns="http://www.w3.org/2000/svg"><path d="M11.9672 1C11.1888 2.5831 10.4675 4.20697 9.98213 5.90477C10.1897 8.53723 10.0778 11.2769 9.06544 13.7482C9.99712 13.7505 10.9288 13.7502 11.8606 13.7498C12.8647 13.7495 13.8691 13.7491 14.8736 13.752C13.974 11.5755 13.7834 9.16957 13.8953 6.8376C13.896 6.7081 13.9099 6.57787 13.9239 6.44766C13.9489 6.21468 13.9739 5.98175 13.9228 5.7531C13.4071 4.11691 12.7397 2.53002 11.9672 1Z" fill="current"/><path d="M19.8304 12.5675C19.4768 11.1266 18.5127 9.92646 17.4396 8.9425C17.3534 9.18929 17.2463 9.43083 17.1393 9.67222C16.9734 10.0465 16.8077 10.4204 16.7201 10.8128C17.1154 11.3891 17.5031 12.0413 17.4472 12.7685C17.3922 13.5582 16.7893 14.1762 16.1352 14.5507C16.0881 14.5753 16.0409 14.6011 15.9934 14.627C15.7426 14.7639 15.4838 14.9052 15.193 14.9004C14.8721 14.9009 14.5513 14.9004 14.2304 14.9C13.9171 14.8995 13.6037 14.899 13.2904 14.8995C13.5554 15.3798 13.8245 15.8577 14.0936 16.3357C14.3423 16.7773 14.5911 17.2194 14.8365 17.6628C15.1221 17.6568 15.4078 17.6591 15.6934 17.6614C16.0934 17.6647 16.4934 17.6679 16.8926 17.6485C17.7989 17.1642 18.6275 16.4911 19.2313 15.6521C19.8693 14.7734 20.0949 13.6216 19.8304 12.5675Z" fill="current"/><path d="M4.23358 12.1268C4.67154 10.8812 5.52092 9.82418 6.49352 8.95023C6.69672 9.41818 6.8874 9.89067 7.07831 10.3637C7.13413 10.5021 7.19001 10.6405 7.24618 10.7788C6.80064 11.4054 6.3665 12.1533 6.51347 12.9535C6.65375 13.7649 7.35141 14.3346 8.05005 14.6835L8.06989 14.6934C8.2801 14.7986 8.50038 14.9088 8.74206 14.8996C9.06011 14.9006 9.37813 14.8999 9.69616 14.8991C10.0142 14.8984 10.3323 14.8977 10.6504 14.8987C10.4172 15.3091 10.1866 15.7209 9.95589 16.1326C9.66976 16.6433 9.38365 17.1539 9.09288 17.662C8.53452 17.6592 7.97616 17.6572 7.41877 17.663C7.38475 17.6621 7.35014 17.6623 7.31532 17.6626C7.15892 17.6636 6.99825 17.6647 6.868 17.5662C5.91717 16.9766 5.00806 16.2466 4.4554 15.2541C3.91791 14.3119 3.8724 13.1392 4.23358 12.1268Z" fill="current"/><path d="M11.9652 15.3106C11.2532 16.4539 10.5394 17.5971 9.81807 18.7347C9.8974 19.2094 9.98055 19.683 10.0637 20.1567C10.1415 20.5997 10.2192 21.0427 10.2939 21.4867C10.3341 21.7845 10.4691 22.0484 10.604 22.3123C10.6757 22.4525 10.7473 22.5926 10.8048 22.7379C10.8254 22.7473 10.8461 22.7568 10.8668 22.7663C11.0946 22.8711 11.3285 22.9787 11.5831 22.9882C11.5992 22.9888 11.6153 22.9895 11.6315 22.9901C12.1364 23.0099 12.6899 23.0316 13.1198 22.7265C13.3691 22.2782 13.6203 21.807 13.6772 21.2885C13.7644 20.7694 13.8555 20.251 13.9466 19.7326C14.0041 19.4057 14.0616 19.0788 14.118 18.7518C13.4986 17.7469 12.8697 16.7478 12.2409 15.7487C12.149 15.6027 12.0571 15.4567 11.9652 15.3106Z" fill="current"/></svg>