<svg width="24" height="24" viewBox="0 0 24 24" fill="current" xmlns="http://www.w3.org/2000/svg"><path d="M11.8081 7.48398C11.4846 7.48411 11.161 7.48423 10.8374 7.48224C10.8369 8.2704 10.8369 9.05856 10.8369 9.8467C10.8369 10.6345 10.8369 11.4222 10.8364 12.21C11.3414 12.7207 11.8381 13.2396 12.3348 13.7585C12.9364 14.3869 13.5379 15.0153 14.154 15.6291C14.4129 15.3791 14.6586 15.1162 14.9042 14.8534C15.1246 14.6176 15.3449 14.3819 15.5746 14.1557C15.2822 13.8566 14.9917 13.5556 14.7013 13.2547C14.1013 12.633 13.5015 12.0115 12.8844 11.4072C12.8823 10.0997 12.8834 8.79307 12.8844 7.48645C12.5256 7.48369 12.1669 7.48384 11.8081 7.48398Z" fill="current"/><path fill-rule="evenodd" clip-rule="evenodd" d="M12.805 1.0033C12.0833 0.999578 11.3617 0.995859 10.6401 1.01107C10.5261 1.45981 10.3976 1.90467 10.2691 2.34953C10.1751 2.67534 10.081 3.00115 9.99259 3.32847C9.05148 3.57035 8.12514 3.90835 7.30545 4.43858C6.8566 4.21086 6.41964 3.96058 5.98256 3.71024C5.71819 3.55881 5.45377 3.40737 5.18666 3.26087C5.07058 3.37656 4.95444 3.49218 4.83829 3.6078C4.31714 4.1266 3.79599 4.6454 3.2812 5.17056C3.37716 5.34165 3.47318 5.51268 3.56921 5.6837C3.85792 6.19791 4.14663 6.71211 4.43356 7.22816C3.9086 8.09004 3.47872 9.01638 3.25585 10.005C2.82661 10.1303 2.39599 10.2529 1.96537 10.3754C1.6447 10.4667 1.32403 10.5579 1.00394 10.6503C0.998722 11.2834 0.999817 11.9165 1.00091 12.5496C1.00137 12.8133 1.00182 13.0769 1.00182 13.3406C1.15027 13.3832 1.29868 13.4258 1.44708 13.4685C2.02833 13.6356 2.60959 13.8027 3.19353 13.9616C3.40583 14.9936 3.83255 15.9686 4.37335 16.8696C4.22011 17.1349 4.07049 17.4022 3.9209 17.6695C3.70961 18.047 3.49836 18.4244 3.27697 18.7961C3.62157 19.1517 3.97253 19.5013 4.3234 19.8508C4.61136 20.1376 4.89924 20.4243 5.18349 20.7143C5.38661 20.6008 5.58952 20.4872 5.79238 20.3735C6.22985 20.1285 6.66712 19.8836 7.10581 19.6411C8.01316 20.222 9.02079 20.6424 10.0707 20.8812C10.2693 21.5878 10.469 22.2955 10.677 23C11.2173 22.9968 11.7576 22.997 12.2981 22.9973C12.6526 22.9975 13.0072 22.9976 13.362 22.9968C13.5648 22.2955 13.7613 21.592 13.9577 20.8874C15.0097 20.6424 16.0163 20.222 16.9247 19.6369C17.3509 19.8912 17.785 20.1319 18.2189 20.3725C18.4247 20.4867 18.6305 20.6008 18.8354 20.7163C19.4703 20.0815 20.104 19.4478 20.7388 18.8141C20.4277 18.2652 20.1225 17.7142 19.8171 17.1628C19.7575 17.0552 19.6979 16.9475 19.6382 16.8399C20.198 15.9548 20.5857 14.9662 20.8011 13.9426C21.3351 13.7873 21.8708 13.6382 22.4065 13.4891C22.603 13.4344 22.7995 13.3797 22.996 13.3247C22.996 13.0688 22.9963 12.8129 22.9967 12.557C22.9975 11.914 22.9984 11.2711 22.9938 10.6281C22.2386 10.4265 21.4866 10.2183 20.7346 10.006C20.4979 9.03003 20.1124 8.09107 19.5579 7.25352C19.7759 6.85582 19.998 6.46059 20.2201 6.06541C20.3844 5.77307 20.5487 5.48074 20.7113 5.18746C20.2502 4.72255 19.7864 4.25933 19.3226 3.79615C19.151 3.62478 18.9794 3.45343 18.8079 3.28199C18.6763 3.35512 18.5447 3.42814 18.4131 3.50115C17.8432 3.81727 17.2736 4.13325 16.7082 4.45759C15.8589 3.95482 14.9442 3.56401 13.9831 3.33587C13.7675 2.55952 13.5553 1.78318 13.3462 1.00579C13.1658 1.00516 12.9854 1.00423 12.805 1.0033ZM6.61046 9.78424C7.35297 8.03615 8.99441 6.68519 10.8693 6.3472C12.3987 6.05252 14.0496 6.36516 15.3309 7.26193C16.4726 8.06253 17.3546 9.26035 17.6905 10.6229C18.0422 12.0076 17.9039 13.5349 17.2225 14.8003C16.4473 16.3024 14.9917 17.4188 13.3546 17.8233C11.9276 18.1666 10.3739 17.9479 9.09684 17.2255C7.73326 16.429 6.6739 15.0866 6.30737 13.5413C6.00525 12.3013 6.09715 10.9567 6.61046 9.78424Z" fill="current"/></svg>