<svg width="24" height="24" viewBox="0 0 24 24" fill="current" xmlns="http://www.w3.org/2000/svg"><path d="M10.8069 1.552C11.5003 1.10123 12.3975 0.812214 13.1998 1.14221C13.3508 1.77523 13.8749 2.2109 14.0841 2.8148C14.3073 3.37772 14.5371 3.95682 14.9426 4.41621C15.362 4.87345 15.9509 5.10639 16.5083 5.34364C17.1726 5.66499 17.8704 5.90651 18.5368 6.22249C19.0307 6.46728 19.6422 6.46088 20.0541 6.86521C20.658 7.38935 20.7271 8.23917 21.1627 8.87433C22.213 10.4563 22.584 12.3931 22.5571 14.2673C22.5527 15.5054 22.4136 16.7368 22.2562 17.963C22.1926 18.3512 22.1063 18.8494 21.6782 18.9961C20.5275 19.352 19.3047 19.2441 18.1184 19.2258C17.9761 18.6305 17.9006 18.0148 17.6882 17.4379C17.5857 17.1208 17.2147 17.1456 16.9537 17.206C16.7974 17.0518 16.6335 16.8824 16.5881 16.6603C16.6259 16.3972 16.8524 16.2365 17.013 16.0489C17.4541 15.5873 17.6299 14.9198 17.5523 14.2943C17.4433 13.3949 17.0066 12.5797 16.8577 11.6889C16.8016 11.3168 16.5407 11.0279 16.3347 10.7291C15.8635 11.0785 15.554 11.6307 15.5464 12.2217C15.4612 13.9147 15.7685 15.5938 15.8775 17.2793C15.9509 18.5335 16.1816 19.7715 16.2593 21.0246C16.3843 21.5239 16.8426 21.8248 17.2999 21.9887C17.5695 22.0771 17.9157 22.3036 17.783 22.6357C17.6137 22.9808 17.1877 22.984 16.8577 22.9657C16.0457 22.9117 15.2035 23.1329 14.4152 22.8621C14.0011 22.709 13.9936 22.2 13.9655 21.829C13.944 20.701 13.7908 19.5828 13.6139 18.4709C13.5288 17.9285 13.1837 17.3753 12.6401 17.2028C12.2606 17.0765 11.9025 17.3461 11.7073 17.6492C11.3375 18.2466 11.2059 18.9659 11.2177 19.6614C11.2286 20.5339 11.4776 21.3836 11.4895 22.2561C11.4862 22.4718 11.4442 22.7575 11.2037 22.8331C10.8307 22.9484 10.4327 22.9085 10.0477 22.9333C9.52576 22.9441 8.98543 23.0466 8.47862 22.8751C8.15615 22.668 8.21447 22.2324 8.30504 21.9153C8.62315 21.7341 8.97468 21.5109 9.04907 21.1227C9.20329 20.2794 9.20435 19.3919 8.89166 18.5809C8.36112 17.1736 8.26726 15.6531 8.26619 14.1616C8.24566 13.1932 8.34601 12.2217 8.26183 11.2544C8.22842 11.017 8.12603 10.7205 7.88657 10.6278C7.54153 10.6418 7.22119 10.838 6.96566 11.0592C6.39404 12.2637 6.14606 13.7519 6.77473 14.9866C6.94405 15.3835 7.29452 15.6886 7.39264 16.1147C7.37327 16.6603 6.70789 16.7368 6.45236 17.1326C5.96492 17.8098 6.05549 18.6941 5.89043 19.4738C4.75709 19.5979 3.6334 19.807 2.49569 19.889C1.91983 19.9322 1.71494 19.2765 1.68582 18.8149C1.4669 16.5115 1.28896 14.2048 1.04957 11.9036C1.00643 11.4678 0.944959 11.0128 1.09701 10.59C1.20162 10.2299 1.47122 9.95701 1.71601 9.68743C2.57333 8.78802 3.44576 7.90159 4.26426 6.96663C4.7366 6.43492 5.14746 5.81921 5.77833 5.45794C6.48471 5.03629 7.31399 4.91443 8.11092 4.76992C8.52396 4.68905 8.98117 4.74189 9.35101 4.5068C9.88591 4.17681 10.2763 3.64085 10.4844 3.05204C10.671 2.57108 10.6969 2.05129 10.8069 1.552Z" fill="current"/></svg>