<svg width="24" height="24" viewBox="0 0 24 24" fill="current" xmlns="http://www.w3.org/2000/svg"><path d="M4.26133 4.05535C5.46584 3.94918 6.54972 4.65243 7.54269 5.25133C7.95321 5.52265 8.48885 5.5898 8.94346 5.39198C10.8555 4.49908 13.1439 4.48457 15.0605 5.3702C15.4161 5.52628 15.8113 5.49452 16.1894 5.48182C17.2498 4.68056 18.4904 4.03539 19.8417 4C20.1612 5.46367 20.3368 6.98817 20.0343 8.4718C19.8111 9.47807 19.928 10.5697 20.4701 11.4563C20.6915 11.8102 21.1677 11.7258 21.5215 11.7729C22.0526 11.3011 22.2687 10.6069 22.1669 9.90731C21.733 9.94546 21.3009 10.009 20.867 10.0525C20.7346 9.60423 20.5564 9.04795 20.8913 8.64416C21.2226 8.21405 21.9329 7.90467 22.3677 8.36375C23.132 9.09064 23.0141 10.2303 22.9583 11.1886C22.7656 12.2748 22.1715 13.2802 21.354 14.0116C21.011 14.311 20.7401 14.7266 20.2764 14.84C20.2711 14.9317 20.2665 15.0225 20.2621 15.1141C20.3845 15.1078 20.5079 15.1022 20.6303 15.0978C21.012 14.8791 21.3856 14.6468 21.7456 14.3945C21.9356 14.3836 22.1255 14.3746 22.3163 14.3663C21.716 15.8364 20.47 16.9435 19.1908 17.82C16.9393 19.1784 14.2935 19.8454 11.6756 19.8227C9.26028 19.683 6.81979 19.064 4.75376 17.7637C3.47993 16.9253 2.31142 15.8119 1.69206 14.3881C1.87032 14.3845 2.04946 14.3836 2.2286 14.3845C2.6004 14.6286 2.9749 14.8691 3.3593 15.0914C3.50604 15.0987 3.65277 15.1059 3.79951 15.1132C3.79501 15.0733 3.78691 14.9943 3.7833 14.9544C2.37445 13.9752 1.08891 12.5061 1.0124 10.7032C0.965578 9.9137 1.02949 9.03894 1.59034 8.4291C1.8343 8.10695 2.27542 8.20591 2.62381 8.17686C3.14505 8.56708 3.63837 9.31025 3.15765 9.92726C2.77685 10.1487 2.29343 9.92813 1.88201 9.88824C1.78119 10.479 1.81 11.1958 2.32493 11.5915C2.69312 11.9027 3.18646 11.7113 3.57805 11.5579C3.80131 10.9581 4.12449 10.3665 4.08489 9.70406C4.1425 8.54346 3.65907 7.421 3.82832 6.25948C3.96966 5.529 3.89404 4.71958 4.26133 4.05535ZM8.29435 9.99165C6.41829 10.8809 6.24274 13.861 7.85058 15.1005C8.60766 15.6259 9.71761 15.3001 10.1164 14.4761C10.9536 13.3483 10.689 11.7884 9.99759 10.6632C9.59608 10.1868 8.93086 9.75122 8.29435 9.99165ZM14.957 9.99445C14.01 10.3501 13.5967 11.3601 13.4194 12.2884C13.1817 13.1749 13.5841 14.0815 14.1 14.7838C14.6221 15.4906 15.7366 15.5796 16.3658 14.9707C17.5235 13.822 17.5938 11.7739 16.4883 10.5633C16.1147 10.1469 15.5304 9.7458 14.957 9.99445ZM11.736 16.2819C11.4596 16.5578 11.1796 16.8309 10.8961 17.1004C10.9104 17.1948 10.9248 17.2883 10.9402 17.3826C11.6531 17.0759 12.4039 17.2719 13.1412 17.3101C12.8919 16.9253 12.5849 16.585 12.2581 16.2674C12.0843 16.272 11.9106 16.2765 11.736 16.2819Z" fill="current"/></svg>