<svg width="24" height="24" viewBox="0 0 24 24" fill="current" xmlns="http://www.w3.org/2000/svg"><path d="M12.0653 2.16876C12.627 1.86909 13.3707 1.97257 13.8052 2.44688C14.1642 2.7444 14.2332 3.2338 14.5027 3.59061C14.839 3.7135 15.2066 3.60678 15.5558 3.62188C16.2425 3.58845 16.9971 3.90646 17.2925 4.55863C17.5361 5.12565 17.3744 5.76381 17.1178 6.29524C17.4596 6.50865 17.7582 6.80625 17.9004 7.19104C18.0578 7.63842 18.1397 8.10843 18.2756 8.56326C18.8264 8.65279 19.4645 8.65926 19.871 9.09802C20.3367 9.67687 20.2893 10.4886 20.6794 11.1084C20.9543 11.5741 21.4157 11.8867 21.7218 12.3286C22.8667 13.812 23.299 15.8342 22.7868 17.6441C22.0744 20.3251 19.4042 22.3214 16.6338 22.2611C15.0729 22.3225 13.5185 21.7415 12.3197 20.7541C10.7362 19.4422 9.87818 17.296 10.1789 15.2543C10.3244 14.2949 10.6662 13.3441 11.2601 12.569C11.8811 11.8468 12.6054 11.1419 12.875 10.2008C12.9806 9.88493 12.9321 9.52591 13.0829 9.22733C13.5152 8.75085 14.1987 8.69805 14.7905 8.57188C15.1225 8.48891 15.0481 8.07826 15.0944 7.82278C15.1031 7.44759 15.2626 7.10483 15.4869 6.81163C15.1786 6.71348 14.811 6.6596 14.6115 6.37502C14.2817 5.91796 14.1901 5.34555 14.1491 4.79579C13.5562 5.17307 12.8048 5.52988 12.1074 5.21727C11.6558 5.0545 11.4218 4.59097 11.0003 4.38292C10.7825 4.81519 10.7535 5.4264 10.25 5.64092C9.69597 5.83495 9.12359 5.58162 8.57168 5.4997C8.85195 5.77566 9.07833 6.09582 9.282 6.43107C9.60653 6.61435 10.0301 6.47311 10.3719 6.63697C10.8602 6.82133 11.0995 7.34738 11.1857 7.82924C11.2978 8.62262 11.6773 9.33949 11.9306 10.0918C11.4423 10.5112 10.9594 10.9359 10.4764 11.3617C9.44481 10.8055 8.3356 10.2859 7.14118 10.2643C5.60937 10.2385 4.21555 11.3866 3.72938 12.803C3.15483 14.4124 3.88246 16.4023 5.41102 17.1968C6.65069 17.8199 8.09198 17.6732 9.41356 17.4469C9.62378 18.1303 9.81236 18.8192 10.0204 19.5025C9.0945 20.0254 8.0143 20.2701 6.95359 20.1785C4.94318 20.0448 3.02439 18.9172 1.94749 17.214C1.2177 16.0595 0.873832 14.656 1.042 13.2978C1.17998 12.0742 1.70063 10.8982 2.50481 9.96683C2.91012 9.52376 3.36826 9.08284 3.52026 8.47921C3.67333 7.88312 3.73585 7.16949 4.28131 6.78245C4.74376 6.41274 5.36143 6.56909 5.90258 6.48928C5.97157 6.13247 6.05781 5.7541 6.32514 5.48892C6.64962 5.16122 7.12609 5.08899 7.55192 4.97473C7.54115 4.46485 7.5961 3.9291 7.89792 3.50114C8.24499 2.95891 8.96617 2.71206 9.57528 2.91257C9.96869 3.03654 10.3697 3.2877 10.7966 3.15942C11.3355 2.99018 11.5425 2.36819 12.0653 2.16876ZM15.6022 12.4031C14.1847 12.7318 12.9719 13.9132 12.7294 15.3675C12.3866 17.1558 13.5508 19.0542 15.268 19.6255C16.9993 20.2722 19.1067 19.4584 19.983 17.8393C20.8886 16.3053 20.4078 14.1698 18.9914 13.1123C18.0546 12.361 16.761 12.1238 15.6022 12.4031Z" fill="current"/></svg>