<svg width="24" height="24" viewBox="0 0 24 24" fill="current" xmlns="http://www.w3.org/2000/svg"><path d="M17.6994 1.09773C18.3671 0.878987 19.2225 1.01527 19.6406 1.63026C19.9998 2.14221 19.9842 2.77296 19.9693 3.37593C19.9667 3.47835 19.9642 3.58011 19.9635 3.68022C20.0833 3.68206 20.2055 3.68032 20.3288 3.67858C20.8969 3.67052 21.4885 3.66214 21.9666 4.00088C22.7797 4.55403 22.6995 5.83782 22.0547 6.48948C21.4569 7.03575 20.5304 6.90857 19.8604 6.57195C19.3508 6.29816 18.721 6.50781 18.3499 6.91552L18.3181 6.94876C18.009 7.27195 17.647 7.65045 17.1555 7.57628C16.5129 7.47669 16.2026 6.77465 16.1729 6.19173C16.2088 5.8558 16.4355 5.62702 16.6634 5.39709C16.8705 5.18805 17.0786 4.97805 17.1451 4.68572C17.2539 4.31346 17.1534 3.9578 17.0524 3.6005C16.9717 3.31478 16.8906 3.028 16.9161 2.73083C16.9276 2.11928 17.0753 1.36915 17.6994 1.09773Z" fill="current"/><path d="M12.1588 3.25787C13.1219 2.95667 14.1264 3.36666 15.0116 3.73886C15.0461 3.75573 15.0832 3.77277 15.1215 3.79041C15.4056 3.92123 15.7602 4.08445 15.6976 4.44776C15.6311 4.70902 15.5048 4.94989 15.3786 5.19045C15.1985 5.53405 15.0186 5.87701 15.0139 6.27782C14.8902 7.42302 15.7903 8.56832 16.9528 8.65069C17.5512 8.73732 18.0933 8.48598 18.6227 8.24047C18.7376 8.18719 18.8519 8.1342 18.9661 8.08499C19.2318 7.94985 19.5845 8.01057 19.7276 8.29111C20.1193 9.01954 20.464 9.80284 20.5545 10.6332C20.614 11.1577 20.4537 11.7886 19.9544 12.0521C19.3188 12.4059 18.5504 12.3178 17.8632 12.2055C15.7388 11.7829 13.8423 10.4282 12.6547 8.62894C11.8771 7.47226 11.3915 6.09344 11.3881 4.69169C11.3789 4.12823 11.5886 3.47889 12.1588 3.25787Z" fill="current"/><path d="M9.96331 5.18857C9.42047 5.74973 8.88336 6.35102 8.61762 7.09878C8.11143 8.4055 7.08414 9.50952 5.77519 10.0317C5.52302 10.1537 5.24967 10.227 4.97681 10.3002C4.56316 10.4112 4.15061 10.5219 3.81456 10.8013C3.38968 11.1426 3.266 11.7221 3.29692 12.2421C3.39311 13.9896 4.12148 15.68 5.2816 16.9856C5.14615 17.1131 5.01206 17.2413 4.87777 17.3697C4.83719 17.4084 4.7966 17.4472 4.75594 17.4861C4.29028 17.5104 3.84441 17.4014 3.39841 17.2924C3.1742 17.2375 2.94996 17.1827 2.72316 17.1448C2.05893 17.0417 1.35232 17.4277 1.13243 18.0724C0.917129 18.7103 0.914843 19.5531 1.50348 19.9964C1.91827 20.3242 2.43275 20.3308 2.94175 20.3374C3.15651 20.3401 3.3703 20.3429 3.57521 20.3698C3.51222 21.263 3.63705 22.3579 4.51659 22.8274C5.43047 23.3507 6.59749 22.6075 6.73947 21.6237C6.86694 21.1435 6.69299 20.6949 6.52129 20.2521C6.46161 20.0982 6.4022 19.945 6.35582 19.7914C6.23438 19.402 6.42228 18.984 6.76585 18.7813C7.14683 18.9312 7.52459 19.0942 7.90278 19.2573C8.96946 19.7175 10.0395 20.1792 11.1944 20.3525C11.7326 20.4395 12.3602 20.4064 12.7633 19.9906C13.1636 19.5683 13.3269 19.0251 13.4904 18.481C13.5903 18.1486 13.6903 17.8158 13.8445 17.5101C14.2842 16.5287 15.1248 15.7625 16.0971 15.3204C16.8448 15.0003 17.5204 14.5473 18.1939 14.0957C18.2889 14.032 18.384 13.9683 18.4792 13.9049C18.4851 13.866 18.4908 13.8272 18.4966 13.7883C18.5076 13.7138 18.5187 13.6393 18.5307 13.5648C16.727 13.1903 14.9679 12.4642 13.5502 11.2698C11.6903 9.73628 10.545 7.49622 9.96331 5.18857Z" fill="current"/></svg>