<svg width="24" height="24" viewBox="0 0 24 24" fill="current" xmlns="http://www.w3.org/2000/svg"><path d="M14.1893 1.38494C12.9135 0.958983 11.5354 0.934177 10.209 1.08192C9.56414 1.17789 8.88799 1.29004 8.33803 1.66315C8.16222 1.77315 8.05763 1.9748 8.07922 2.18185C8.08418 2.40198 8.08197 2.62242 8.07976 2.84288C8.07622 3.1959 8.07267 3.54895 8.09857 3.90078C8.3131 4.28884 8.77032 4.42957 9.17572 4.55435C9.20853 4.56445 9.24101 4.57445 9.27299 4.58446C10.7104 4.92846 12.232 4.93385 13.6748 4.61465C13.7088 4.605 13.7433 4.59536 13.7782 4.58563C14.2224 4.46163 14.7262 4.32104 14.9721 3.90509C15.007 3.55085 15.0023 3.19454 14.9976 2.83821C14.9948 2.62071 14.9919 2.40321 14.998 2.18617C15.039 1.72678 14.5429 1.51973 14.1893 1.38494Z" fill="current"/><path fill-rule="evenodd" clip-rule="evenodd" d="M11.8805 5.67662C10.8852 5.70143 9.86506 5.6281 8.9301 5.25821C8.9301 5.52628 8.93028 5.79434 8.93046 6.06239C8.9309 6.72604 8.93134 7.38967 8.92908 8.0533C7.64905 7.6285 6.33883 7.27697 5.00054 7.09788C4.12276 7.00414 3.20507 6.94591 2.35531 7.23378C1.76867 7.42577 1.23272 7.87431 1.06882 8.4869C0.886569 9.13173 1.08715 9.81646 1.42575 10.374C2.11699 11.5084 3.14468 12.3798 4.18099 13.1874L4.17665 13.1909C3.01869 14.1206 1.79595 15.1022 1.18421 16.4969C0.835892 17.2238 0.989019 18.1792 1.62417 18.699C2.28737 19.235 3.18242 19.331 4.00629 19.318C5.68203 19.2716 7.31369 18.8241 8.90319 18.3216C8.90517 18.6431 8.90441 18.9648 8.90365 19.2866C8.90276 19.6622 8.90187 20.0379 8.90534 20.4136C8.91823 21.3108 9.42183 22.1875 10.2015 22.635C10.8475 23.0319 11.6767 23.1106 12.3874 22.8443C13.1325 22.5844 13.7299 21.9621 13.979 21.2149C14.1414 20.7854 14.1313 20.3302 14.1213 19.8766C14.1172 19.6946 14.1132 19.5128 14.1203 19.3331C12.1523 18.6677 10.1897 17.9366 8.38772 16.8895C8.35446 16.872 8.32084 16.8508 8.28667 16.8292C8.1668 16.7536 8.0402 16.6736 7.89916 16.7374C6.66446 17.1008 5.40705 17.434 4.11629 17.4988C3.67739 17.5257 3.23633 17.4782 2.81146 17.3639C2.88367 16.9297 3.17576 16.5908 3.45519 16.2667C3.48455 16.2326 3.51378 16.1987 3.5426 16.1648C4.19608 15.4552 4.95202 14.8449 5.73596 14.2842C7.16049 15.1933 8.64223 16.0128 10.1735 16.7267C12.1889 17.6595 14.2734 18.4693 16.4409 18.9729C17.6617 19.2381 18.9245 19.4689 20.1743 19.2759C20.8914 19.153 21.6602 18.7863 21.9374 18.066C22.2555 17.3123 21.9697 16.4667 21.5395 15.8198C20.8483 14.7856 19.8949 13.9606 18.918 13.2047C19.7171 12.6137 20.459 11.9441 21.12 11.2022C21.601 10.6307 22.0269 9.96311 22.1175 9.20613C22.1973 8.57532 21.89 7.92937 21.3734 7.56914C20.7501 7.12592 19.9554 7.0418 19.2135 7.03862C17.86 7.06237 16.5294 7.35884 15.2332 7.72766C11.8816 8.70897 8.69289 10.223 5.7511 12.0994C4.993 11.5333 4.24677 10.9423 3.59974 10.2489C3.26114 9.88012 2.91498 9.48653 2.7845 8.99152C3.14683 8.88366 3.52318 8.81571 3.90277 8.83188C5.38013 8.86749 6.81439 9.27408 8.21518 9.70758C8.36311 9.65289 8.50198 9.57742 8.64108 9.50183C8.78182 9.42535 8.92278 9.34875 9.07358 9.29342C9.69796 9.04605 10.31 8.76633 10.922 8.48662C11.9747 8.00548 13.0273 7.52434 14.143 7.20789C14.1485 6.8378 14.1481 6.46767 14.1477 6.09753C14.1474 5.81633 14.1471 5.53511 14.1494 5.25391C13.4312 5.5483 12.6505 5.64859 11.8805 5.67662ZM12.6494 10.5498C14.2799 9.89414 15.9557 9.32586 17.6897 9.01414C18.5535 8.86432 19.4571 8.75748 20.3166 8.99695C20.1682 9.5913 19.7222 10.0454 19.306 10.469L19.3019 10.4732C18.7099 11.0846 18.0316 11.6034 17.3478 12.107C17.2089 12.0207 17.0704 11.9338 16.9318 11.8468C16.273 11.4334 15.6133 11.0195 14.914 10.6792C13.8065 11.1795 12.6915 11.6669 11.542 12.0671C10.9253 12.2662 10.3682 12.5892 9.811 12.9123C9.52338 13.079 9.23573 13.2458 8.93983 13.3956C9.48207 13.6101 10.0249 13.8229 10.5677 14.0357C11.5016 14.4019 12.4356 14.7681 13.3665 15.1425C13.6436 15.2377 13.9249 15.3189 14.2063 15.4001C14.4921 15.4825 14.778 15.565 15.0596 15.6623C15.8382 15.2277 16.6113 14.7834 17.3608 14.2982L17.4138 14.3389C18.3242 15.0385 19.2506 15.7504 19.9414 16.6782C20.1031 16.8841 20.2174 17.1224 20.2918 17.3737C19.6286 17.6044 18.9136 17.5409 18.2289 17.4599C16.8012 17.2648 15.4133 16.8529 14.0567 16.3762C11.997 15.6342 10.0063 14.7026 8.10844 13.6112C8.06054 13.5836 8.01175 13.5568 7.96287 13.5301C7.77179 13.4254 7.57936 13.32 7.43332 13.1551C9.10592 12.1619 10.8475 11.2831 12.6494 10.5498Z" fill="current"/></svg>