<svg width="24" height="24" viewBox="0 0 24 24" fill="current" xmlns="http://www.w3.org/2000/svg"><path d="M7.48852 7.34694C7.33608 5.27084 8.32324 0.159404 15.7168 1.11862C22.5738 2.0082 22.574 7.64357 21.6597 10.0162C19.8312 6.90208 11.1456 6.01235 7.48852 7.34694Z" fill="current"/><path d="M10.6885 17.1342C7.03132 10.906 5.81234 4.38115 6.11713 1.56363C1.54574 2.45338 0.0829051 6.27928 1.54574 10.906C3.37428 16.6893 5.65998 19.8034 10.6885 17.1342Z" fill="current"/><path d="M7.03123 21.1379C12.974 18.4686 15.7168 11.7955 16.1739 8.23654C20.7453 9.57112 20.6539 14.8206 18.4596 18.0237C15.7168 22.0276 12.5169 25.1417 7.03123 21.1379Z" fill="current"/></svg>