<svg width="24" height="24" viewBox="0 0 24 24" fill="current" xmlns="http://www.w3.org/2000/svg"><path d="M9.60234 1.0084C11.6445 0.992515 13.6854 1.00474 15.7264 1.00107C15.7288 1.66713 15.7251 2.33197 15.7288 2.99803C14.0997 4.63447 12.4609 6.26232 10.8318 7.89996C12.5807 9.6574 14.3516 11.3953 16.0833 13.1698C17.7369 11.531 19.3684 9.86885 21.0293 8.23855C21.6855 8.24589 22.3418 8.24099 22.9981 8.24222C22.9944 10.2954 23.0115 12.3497 22.9895 14.4042C21.38 15.9881 19.7936 17.5976 18.1915 19.1901C18.0827 19.322 17.8908 19.2548 17.7466 19.2744C15.4893 19.2634 13.2332 19.2805 10.9772 19.2658C9.71847 20.4989 8.48403 21.7577 7.23258 22.9994C6.71936 22.9982 6.20726 23.0043 5.69393 22.9933C4.13695 21.4277 2.5775 19.8635 1.00829 18.3101C0.993627 17.7956 1.0034 17.281 1.00096 16.7678C2.24265 15.5188 3.49532 14.2819 4.73212 13.028C4.72479 10.6937 4.7309 8.35957 4.72846 6.02528C4.70278 5.86511 4.84944 5.7759 4.94111 5.67324C6.49812 4.12117 8.05513 2.56906 9.60234 1.0084Z" fill="current"/></svg>