<svg width="24" height="24" viewBox="0 0 24 24" fill="current" xmlns="http://www.w3.org/2000/svg"><path d="M13.0813 1.03435C10.3952 0.793688 7.58722 1.82647 5.7882 3.85534C4.44137 5.377 3.78738 7.48789 4.0615 9.50276C4.31079 11.2726 5.19356 12.9367 6.48644 14.167C8.69549 16.2963 11.9525 17.2383 14.9623 16.6826C15.2797 16.5865 15.3584 16.1872 15.4049 15.8991C15.448 15.0822 15.3163 14.2349 14.9516 13.4968C13.2411 14.0731 11.2812 13.8173 9.77149 12.8309C8.83147 12.2309 8.08036 11.3331 7.67569 10.2916C7.24725 9.16715 7.29149 7.86021 7.83543 6.78208C8.42467 5.5745 9.56964 4.68093 10.8474 4.29997C12.4641 3.79167 14.2857 4.03665 15.733 4.90863C17.0301 5.6781 18.0003 7.00547 18.256 8.50122C18.5777 7.44472 18.7061 6.30941 18.5043 5.2162C18.3499 4.38954 17.9043 3.63087 17.2783 3.07185C16.1085 2.01748 14.6202 1.33329 13.0813 1.03435Z" fill="current"/><path d="M18.8614 10.9749C16.7581 8.13997 12.9646 6.74563 9.51448 7.38663C9.21663 7.58202 9.08286 7.99422 9.03428 8.3396C9.04288 9.09612 9.25555 9.84723 9.6213 10.5087C11.3826 9.98534 13.377 10.308 14.8684 11.3851C15.7015 11.9635 16.3447 12.801 16.7278 13.7377C17.2113 14.9647 17.112 16.413 16.4375 17.5504C15.8289 18.5929 14.8047 19.3743 13.6575 19.7347C11.933 20.3067 9.96349 20.0131 8.4547 19.0084C7.29573 18.2508 6.44853 17.0314 6.18306 15.6662C5.82044 16.6656 5.73951 17.7792 6.04708 18.8034C6.26831 19.5697 6.73236 20.2474 7.29467 20.8053C8.78713 22.3259 10.9649 23.1148 13.0845 22.9863C14.9482 22.8115 16.7462 21.9989 18.1135 20.7211C19.3956 19.5297 20.2276 17.8602 20.3755 16.113C20.5503 14.287 19.9438 12.4383 18.8614 10.9749Z" fill="current"/></svg>