<svg width="24" height="24" viewBox="0 0 24 24" fill="current" xmlns="http://www.w3.org/2000/svg"><path d="M12.3667 1C12.7717 1 13.1 1.32832 13.1 1.73333L13.1002 2.90144C17.0809 3.39792 20.2358 6.55308 20.732 10.5339L22.2667 10.5333C22.6717 10.5333 23 10.8617 23 11.2667V12C23 12.405 22.6717 12.7333 22.2667 12.7333L20.7319 12.7335C20.2354 16.714 17.0806 19.8688 13.1002 20.3652L13.1 22.2667C13.1 22.6717 12.7717 23 12.3667 23H11.6333C11.2284 23 10.9 22.6717 10.9 22.2667L10.9005 20.3653C6.91974 19.8691 3.76458 16.7142 3.26811 12.7335L1.73333 12.7333C1.32832 12.7333 1 12.405 1 12V11.2667C1 10.8617 1.32832 10.5333 1.73333 10.5333L3.26802 10.5339C3.7642 6.55289 6.91956 3.39753 10.9005 2.90135L10.9 1.73333C10.9 1.32832 11.2284 1 11.6333 1H12.3667ZM13.1005 5.12468L13.1 9.28144C13.1 9.3787 13.0614 9.47192 12.9926 9.54077L12 10.5333L11.0074 9.54077C10.9386 9.47192 10.9 9.3787 10.9 9.28144L10.9002 5.12456C8.13625 5.58817 5.95484 7.76958 5.49123 10.5335L9.28144 10.5333C9.3787 10.5333 9.47192 10.5719 9.54077 10.6408L10.5333 11.6333L9.54077 12.6259C9.47192 12.6947 9.3787 12.7333 9.28144 12.7333L5.49135 12.7339C5.95522 15.4975 8.13653 17.6786 10.9002 18.1421L10.9 14.7186C10.9 14.6213 10.9386 14.5281 11.0074 14.4592L12 13.4667L12.9926 14.4592C13.0614 14.5281 13.1 14.6213 13.1 14.7186L13.1005 18.142C15.8638 17.6781 18.0448 15.4972 18.5087 12.7339L14.7186 12.7333C14.6213 12.7333 14.5281 12.6947 14.4592 12.6259L13.4667 11.6333L14.4592 10.6408C14.5281 10.5719 14.6213 10.5333 14.7186 10.5333L18.5088 10.5335C18.0452 7.76986 15.8641 5.58856 13.1005 5.12468Z" fill="current"/></svg>