<svg width="24" height="24" viewBox="0 0 24 24" fill="current" xmlns="http://www.w3.org/2000/svg"><path d="M12.0602 1.68919C12.9537 1.09912 14.0578 0.936269 15.1089 1.02087C15.1366 1.02367 15.1653 1.02594 15.1944 1.02824C15.3851 1.0433 15.5959 1.05996 15.7032 1.23976C15.8949 1.50381 16.0367 1.79689 16.1788 2.09038C16.2881 2.31642 16.3976 2.54271 16.5302 2.75618C16.2638 2.82048 15.9989 2.89221 15.7339 2.96395C15.1751 3.11524 14.6161 3.2666 14.043 3.34837C13.7522 3.39807 13.4782 3.24157 13.2859 3.03641C12.9599 2.70239 12.6503 2.35338 12.3405 2.00426C12.2472 1.89911 12.1539 1.79395 12.0602 1.68919Z" fill="current"/><path d="M6.46802 2.15433C6.66157 1.61608 7.26115 1.3496 7.80051 1.3147C9.77166 1.10532 11.7068 2.27065 12.7135 3.92983C12.5496 4.01215 12.3867 4.09685 12.2236 4.18158C11.7081 4.44952 11.192 4.71781 10.644 4.91223C10.3957 5.00789 10.1414 4.91126 9.90136 4.82001C9.85217 4.80131 9.80357 4.78284 9.75574 4.7663C9.57556 4.69045 9.39416 4.61676 9.21269 4.54303C8.57941 4.28576 7.94511 4.02806 7.35744 3.67709C6.81277 3.37783 6.52938 2.75074 6.46802 2.15433Z" fill="current"/><path d="M9.30645 5.52519C7.79419 4.37994 5.88337 3.84803 4 3.85755C4.00984 3.8812 4.01956 3.9051 4.02933 3.92911C4.11824 4.14765 4.21062 4.37473 4.42404 4.50049C5.48787 5.2587 6.2144 6.42189 6.56117 7.67083C6.72517 8.1593 6.80645 8.67014 6.88763 9.18034C7.00223 9.90058 7.11663 10.6196 7.46324 11.2726C7.9698 12.3544 8.967 13.1622 10.0984 13.5176C10.2196 13.5595 10.3467 13.59 10.4738 13.6205C10.7772 13.6934 11.0816 13.7665 11.3103 13.9945C11.3361 14.9416 11.3319 15.8888 11.3277 16.8365C11.3267 17.0559 11.3258 17.2753 11.3252 17.4947C11.2957 17.4413 11.2662 17.3878 11.2367 17.3341C10.5693 16.1218 9.8694 14.8504 8.7089 14.0474C7.94018 13.5059 6.93342 13.5377 6.06735 13.7967C6.05577 14.5201 6.2006 15.2561 6.57391 15.8821C7.05924 16.7387 7.92011 17.3192 8.83269 17.6418C9.00961 17.7056 9.19348 17.7538 9.37742 17.8021C9.75416 17.9009 10.1312 17.9998 10.4495 18.2329C10.8355 18.493 11.0787 18.9393 11.1073 19.4014C11.1448 19.8745 11.0345 20.3306 10.9241 20.7871C10.823 21.2051 10.7219 21.6235 10.734 22.0556C10.7717 22.3089 10.8878 22.5375 11.0032 22.7646C11.0429 22.8429 11.0826 22.9211 11.119 23C11.1992 22.9296 11.2875 22.8639 11.3764 22.7978C11.632 22.6077 11.8923 22.4142 11.9787 22.0948C12.0704 21.8203 12.1173 21.5302 12.1641 21.2402C12.2419 20.7581 12.3197 20.2765 12.6036 19.8678C12.9378 19.4268 13.5458 19.4458 14.0428 19.4616C14.984 19.5166 15.9569 19.2714 16.7087 18.6919C17.6753 17.9823 18.2114 16.7926 18.2632 15.6103C17.2745 15.5226 16.2519 15.5606 15.314 15.9096C14.1581 16.3273 13.2371 17.2304 12.6438 18.2889C12.6459 16.78 12.6448 15.2709 12.6438 13.7619C12.769 13.6982 12.8959 13.6358 13.0231 13.5733C13.7025 13.2392 14.3918 12.9003 14.9004 12.3258C16.0151 11.1742 16.3059 9.52031 16.4739 7.98915C16.566 6.97602 16.9647 5.91437 17.8308 5.31793C18.249 5.04419 18.56 4.65921 18.8705 4.27475C18.987 4.13047 19.1035 3.98626 19.2256 3.84803C18.0973 3.78458 16.9615 3.85015 15.8501 4.06059C14.1613 4.37043 12.5582 5.00809 10.9952 5.7018C11.0689 5.83494 11.1431 5.96797 11.2172 6.10103C11.8414 7.22131 12.4668 8.34385 12.8913 9.55842C12.9096 9.63485 12.9488 9.71756 12.9885 9.80155C13.0929 10.022 13.2014 10.2514 12.9494 10.3991C12.0685 8.56334 10.9582 6.76346 9.30645 5.52519Z" fill="current"/></svg>