<svg width="24" height="24" viewBox="0 0 24 24" fill="current" xmlns="http://www.w3.org/2000/svg"><path fill-rule="evenodd" clip-rule="evenodd" d="M9.72016 4.31573C10.2353 3.62813 11.0033 3.08229 11.8792 3.00929C12.9053 2.91833 13.8891 3.50542 14.4699 4.32313C15.6059 5.91095 16.7188 7.51461 17.8084 9.13415C18.0729 9.53829 18.3627 10.0016 18.2601 10.5073C18.1485 10.9768 17.861 11.3763 17.583 11.7626L17.547 11.8126C18.1427 12.2495 18.624 12.8292 18.9688 13.4808C19.4 14.2801 19.6454 15.1498 19.8908 16.0194C20.0163 16.4641 20.1418 16.9088 20.2921 17.344C20.3852 17.599 20.3959 17.9587 20.1525 18.1321C18.2538 19.3476 16.1465 20.2848 13.9113 20.6541C13.8358 19.9659 13.759 19.2779 13.6823 18.59C13.5591 17.4854 13.4359 16.3809 13.3179 15.2759C13.291 15.275 13.2516 15.2738 13.2113 15.2726C13.1645 15.2712 13.1164 15.2697 13.0851 15.2686C13.0798 16.4125 13.0807 17.5561 13.0817 18.6994C13.0822 19.3884 13.0828 20.0773 13.0819 20.7662C12.7815 20.7455 12.4805 20.732 12.1795 20.7186C11.5543 20.6906 10.9292 20.6626 10.3094 20.5705C8.32378 20.2605 6.35624 19.6692 4.63407 18.6146C4.59391 18.5892 4.55304 18.564 4.51191 18.5387C4.23242 18.3665 3.94124 18.1871 3.78357 17.892C3.71058 17.6825 3.74443 17.453 3.81848 17.2499C3.98114 16.8357 4.10011 16.4066 4.219 15.9777C4.3831 15.3858 4.54705 14.7944 4.82554 14.2435C5.17183 13.569 5.57933 12.9294 5.98659 12.2902C6.12797 12.0684 6.26935 11.8465 6.40809 11.6232C6.34951 11.5179 6.28244 11.4127 6.21463 11.3063C5.97878 10.9363 5.73409 10.5524 5.80722 10.1021C5.87126 9.76997 6.05795 9.48296 6.24063 9.20213C6.26918 9.15823 6.29764 9.11449 6.32551 9.07075C7.43841 7.47234 8.56816 5.88555 9.72016 4.31573ZM9.51601 7.96319C9.46636 8.79883 9.41546 9.65541 9.76243 10.4332C10.028 11.0522 10.5443 11.4849 11.0507 11.9094C11.1597 12.0007 11.2682 12.0916 11.3736 12.184C11.6772 12.4431 12.113 12.7573 12.5128 12.4981C13.1158 12.0601 13.6108 11.4868 14.0943 10.9241C14.8365 9.97036 14.7096 8.69668 14.5971 7.56823L14.5936 7.53257C14.5163 7.56058 14.4393 7.58933 14.3622 7.61808C14.0056 7.7511 13.6486 7.88425 13.2703 7.94519C12.0125 8.1906 10.7146 7.91661 9.54346 7.43947C9.53684 7.6125 9.52645 7.78739 9.51601 7.96319Z" fill="current"/><path d="M16.1002 4.03353C16.5963 3.26448 17.7144 3.01694 18.5004 3.47498C18.837 3.64513 19.0598 3.95055 19.2774 4.24894C19.3114 4.29557 19.3453 4.34216 19.3795 4.3879C20.0173 5.24368 20.6383 6.11321 21.1937 7.02399C21.2166 7.06273 21.2405 7.1014 21.2645 7.14025C21.3814 7.32955 21.5011 7.52322 21.5195 7.7497C21.5387 8.00418 21.5115 8.25822 21.4843 8.51212C21.4696 8.64869 21.455 8.78528 21.4476 8.92181C21.5804 8.9449 21.6263 9.05941 21.6702 9.16889C21.6826 9.19978 21.6949 9.23026 21.7088 9.25817C22.0241 10.068 22.3296 10.8813 22.6351 11.6946C22.7426 11.9807 22.8502 12.2674 22.9581 12.5533C23.0872 12.8421 22.8999 13.1743 22.6408 13.3161C22.2406 13.5491 21.8256 13.7551 21.4107 13.9611C21.1588 14.0861 20.9069 14.2111 20.6584 14.3422C20.1348 13.5763 19.6302 12.7945 19.1647 11.9916C18.9757 11.7086 19.0396 11.364 19.098 11.0491L19.1118 10.974C19.2271 10.4059 19.2156 9.79768 18.9902 9.25817C18.868 8.94055 18.6731 8.6649 18.4781 8.3891C18.386 8.25894 18.294 8.12874 18.2095 7.99409C17.8283 7.43285 17.4704 6.85599 17.1126 6.27914C16.8122 5.79481 16.5118 5.31042 16.1975 4.83536C16.0346 4.60581 15.9426 4.29058 16.1002 4.03353Z" fill="current"/><path d="M6.08127 3.29048C5.52485 3.37617 5.06893 3.76334 4.75475 4.21186C4.46478 4.62016 4.17951 5.03189 3.89423 5.44361C3.48845 6.02926 3.08267 6.6149 2.6634 7.1907C2.35557 7.61914 2.10909 8.26338 2.53751 8.70132C2.03293 9.98235 1.5294 11.2634 1.04808 12.5539C0.96784 12.7276 1.00462 12.9169 1.03952 13.0965C1.04097 13.104 1.04242 13.1114 1.04385 13.1188C1.14073 13.1801 1.2374 13.2423 1.33421 13.3045C1.9393 13.6936 2.54954 14.086 3.24626 14.2856C3.52136 14.0347 3.70888 13.7172 3.89656 13.3994C4.01272 13.2027 4.12894 13.0059 4.26603 12.8247C4.66166 12.2821 5.0467 11.6199 4.89437 10.9227C4.77272 10.1252 5.02238 9.31065 5.47618 8.65579C5.58557 8.50054 5.69518 8.34542 5.8048 8.1903C6.50407 7.20078 7.20362 6.21086 7.84465 5.18296C8.0774 4.81905 8.1948 4.29119 7.88273 3.93576C7.4353 3.44916 6.74349 3.15719 6.08127 3.29048Z" fill="current"/></svg>