<svg width="24" height="24" viewBox="0 0 24 24" fill="current" xmlns="http://www.w3.org/2000/svg"><path d="M19.9931 1.70869C20.1746 1.63078 20.3505 1.52914 20.5269 1.42727C20.9268 1.19624 21.3288 0.964014 21.8016 1.00466L21.9834 1.00592C22.2862 1.00808 22.5889 1.01024 22.8917 1.00825C22.8925 2.52045 22.8923 4.03213 22.892 5.54362L22.8917 7.82261C22.9035 8.62612 22.9211 9.4295 22.9387 10.2328C22.9746 11.8746 23.0106 13.5161 22.997 15.1582C22.7096 15.1577 22.4223 15.1536 22.1352 15.1495C21.6902 15.143 21.2453 15.1366 20.8 15.1439C20.7944 14.9394 20.7977 14.7344 20.8011 14.5293C20.807 14.1613 20.813 13.7932 20.7677 13.4286C20.6848 12.8926 20.3446 12.4837 20.0058 12.0763C19.6313 11.6261 19.2585 11.1779 19.2365 10.5622C19.2282 8.89127 19.2306 7.21901 19.2353 5.54799C19.2359 5.23691 19.4236 5.00847 19.6112 4.78025C19.7984 4.55247 19.9854 4.3249 19.986 4.01562C19.9989 3.55429 19.9963 3.09253 19.9937 2.63086C19.992 2.32344 19.9903 2.01588 19.9931 1.70869Z" fill="current"/><path d="M1.10871 1.00793C1.30705 1.01394 1.50612 1.01047 1.70527 1.00701C2.02099 1.00151 2.33694 0.996004 2.65065 1.02825C2.95992 1.15371 3.25718 1.30766 3.55437 1.46158C3.74418 1.55988 3.93397 1.65817 4.12684 1.74902C4.12912 2.03408 4.12723 2.31931 4.12535 2.60451C4.12228 3.06795 4.11921 3.53134 4.13402 3.99379C4.13643 4.31081 4.32604 4.54487 4.5156 4.77887C4.70198 5.00893 4.88832 5.23894 4.89661 5.54768C4.90672 6.37971 4.90506 7.21171 4.90339 8.04392C4.9021 8.68827 4.90081 9.33274 4.90498 9.97746C4.90438 10.037 4.90462 10.0969 4.90487 10.1569C4.90609 10.4528 4.90732 10.7531 4.80697 11.0353C4.66632 11.4415 4.39325 11.7701 4.12043 12.0983C3.81131 12.4702 3.50251 12.8417 3.38695 13.3255C3.31865 13.7144 3.32594 14.1093 3.33324 14.5043C3.33718 14.7176 3.34113 14.931 3.33316 15.1435C2.91833 15.1365 2.50385 15.1428 2.08934 15.1491C1.7275 15.1545 1.36564 15.16 1.00352 15.1567C0.98854 13.5162 1.02404 11.8757 1.05953 10.2352C1.07783 9.38945 1.09613 8.54375 1.10751 7.69805C1.10811 6.58342 1.10811 5.4685 1.10811 4.35343C1.10811 3.23836 1.10811 2.12314 1.10871 1.00793Z" fill="current"/><path fill-rule="evenodd" clip-rule="evenodd" d="M9.15552 1.4195C8.772 1.44453 8.38826 1.46957 8.0043 1.47162C7.99204 2.314 7.99412 3.15676 7.9962 3.99946C7.99778 4.63712 7.99935 5.27475 7.99472 5.91216C7.99472 6.06518 7.93978 6.1954 7.82863 6.30418C7.7896 6.26423 7.75055 6.22434 7.71151 6.18447C7.50415 5.97266 7.29722 5.76128 7.09708 5.54401C7.10089 4.75181 7.10029 3.95912 7.0997 3.16625C7.09936 2.72572 7.09903 2.28514 7.09945 1.84456C6.81527 1.84456 6.53122 1.84443 6.24727 1.84429C5.67964 1.84403 5.11238 1.84376 4.5451 1.84456C4.55142 2.13055 4.54752 2.41688 4.54362 2.70311C4.53719 3.17532 4.53076 3.64723 4.5702 4.11682C4.64854 4.28928 4.76921 4.43722 4.88988 4.58516C5.04353 4.77355 5.19719 4.96194 5.26348 5.20096C5.33191 5.48696 5.32758 5.78196 5.32326 6.07561C5.3217 6.18205 5.32014 6.28831 5.32205 6.3939C5.31694 6.95171 5.31941 7.50988 5.32189 8.06806C5.32579 8.94517 5.32968 9.82229 5.30412 10.6981C5.26303 11.3751 4.83748 11.8902 4.42186 12.3932C4.30548 12.5341 4.18988 12.674 4.08371 12.8163C3.71137 13.2838 3.73171 13.8687 3.75166 14.4422C3.75925 14.6605 3.76678 14.877 3.75262 15.0849C4.14542 14.9551 4.53608 14.8181 4.92675 14.681C5.35992 14.529 5.79312 14.3771 6.22929 14.235C6.31036 14.0422 6.39125 13.8494 6.47212 13.6567C6.67854 13.1647 6.88481 12.6731 7.09352 12.1827C7.28239 12.2684 7.4713 12.354 7.66019 12.4395C8.4038 12.7763 9.14724 13.1131 9.88691 13.4581C9.60619 13.6782 9.32776 13.9011 9.04924 14.1242C8.92691 14.2221 8.80456 14.3201 8.682 14.4179C8.68341 14.8163 8.6832 15.2151 8.68299 15.6141C8.68283 15.9094 8.68268 16.2048 8.68318 16.5002C8.79746 16.6457 8.93791 16.7805 9.07913 16.9159C9.42254 17.2453 9.77052 17.5791 9.75777 18.0839C9.87375 19.017 9.99546 19.9492 10.1172 20.8814C10.1886 21.4286 10.2601 21.9758 10.3303 22.5232C10.6219 22.5232 10.9133 22.5233 11.2047 22.5234C12.0782 22.5236 12.9512 22.5238 13.8242 22.5221C13.875 22.1329 13.9261 21.7438 13.9771 21.3546C14.1423 20.0953 14.3075 18.8359 14.4637 17.5758C14.582 17.4386 14.7088 17.3082 14.8357 17.1778C15.0624 16.9445 15.2891 16.7113 15.4677 16.4392C15.4896 16.0453 15.4857 15.6506 15.4817 15.2558C15.479 14.982 15.4762 14.7082 15.4821 14.4347C15.1603 14.1673 14.8347 13.9053 14.509 13.6431C14.4269 13.5771 14.3449 13.5111 14.2628 13.4449C15.1557 13.0445 16.0462 12.6381 16.9368 12.2305C17.1104 12.6201 17.2744 13.0137 17.4384 13.4074C17.5522 13.6806 17.666 13.9537 17.783 14.2255C18.0059 14.3031 18.2286 14.381 18.4513 14.4589C19.0992 14.6854 19.7466 14.9118 20.396 15.1315C20.3896 14.9309 20.3936 14.7296 20.3976 14.5284C20.4049 14.1615 20.4122 13.7947 20.3566 13.4318C20.2443 12.9994 19.9594 12.6632 19.6758 12.3286C19.5486 12.1785 19.4216 12.0287 19.3106 11.8707C19.007 11.4631 18.8229 10.9647 18.8278 10.4543C18.8268 9.82663 18.8272 9.19913 18.8276 8.57168C18.8282 7.68165 18.8288 6.79172 18.8253 5.9014C18.8255 5.87541 18.8256 5.84928 18.8257 5.82306C18.8268 5.54053 18.8278 5.24684 18.9711 4.99417C19.0429 4.84005 19.1508 4.70939 19.2586 4.5789C19.3791 4.43311 19.4994 4.28752 19.5688 4.10965C19.602 3.64569 19.5966 3.18037 19.5911 2.7148C19.5878 2.42472 19.5844 2.13455 19.5903 1.84456H16.9152C16.9152 2.19743 16.9154 2.5503 16.9156 2.90315C16.9161 3.78495 16.9166 4.66658 16.914 5.54759C16.6882 5.77351 16.4718 6.00896 16.2579 6.24688C16.2323 6.20313 16.2028 6.16015 16.1731 6.11691C16.0795 5.98055 15.9842 5.84165 16.0033 5.66832C16.0033 5.20291 16.0035 4.73763 16.0038 4.27239C16.0043 3.34205 16.0048 2.41188 16.0033 1.48119C15.6818 1.46662 15.3605 1.44813 15.0392 1.42964C14.4909 1.39809 13.9426 1.36655 13.3939 1.35449C13.1085 1.49583 12.949 1.77979 12.7941 2.05552C12.742 2.14821 12.6905 2.23997 12.6348 2.32507C13.0652 2.81036 13.3258 3.41877 13.4393 4.05467C12.4998 3.79768 11.5041 3.8192 10.5694 4.08814C10.653 3.4355 10.9376 2.8247 11.3643 2.32507C11.3418 2.28454 11.3195 2.24357 11.2971 2.20244C11.1313 1.89783 10.9606 1.58423 10.6794 1.37361C10.1718 1.35317 9.66387 1.38632 9.15552 1.4195ZM10.4953 11.6221C9.56056 11.0029 8.94501 9.90806 9.01674 8.77487C9.05014 7.53301 9.89649 6.36515 11.0703 5.95402C11.077 6.17422 11.0747 6.39465 11.0724 6.61502C11.0695 6.90182 11.0665 7.18852 11.0834 7.47442C11.1144 7.98958 11.601 8.4259 12.1197 8.38282C12.6432 8.37087 13.0855 7.8725 13.0604 7.35486C13.0651 7.12476 13.0635 6.89464 13.0619 6.66451C13.0602 6.42487 13.0585 6.18524 13.0639 5.94562C14.0776 6.32809 14.8785 7.23531 15.0661 8.31109C15.3303 9.59485 14.7135 10.997 13.5744 11.6519C13.3126 10.783 12.7771 9.9953 12.0253 9.48014C11.2889 9.99886 10.775 10.7735 10.4953 11.6221Z" fill="current"/></svg>