<svg width="24" height="24" viewBox="0 0 24 24" fill="current" xmlns="http://www.w3.org/2000/svg"><path d="M11.8425 3.52592C11.4841 3.74945 11.1288 3.97107 10.7724 4.1699C8.84279 5.15642 8.22302 7.30729 7.66067 9.2589C7.59971 9.47046 7.53943 9.67967 7.47822 9.88481C6.80431 9.27275 6.13034 8.67445 5.44263 8.08294C5.23631 8.92891 5.22257 9.78855 5.28445 10.6551C4.83442 10.7855 4.38644 10.9262 3.93814 11.0671C2.96836 11.3718 1.99705 11.6769 1 11.8792V12.7113C1.27579 12.8421 1.54805 12.9818 1.82039 13.1216C2.47843 13.4592 3.13698 13.7971 3.84713 14.011C9.83709 15.6272 16.3635 15.586 22.1816 13.3509C22.3879 13.0689 22.7936 12.505 23 12.2162C21.5077 11.5766 19.9465 11.1365 18.3716 10.772C18.3751 10.4315 18.3837 9.92092 18.3923 9.4103C18.4009 8.89966 18.4095 8.38903 18.4129 8.04862C17.6634 8.67436 16.9136 9.30036 16.1572 9.91234C15.9633 9.62914 15.7356 9.35173 15.5054 9.07129C14.7964 8.20762 14.0638 7.31525 14.2248 6.13675C14.4517 5.20835 14.8093 4.27305 15.4214 3.53032C15.6827 3.53032 16.0712 3.53204 16.4598 3.53376C16.8483 3.53548 17.2369 3.5372 17.4982 3.5372C17.3022 3.35115 17.0131 3.07524 16.7217 2.79706C16.4098 2.49939 16.0952 2.19912 15.889 2.0036C14.3863 1.93942 13.0957 2.74435 11.8425 3.52592Z" fill="current"/><path fill-rule="evenodd" clip-rule="evenodd" d="M18.2203 15.5375C14.0321 16.2734 9.78898 16.0808 5.58014 15.6544C5.47699 16.6103 5.36007 17.5663 5.23628 18.5153C6.72178 20.3377 8.82619 21.837 11.2607 21.8507C14.1421 22.119 17.0237 20.7022 18.6536 18.3296C18.5474 17.6778 18.4479 17.026 18.3481 16.3718C18.3057 16.0942 18.2633 15.8161 18.2203 15.5375ZM8.64047 19.3681C7.85644 18.4053 7.34752 17.3187 7.11371 16.1083C7.55643 16.3444 7.9981 16.5847 8.43995 16.8251C9.13062 17.2009 9.82172 17.5769 10.5179 17.9377C10.5119 17.9859 10.505 18.0409 10.4975 18.1006C10.4536 18.4499 10.3891 18.9624 10.3597 19.2443C9.92653 19.2718 9.06689 19.3337 8.64047 19.3681ZM14.6235 19.6432C13.8602 19.2856 13.4338 18.6873 13.3376 17.8551C14.477 17.3677 15.5661 16.7668 16.653 16.167C16.7009 16.1406 16.7488 16.1141 16.7968 16.0877C16.8381 17.6626 15.7927 18.7904 14.6235 19.6432Z" fill="current"/></svg>