<svg width="24" height="24" viewBox="0 0 24 24" fill="current" xmlns="http://www.w3.org/2000/svg"><path fill-rule="evenodd" clip-rule="evenodd" d="M11.4957 1C11.4957 1 16.4948 1.1672 17.607 7.545C18.7181 13.9195 21 14.4805 21 14.4805C21 14.4805 19.3365 20.5525 13.7949 23C13.7949 23 16.628 18.3063 16.628 14.7962C16.628 12.8899 16.1211 9.7417 11.5 9.7417C6.87888 9.7417 6.37204 12.8943 6.37204 14.7962C6.37204 18.3063 9.20514 23 9.20514 23C3.66347 20.5514 2 14.4849 2 14.4849C2 14.4849 4.27753 13.9239 5.38976 7.5461C6.49983 1.165 11.4946 1 11.4946 1H11.4957ZM7.5774 13.32C8.36799 11.0738 11.4957 11.1596 11.4957 11.1596C11.4957 11.1596 14.6266 11.0738 15.4139 13.3189C14.5367 15.8577 13.4526 18.8211 11.4957 18.8211C9.54303 18.8211 8.45246 15.8577 7.5774 13.3189V13.32Z" fill="current"/></svg>