<svg width="24" height="24" viewBox="0 0 24 24" fill="current" xmlns="http://www.w3.org/2000/svg"><path fill-rule="evenodd" clip-rule="evenodd" d="M15.4731 2.04769C15.3079 2.14409 15.2247 2.3188 14.934 3.17961C14.3587 4.88303 14.2379 5.01037 12.6329 5.60649C12.0753 5.81361 11.8785 5.90637 11.7739 6.01131C11.5319 6.25419 11.5612 6.54938 11.8497 6.77468C11.922 6.83117 12.2542 6.97548 12.5878 7.09533C13.8668 7.55488 14.2462 7.81753 14.5433 8.44915C14.6318 8.63722 14.8124 9.13091 14.9447 9.54628C15.2167 10.3998 15.2785 10.5422 15.4181 10.637C15.6135 10.7695 15.7376 10.6912 16.3491 10.0493C16.8397 9.53451 16.9566 9.43434 17.2241 9.29979C17.8308 8.99476 18.4043 8.95364 19.0305 9.17035C20.3036 9.61102 21.3311 11.0895 21.7275 13.051C21.8671 13.7416 22.0003 13.9184 22.4074 13.9534C22.6886 13.9775 22.8643 13.8882 22.9497 13.6774C23.0414 13.4513 23.0005 11.8745 22.8849 11.178C22.6069 9.5039 22.0256 8.27801 20.9813 7.16371C20.3443 6.48397 19.7043 5.99364 18.6827 5.40263C18.1357 5.08621 17.7168 4.75522 17.3155 4.32251C16.8256 3.79411 16.4123 3.11663 16.2318 2.54602C16.1336 2.23551 15.9453 2.02675 15.7425 2.00351C15.6428 1.99208 15.5394 2.00904 15.4731 2.04769ZM11.3118 2.70352C9.9893 2.84259 8.57461 3.99508 7.79744 5.56658C7.50394 6.16001 7.23701 6.94089 6.82699 8.40548C6.6064 9.19334 6.38744 9.93096 6.3404 10.0446C6.19428 10.3975 5.91671 10.7578 5.64772 10.9438C5.43749 11.0892 5.36805 11.1152 5.19099 11.1152C4.9442 11.1152 4.83168 11.0457 4.72374 10.8267C4.56447 10.5034 4.57996 9.89733 4.7664 9.16039C4.94513 8.45384 5.47142 7.08523 6.10445 5.68107C6.43739 4.94245 6.47714 4.82871 6.47888 4.61029C6.48123 4.30802 6.38881 4.20559 6.11372 4.20559C5.55102 4.20559 4.87026 4.71083 4.33187 5.52801C3.58649 6.65947 3.11362 7.99366 2.74068 10.0176C2.67153 10.3927 2.56026 10.8733 2.49341 11.0855C2.25305 11.8482 1.82649 12.6535 1.29756 13.343C0.954556 13.7901 0.914719 14.0556 1.14387 14.3667C1.30112 14.5801 1.51187 14.6845 2.51727 15.0464C4.02066 15.5875 4.41074 15.7794 4.81312 16.1759C5.2449 16.6014 5.48594 17.0907 5.97135 18.5274C6.36653 19.6969 6.40584 19.7932 6.56903 19.9906C6.75026 20.2098 6.89465 20.2862 7.12789 20.2862C7.34216 20.2862 7.48889 20.2178 7.63619 20.0491C7.81014 19.85 7.86356 19.7341 8.07941 19.0873C8.70225 17.221 8.92255 16.7358 9.35231 16.2839C9.79222 15.8213 10.1672 15.6298 11.7559 15.0562C12.2771 14.868 12.7632 14.6759 12.8361 14.6293C13.1496 14.4286 13.3045 14.0891 13.2184 13.7914C13.1583 13.5838 12.8929 13.2989 12.6687 13.2015C12.5797 13.1628 12.3613 13.0679 12.1832 12.9907C10.9845 12.4708 10.1688 11.3058 9.91865 9.75646C9.83117 9.21466 9.8306 8.21959 9.91747 7.66062C10.1594 6.10415 10.7718 4.79576 11.7557 3.7336C11.9953 3.47497 12.2138 3.21923 12.2413 3.16525C12.4041 2.84619 11.9762 2.63367 11.3118 2.70352ZM18.25 12.1122C18.1238 12.14 17.9604 12.2759 17.8693 12.4284C17.8236 12.505 17.666 12.9333 17.5191 13.3804C16.9037 15.2533 16.7428 15.4129 14.767 16.1127C14.1377 16.3356 13.9388 16.4351 13.8263 16.5832C13.5627 16.9301 13.7565 17.303 14.3304 17.5536C14.6464 17.6915 14.8639 17.8509 15.0873 18.1082C15.3174 18.3732 15.4174 18.6601 15.4165 19.0525C15.4155 19.4726 15.2183 19.8956 14.8426 20.2837C13.967 21.1882 12.3912 21.3738 9.68524 20.891C9.25342 20.814 9.08497 20.8496 8.88842 21.0597C8.77097 21.1851 8.74848 21.2418 8.73457 21.4478C8.71168 21.7867 8.81299 21.9336 9.21076 22.1382C10.3302 22.7138 11.828 23.0412 13.1338 22.9958C14.3567 22.9533 15.4155 22.6675 16.5126 22.0839C17.4338 21.5938 18.1404 21.0391 19.2141 19.963C20.5653 18.6088 21.4278 17.9473 22.2943 17.6008C22.8158 17.3922 22.9617 17.2386 22.9617 16.8977C22.9617 16.7689 22.932 16.6945 22.8344 16.5795C22.6683 16.3836 22.6056 16.3524 21.7359 16.0331C19.9079 15.3619 19.7607 15.2041 19.1013 13.2091C18.8719 12.5151 18.7693 12.3011 18.6195 12.2042C18.5064 12.1311 18.3456 12.091 18.25 12.1122Z" fill="current"/></svg>