<svg width="24" height="24" viewBox="0 0 24 24" fill="current" xmlns="http://www.w3.org/2000/svg"><path fill-rule="evenodd" clip-rule="evenodd" d="M3.83687 1.0388C3.78311 1.06103 3.68416 1.13838 3.61697 1.21064C3.51919 1.31584 3.4948 1.3928 3.4948 1.59606C3.4948 1.84315 3.51058 1.87179 4.08003 2.65484C5.90162 5.16007 8.90133 9.01964 10.9906 11.5463C12.4233 13.279 12.946 14.5236 12.8884 16.066C12.8619 16.779 12.7843 17.12 12.533 17.6295C11.9699 18.7708 10.9437 19.411 9.6764 19.4114C8.3229 19.4118 7.35872 18.628 7.0597 17.2841C6.9607 16.839 6.98289 16.0112 7.10417 15.6262C7.21876 15.2624 7.47629 14.8661 7.7 14.7094C7.96701 14.5223 8.36561 14.4799 8.58082 14.6157C8.92528 14.8331 8.97043 15.2604 8.71906 15.9248C8.56601 16.3295 8.58111 16.6236 8.77174 16.9488C9.08439 17.4822 9.67855 17.6612 10.2342 17.3894C10.5191 17.2501 10.6313 17.1175 10.8748 16.6323C11.5366 15.3136 11.2025 13.8692 10.0255 12.9606C8.44223 11.7385 6.03175 11.9695 4.43265 13.4965C3.77246 14.1269 3.35768 14.824 3.12166 15.6995C2.95844 16.3052 2.95962 17.4757 3.1242 18.1426C3.60109 20.0749 4.66676 21.4416 6.34318 22.2704C8.93984 23.5544 12.3665 23.1084 14.4909 21.2099C15.2268 20.5522 15.6917 19.9737 16.019 19.308C17.1143 17.0806 16.875 14.0352 15.4371 11.9046C15.0802 11.3758 14.0625 10.1764 11.2145 6.92886C10.2719 5.8539 9.48167 4.94337 9.45856 4.9054C9.35823 4.74074 11.4276 4.95651 12.4618 5.21856C13.45 5.46897 14.1545 5.77245 14.8906 6.26483C15.7146 6.81594 16.2789 7.41644 17.0557 8.56914C17.5551 9.31012 17.4816 9.32155 17.7343 8.46335C18.031 7.45558 18.1022 6.64204 17.9593 5.89485C17.9189 5.68421 17.886 5.5064 17.886 5.49966C17.886 5.49291 17.9725 5.48744 18.0782 5.48744C18.3051 5.48744 18.6653 5.56025 19.8985 5.85532C20.4007 5.97547 20.8594 6.07378 20.9178 6.07378C21.0513 6.07378 21.0359 6.0021 20.7487 5.28638C19.8289 2.99448 18.1562 1.78257 15.3938 1.40663C14.4806 1.28237 12.607 1.26239 10.4583 1.354C9.4504 1.39695 8.29593 1.43203 7.89278 1.43189C6.60974 1.43155 5.28532 1.29903 4.43954 1.08639C4.02867 0.983094 3.98073 0.979283 3.83687 1.0388Z" fill="current"/></svg>