<svg width="24" height="24" viewBox="0 0 24 24" fill="current" xmlns="http://www.w3.org/2000/svg"><path d="M5.2904 5.01144C5.96537 5.01507 6.64034 5.01455 7.3153 5.01403C7.82176 5.01365 8.32823 5.01326 8.83469 5.01462C9.00987 5.31469 9.14124 5.63913 9.22892 5.97843C9.6037 7.36422 9.70957 8.80734 9.80028 10.2377C10.8538 10.2354 11.9069 10.2358 12.9598 10.2362C13.3734 10.2364 13.7875 10.2365 14.2011 10.2365C14.2714 8.94086 14.3854 7.64203 14.6666 6.37498C14.7806 5.89784 14.912 5.41435 15.1789 5.00296L15.6825 5.00196C16.6907 4.99988 17.6984 4.9978 18.7068 5.00508C19.089 5.60085 19.2183 6.31146 19.3446 7.00575C19.3604 7.09237 19.3761 7.17873 19.3923 7.26459C19.7182 9.42231 19.7661 11.6161 19.6755 13.795C19.599 15.1362 19.4962 16.4859 19.1784 17.7923C19.0715 18.2142 18.9472 18.6405 18.7028 18.9999C18.1268 18.9948 17.5507 18.9957 16.9746 18.9966C16.3732 18.9975 15.7715 18.9985 15.1697 18.9925C14.968 18.6723 14.8244 18.3171 14.7358 17.946C14.3946 16.5792 14.2805 15.1648 14.1971 13.7599C12.7304 13.7631 11.2638 13.7621 9.79716 13.7599C9.72286 15.1372 9.60772 16.5209 9.28386 17.8622C9.26775 17.9172 9.25214 17.973 9.23643 18.0292C9.14194 18.367 9.04402 18.717 8.81436 18.9798C8.12174 19.0049 7.4284 19.001 6.73497 18.9972C6.25481 18.9946 5.7745 18.992 5.29448 18.9989C4.91582 18.4108 4.78579 17.7073 4.65889 17.0207C4.64141 16.9261 4.62399 16.8319 4.60598 16.7383C4.23526 14.2933 4.20164 11.8016 4.36868 9.33642C4.46747 8.14038 4.5846 6.93375 4.92987 5.78334C5.00828 5.5066 5.13152 5.24682 5.2904 5.01144Z" fill="current"/><path d="M1.49807 7.52777C1.5808 7.2851 1.67302 7.01462 1.91406 6.92085C2.32129 6.90234 2.72963 6.90566 3.13797 6.90897C3.40977 6.91118 3.68159 6.91338 3.95306 6.90915C3.60576 9.00215 3.54261 11.1344 3.59761 13.254C3.64242 14.5369 3.74122 15.8209 3.95713 17.0859C3.69541 17.0796 3.43285 17.0838 3.17028 17.088C2.72476 17.0952 2.27919 17.1023 1.83767 17.0583C1.56827 16.8073 1.47391 16.4336 1.38416 16.0782C1.37076 16.0251 1.35747 15.9724 1.34371 15.9206C1.04733 14.4966 0.989278 13.0313 1.0015 11.5776C1.03715 10.2639 1.10131 8.9301 1.45166 7.65987C1.46741 7.61771 1.48258 7.57323 1.49807 7.52777Z" fill="current"/><path d="M22.1615 6.91135C21.4557 6.90819 20.7489 6.90819 20.0431 6.91033C20.2681 8.33423 20.3812 9.77522 20.4066 11.2172C20.4382 13.1798 20.3619 15.152 20.038 17.0881C20.3172 17.0862 20.5965 17.0873 20.8758 17.0884C21.2478 17.0899 21.6198 17.0914 21.9914 17.0859C22.2372 17.0994 22.3527 16.8345 22.4387 16.6374L22.4447 16.6236C22.736 15.8497 22.8214 15.0139 22.9052 14.1936C22.9079 14.1678 22.9105 14.1419 22.9132 14.116C23.0547 12.2775 23.0374 10.4156 22.7542 8.5919C22.7445 8.5406 22.7349 8.48891 22.7253 8.43699C22.6255 7.89765 22.5211 7.33307 22.1615 6.91135Z" fill="current"/></svg>