<svg width="24" height="24" viewBox="0 0 24 24" fill="current" xmlns="http://www.w3.org/2000/svg"><path d="M4.68658 19.5621C5.83117 20.6883 7.60008 20.7906 9.36899 19.8692C7.80819 17.0025 8.95278 14.3406 10.6176 13.112C12.8028 11.4739 15.4041 11.781 17.9014 13.9311C18.7338 13.1632 19.5922 12.4209 20.4507 11.6786C21.3091 10.9364 22.1676 10.1941 23 9.42624C22.4277 8.50481 21.8814 7.60896 21.3351 6.71312C20.7889 5.81728 20.2426 4.92144 19.6703 4C18.3251 4.56724 16.9658 5.1205 15.6027 5.67528C13.2754 6.62251 10.9373 7.57413 8.64062 8.60719C6.87171 9.32386 5.3109 10.3477 3.7501 11.3715C2.29335 12.3953 1.46092 13.7263 2.08524 15.5692C2.08524 15.6715 1.98119 15.8763 1.87714 15.9787C0.940656 16.6954 0.732549 17.8216 1.35687 18.743C1.98119 19.6644 3.02173 19.8692 4.16631 19.4597C4.37442 19.4597 4.58253 19.4597 4.68658 19.5621Z" fill="current"/><path fill-rule="evenodd" clip-rule="evenodd" d="M9.88918 17.0026C9.99324 14.8525 11.8662 13.112 14.0513 13.2144C16.2364 13.3168 17.9013 15.1597 17.7973 17.2073C17.6932 19.4597 15.9243 21.0978 13.6351 20.9955C11.554 20.9955 9.78513 19.1526 9.88918 17.0026ZM12.9067 17.1049C12.9067 17.6168 13.3229 18.0264 13.8432 18.0264C14.3635 18.0264 14.7797 17.6168 14.7797 17.1049C14.7797 16.593 14.3635 16.1835 13.8432 16.1835C13.3229 16.1835 12.9067 16.593 12.9067 17.1049Z" fill="current"/></svg>