<svg width="24" height="24" viewBox="0 0 24 24" fill="current" xmlns="http://www.w3.org/2000/svg"><path d="M21.6622 11.129C21.4401 10.793 21.2179 10.569 20.8846 10.345C20.4403 9.89706 19.9959 9.3371 19.5516 8.88914C18.9962 8.1052 18.6629 7.20928 18.3297 6.42534C18.3297 6.31335 18.2186 6.31335 18.2186 6.20136C17.9964 5.75339 17.7742 5.30543 17.5521 4.85747C17.2188 4.4095 16.8855 4.07353 16.5523 3.62557C16.9966 3.06561 17.5521 2.28167 18.2186 1.38575C18.2186 1.27376 18.1075 1.27376 18.1075 1.16176V1.04977C17.6631 1.04977 17.2188 0.937783 16.9966 1.04977C15.6636 1.49774 14.2195 1.9457 12.8864 2.39367C12.4421 2.39367 11.8867 2.50566 11.4423 2.50566C10.7758 2.61765 10.2204 2.61765 9.55386 2.84163C9.44277 2.84163 9.33168 2.84163 9.2206 2.95362C9.10951 2.95362 8.99843 2.95362 8.99843 3.06561H8.88734C8.10974 3.06561 7.66539 3.28959 7.10996 3.40158C6.7767 3.40158 6.55453 3.51357 6.22127 3.73756C6.11019 3.84955 5.88801 3.96154 5.77693 4.07353C5.77693 4.07353 5.77693 4.07353 5.66584 4.18552C5.2215 4.29751 4.66607 4.63348 4.33281 4.96946C4.22172 4.96946 4.11064 5.08145 4.11064 5.08145C3.88846 5.41742 3.66629 5.6414 3.44412 5.97738C3.44412 5.97738 3.44412 5.97738 3.44412 6.08937C3.66629 6.08937 3.77738 6.08937 3.99955 5.97738C4.11064 5.97738 4.11064 5.97738 4.22172 5.97738C4.55498 5.86538 4.88824 5.86538 5.2215 5.86538C5.33258 5.86538 5.44367 5.86538 5.55476 5.86538H5.66584C5.66584 5.86538 5.66584 5.97738 5.55476 5.97738C4.22172 6.64932 3.11086 7.65724 2.22217 8.88914C2.22217 8.88914 2.22217 8.88914 2.11109 8.88914C2.11109 8.88914 2.11109 8.88914 2.11109 9.00113L2 9.11312C2 9.22511 2.11109 9.3371 2.11109 9.3371C2.66652 9.22511 3.11086 9.11312 3.55521 8.88914C3.66629 8.88914 3.66629 8.88914 3.77738 8.88914C3.66629 9.22511 3.55521 9.56109 3.44412 9.89706C3.44412 10.0091 3.33303 10.121 3.33303 10.345C3.22195 10.681 3.11086 10.905 2.99978 11.241C2.88869 11.6889 2.7776 12.1369 2.66652 12.5848C2.66652 12.8088 2.55543 13.0328 2.55543 13.3688C2.44434 13.7048 2.44434 14.0407 2.44434 14.3767C2.44434 14.4887 2.44434 14.6007 2.44434 14.6007C2.44434 14.7127 2.55543 14.7127 2.66652 14.7127C2.66652 14.4887 2.88869 14.2647 3.11086 14.1527C3.11086 14.1527 3.22195 14.1527 3.22195 14.0407C3.22195 14.1527 3.22195 14.2647 3.22195 14.3767C3.22195 14.8247 3.22195 15.3846 3.33303 15.8326C3.44412 16.8405 3.66629 17.8484 4.22172 18.6324C4.99932 18.9683 5.66584 19.1923 6.44344 19.5283C6.66562 19.6403 6.99887 19.7523 7.22105 19.8643C7.10996 19.7523 7.10996 19.6403 6.99887 19.5283C6.55453 18.6324 6.11019 17.6244 6.22127 16.7285C5.9991 15.0486 5.9991 13.1448 6.44344 11.4649C6.66562 10.457 6.99888 9.56109 7.33213 8.55317C7.55431 7.88122 7.99865 7.20928 8.55408 6.76131C8.55408 6.76131 8.55408 6.76131 8.55408 6.64932C8.66517 6.42534 8.77625 6.31335 8.99843 6.08937C9.2206 5.97738 9.44277 5.86538 9.66494 5.75339C9.55385 5.86538 9.55385 5.97738 9.44277 5.97738C9.2206 6.42534 8.99843 6.76131 8.77625 7.20928C8.66517 7.43326 8.44299 7.76923 8.33191 7.99321C8.33191 8.1052 8.22082 8.21719 8.22082 8.32919C8.22082 8.44118 8.10974 8.55317 8.10974 8.66516V8.77715C7.55431 10.0091 7.22105 11.3529 7.10996 12.6968C6.99887 13.2568 6.99887 13.9287 7.10996 14.4887C7.10996 14.9367 7.22105 15.3846 7.33213 15.8326C8.10974 18.5204 10.4425 20.6482 12.7754 21.9921C12.9975 21.9921 13.2197 22.1041 13.4419 22.1041C14.5527 22.3281 15.5525 22.552 16.5523 23C16.7745 21.8801 16.8855 20.6482 16.8855 19.5283C16.7745 18.5204 16.5523 17.5124 15.9969 16.6165C15.7747 16.2805 15.5525 15.8326 15.3303 15.4966C14.9971 15.0486 14.7749 14.7127 14.4416 14.2647C13.9973 13.5928 13.7751 12.9208 13.4419 12.1369C14.2195 12.0249 14.9971 11.8009 15.6636 11.9129C16.1079 12.0249 16.5523 12.2489 16.8855 12.4728H16.9966C17.441 12.6968 17.7742 12.8088 18.2186 13.0328C18.6629 13.1448 18.9962 13.3688 19.2183 13.7048C19.4405 14.0407 19.6627 14.1527 20.107 14.2647C20.7736 14.3767 21.7733 14.2647 21.8844 13.3688C22.1066 12.8088 21.9955 11.8009 21.6622 11.129Z" fill="current"/></svg>