<svg width="24" height="24" viewBox="0 0 24 24" fill="current" xmlns="http://www.w3.org/2000/svg"><path fill-rule="evenodd" clip-rule="evenodd" d="M13.5657 1.044C13.1727 1.1241 13.293 1.07236 10.5606 2.33656L8.08632 3.48139L8.08605 4.08551C8.08555 5.14067 7.93579 5.83698 7.18141 8.29096C6.45782 10.6449 6.26069 11.4366 6.07325 12.7409C5.976 13.418 5.97546 15.1348 6.07237 15.8042C6.53023 18.9679 8.16174 21.1831 11.2663 22.8564C11.5946 23.0334 11.7102 23.0433 11.8389 22.9053C11.9662 22.7689 11.9598 22.6503 11.7973 22.1354C10.9388 19.4154 11.1734 16.8026 12.4642 14.7072C13.4724 13.0706 15.1613 11.5687 17.2945 10.4118L17.9992 10.0296L17.9996 5.92676L18 1.82397L17.6619 1.69767C16.9167 1.41937 16.2339 1.22527 15.5078 1.08544C15.0294 0.993293 13.9295 0.969822 13.5657 1.044ZM14.4356 3.87986C14.5471 3.93239 14.6384 3.99245 14.6384 4.01331C14.6384 4.03418 14.4845 4.26007 14.2963 4.51531C13.7257 5.2894 12.7504 6.70834 12.1421 7.64946C10.2622 10.5578 8.93026 13.1863 8.43214 14.9708C8.31402 15.3938 8.23833 15.4884 8.02299 15.4818C7.95638 15.4798 7.86709 15.4396 7.82223 15.3915C7.74592 15.3095 7.74159 15.262 7.74337 14.5299C7.74696 13.0598 8.05356 11.6807 8.882 9.40863C9.05634 8.93051 9.33771 8.09226 9.50721 7.54585C9.67676 6.99943 9.88321 6.41266 9.96601 6.2419C10.2742 5.60636 10.7138 5.14837 11.3542 4.79593C11.9907 4.44556 13.1438 3.871 13.3247 3.814C13.5986 3.72777 14.1866 3.76267 14.4356 3.87986Z" fill="current"/></svg>