<svg width="24" height="24" viewBox="0 0 24 24" fill="current" xmlns="http://www.w3.org/2000/svg"><path fill-rule="evenodd" clip-rule="evenodd" d="M21.5977 1.348C20.6894 2.6497 19.0071 3.88023 17.1394 4.60926C16.3055 4.93469 16.2869 4.93806 16.0723 4.80205C15.7526 4.59943 14.9926 4.23325 14.5382 4.06281C13.7045 3.75017 12.8026 3.63576 12.1234 3.75654C11.1289 3.93335 10.3783 4.37998 8.81097 5.72751C7.60095 6.76784 7.04642 7.15839 6.20394 7.56366C5.4793 7.91225 5.07526 8.01494 4.51696 7.99246C4.12597 7.97668 4.03535 7.95596 3.75498 7.81833C3.12473 7.50887 2.50312 6.73724 2.16331 5.84261C2.08377 5.63321 2.00639 5.46185 1.99135 5.46185C1.9406 5.46185 1.67719 5.90104 1.56156 6.17851C1.39264 6.58388 1.22299 7.14897 1.13062 7.61378C1.02924 8.12405 1.01421 9.58211 1.10598 10.0079C1.43968 11.5563 2.24892 12.6392 3.57599 13.3128L4.04078 13.5488L4.42841 13.1605C4.75723 12.8312 4.88937 12.736 5.29884 12.5334C7.165 11.6099 9.55626 11.8607 11.246 13.1571C11.4699 13.3289 11.6768 13.4862 11.7058 13.5066C11.738 13.5293 12.43 13.1812 13.4766 12.6158C14.4215 12.1054 15.2005 11.6941 15.2078 11.7017C15.2422 11.7376 15.1337 12.5176 15.0471 12.8576C14.9219 13.349 14.5802 14.052 14.2113 14.5771C13.8466 15.0963 12.839 16.1197 12.1724 16.6481C10.4288 18.03 8.06279 19.4098 3.20689 21.8767L1 22.9979L11.4573 22.9989L21.9145 23L21.772 22.85C21.5498 22.6161 21.134 22.011 20.9021 21.5839C20.4709 20.7897 20.2392 19.8837 20.3072 19.2566C20.3505 18.8561 20.5197 18.3592 20.6092 18.3697C20.6471 18.3742 21.0066 18.5265 21.408 18.7082C21.8094 18.8899 22.2046 19.0494 22.2861 19.0626L22.4343 19.0868L22.4638 18.8396C22.5175 18.3912 22.4954 17.1988 22.4233 16.6448C22.2751 15.5076 21.9473 14.3212 21.5345 13.4283C21.4302 13.2027 21.3448 13.0089 21.3448 12.9977C21.3448 12.9865 21.7172 12.9842 22.1724 12.9926C22.6276 13.001 23 12.9959 23 12.9812C22.9999 12.8911 22.7034 11.9216 22.564 11.5556C22.3581 11.0146 21.9617 10.2179 21.6821 9.7826C21.1262 8.91751 20.3202 8.06806 19.5605 7.54672L19.135 7.25471L19.5112 7.02777C20.0256 6.7174 20.3136 6.48723 20.7141 6.06645C21.3232 5.42645 21.7089 4.73905 21.9284 3.90215C22.0892 3.28878 22.1252 2.2843 22.0124 1.55961C21.9691 1.28168 21.9201 1.03139 21.9036 1.00347C21.8867 0.974897 21.7526 1.12586 21.5977 1.348ZM13.7915 6.65518C13.9419 6.73138 14.1584 6.8889 14.2726 7.00521C14.4833 7.21977 14.6715 7.51469 14.6264 7.55987C14.5918 7.59463 8.69028 9.48164 8.6724 9.46369C8.64826 9.4395 8.97451 8.96869 9.25469 8.62333C10.2179 7.43609 11.5522 6.57903 12.5862 6.48345C13.0756 6.43822 13.4758 6.49526 13.7915 6.65518Z" fill="current"/></svg>