<svg width="24" height="24" viewBox="0 0 24 24" fill="current" xmlns="http://www.w3.org/2000/svg"><path fill-rule="evenodd" clip-rule="evenodd" d="M10.9226 1.06991C8.52137 1.39713 6.09047 2.73108 3.90871 4.91877C3.23471 5.59457 2.55082 6.39476 2.0639 7.07725C1.69488 7.59451 1 8.73201 1 8.81887C1 8.92736 1.49036 9.96668 1.77651 10.4647C2.98127 12.5614 4.5456 14.1414 6.266 14.9991C6.8766 15.3035 7.40818 15.5059 7.46031 15.4537C7.48225 15.4318 7.52549 15.1283 7.55636 14.7793C7.70679 13.0789 7.25194 11.2129 6.32216 9.71619C5.97581 9.15869 5.71279 8.82977 5.1524 8.25353L4.6521 7.73912L4.90623 7.42849C5.62865 6.54547 6.77056 5.65434 7.91677 5.07915C9.26957 4.40028 10.4878 4.11101 11.9935 4.11101C13.4993 4.11101 14.7175 4.40028 16.0703 5.07915C17.2165 5.65434 18.3584 6.54547 19.0808 7.42849L19.335 7.73912L18.8347 8.25353C18.2743 8.82977 18.0113 9.15869 17.6649 9.71619C16.7354 11.2125 16.277 13.0944 16.4298 14.7869C16.4609 15.1314 16.5044 15.4313 16.5265 15.4535C16.6225 15.5495 17.9321 14.9408 18.6143 14.483C20.3065 13.3476 21.9359 11.323 22.8062 9.27433L23 8.81818L22.8905 8.61022C22.2844 7.45929 21.1822 6.01726 20.0333 4.87192C17.1891 2.03658 13.9004 0.664175 10.9226 1.06991ZM10.7286 6.32885C10.0454 6.93929 9.2845 7.62563 9.03765 7.85407L8.5888 8.26948L8.7734 8.54161C10.5244 11.1228 10.5948 16.2709 8.9257 19.6768C8.4822 20.5817 8.21163 20.9686 7.59837 21.5747C7.30741 21.8623 7.03339 22.151 6.98951 22.2164C6.89103 22.3629 6.88699 22.5493 6.97852 22.7264C7.12743 23.0145 6.8586 22.9999 11.9935 22.9999C17.1285 22.9999 16.8596 23.0145 17.0086 22.7264C17.0913 22.5663 17.0977 22.3896 17.0257 22.252C16.9969 22.197 16.7215 21.9044 16.4135 21.6019C15.7942 20.9934 15.4926 20.5744 15.0907 19.7645C13.8431 17.2499 13.494 13.7003 14.2144 10.8563C14.4283 10.0121 14.8555 9.0215 15.2315 8.49783L15.396 8.26861L15.0575 7.9556C14.8713 7.78349 14.6308 7.56792 14.5229 7.47666L14.3268 7.31069L13.9503 7.67444C13.4713 8.13734 13.2556 8.30363 12.9493 8.44631C12.6524 8.5846 12.4162 8.59221 12.1788 8.47107C11.9013 8.32939 11.7869 8.13353 11.79 7.8054C11.7937 7.4025 12.0257 6.98425 12.6494 6.25597C12.7747 6.10967 12.8588 5.97436 12.8362 5.95538C12.8136 5.93636 12.6176 5.76214 12.4005 5.56826C12.1835 5.37433 11.998 5.21642 11.9883 5.21734C11.9786 5.21821 11.4117 5.71841 10.7286 6.32885Z" fill="current"/></svg>