<svg width="24" height="24" viewBox="0 0 24 24" fill="current" xmlns="http://www.w3.org/2000/svg"><path fill-rule="evenodd" clip-rule="evenodd" d="M6.24525 4.54288C3.91917 6.49602 2.00885 8.11312 2.0001 8.13645C1.99129 8.15979 2.58794 10.2489 3.32592 12.779L4.66774 17.3791L8.08517 20.1896L11.5026 23L11.9003 22.6732C12.6448 22.0614 18.2997 17.4137 18.3175 17.399C18.3608 17.3631 21.0223 8.1595 20.9999 8.12334C20.9685 8.07281 12.5737 1.01971 12.5223 1.00068C12.4263 0.965114 12.3937 2.33232 12.4706 3.16707C12.6604 5.22558 13.3725 6.79645 14.5188 7.68525L14.887 7.97081L15.6095 8.00236C16.7329 8.05138 19.4067 8.38639 19.4067 8.47817C19.4067 8.49686 19.2396 8.63721 19.0353 8.79014C17.0268 10.2934 14.2684 13.9038 13.0103 16.676C12.8776 16.9683 12.6223 17.6588 12.443 18.2104C12.2637 18.762 12.0059 19.5545 11.8702 19.9716C11.7344 20.3886 11.5953 20.7833 11.5612 20.8485C11.4674 21.0274 11.5412 21.2234 10.5316 18.1126C10.0664 16.6791 9.46138 15.4713 8.39939 13.8564C7.882 13.0696 7.03981 11.9383 6.41453 11.1902C5.82591 10.4859 4.49934 9.17853 3.98982 8.80071C3.725 8.60434 3.57972 8.46755 3.62085 8.45332C3.74084 8.41178 5.29105 8.18523 5.9763 8.10911C6.34158 8.0685 6.96144 8.02193 7.35378 8.00559C8.06618 7.97594 8.06746 7.97565 8.32304 7.80526C8.46378 7.71147 8.74243 7.46452 8.94226 7.25655C9.79124 6.37294 10.2915 5.17001 10.5048 3.49895C10.5682 3.0024 10.5765 1.09319 10.5155 1.03253C10.493 1.01012 8.57133 2.58975 6.24525 4.54288ZM11.1394 7.69973C10.1833 8.92331 9.53945 10.1666 9.44598 10.97C9.3991 11.3729 9.55583 11.9018 9.96067 12.7067C10.2878 13.3571 10.8809 14.258 11.3169 14.7669L11.5167 14.9999L11.983 14.3824C12.9943 13.0429 13.5525 11.8817 13.5525 11.1168C13.5525 10.2776 12.772 8.7627 11.6514 7.42675L11.4968 7.24242L11.1394 7.69973Z" fill="current"/></svg>