<svg width="24" height="24" viewBox="0 0 24 24" fill="current" xmlns="http://www.w3.org/2000/svg"><path fill-rule="evenodd" clip-rule="evenodd" d="M11.2409 1.02142C9.79999 1.12479 8.51259 1.46944 7.18895 2.10607C5.98171 2.68678 5.11976 3.29537 4.17304 4.23554C3.58593 4.81857 3.07539 5.44469 3.14096 5.50129C3.20887 5.55993 4.72894 6.41342 4.76545 6.41342C4.78377 6.41342 4.87411 6.31653 4.96625 6.19815C5.17285 5.93272 5.99396 5.13126 6.33929 4.85808C7.07669 4.27465 8.23172 3.65751 9.14583 3.35845C9.41174 3.27148 9.89866 3.14387 10.2279 3.07489C10.7927 2.95652 10.8928 2.94945 12.0006 2.94945C13.1084 2.94945 13.2085 2.95652 13.7733 3.07489C15.2397 3.38215 16.6329 4.03093 17.7331 4.91886C18.0892 5.20627 18.9815 6.09311 19.1114 6.28879C19.1568 6.35736 19.211 6.41342 19.2315 6.41342C19.2709 6.41342 20.7876 5.56401 20.8602 5.50129C20.9791 5.39855 19.6688 3.99966 18.8612 3.36706C17.6547 2.42212 16.1621 1.69585 14.6481 1.31717C13.6526 1.06814 12.2664 0.94782 11.2409 1.02142ZM11.1718 4.81159C9.49342 5.02907 7.93906 5.80261 6.80015 6.98701C4.50792 9.3709 4.17857 12.9377 5.99626 15.6924C6.13195 15.898 6.26217 16.0663 6.2856 16.0663C6.32032 16.0663 7.45025 15.4218 7.84448 15.1772L7.94748 15.1133L7.73609 14.8307C7.61983 14.6753 7.42414 14.3442 7.3012 14.0949C5.89952 11.2532 7.35535 7.90526 10.4214 6.91944C11.1817 6.67495 12.301 6.62234 13.0958 6.79368C16.0536 7.43145 17.8671 10.4027 17.0371 13.2516C16.8963 13.735 16.5435 14.4585 16.2706 14.8232L16.0648 15.0984L16.8666 15.5936C17.3076 15.866 17.6827 16.0889 17.7001 16.0889C17.7591 16.0889 18.17 15.4618 18.4011 15.019C19.1791 13.5282 19.3796 11.7402 18.9519 10.1069C18.7275 9.25013 18.4514 8.64477 17.9452 7.89973C17.1016 6.65805 15.7881 5.6595 14.3562 5.1711C13.5587 4.89914 13.0977 4.82233 12.1617 4.80556C11.7059 4.7974 11.2604 4.80012 11.1718 4.81159ZM1.82413 7.69367C1.46991 8.50364 1.14595 9.76681 1.03894 10.7552C0.960203 11.4824 1.00593 12.8997 1.13061 13.5964C1.53194 15.8395 2.50435 17.7436 4.05241 19.3179C4.32817 19.5983 4.56792 19.8277 4.58523 19.8277C4.6025 19.8277 4.65163 19.7206 4.69436 19.5898C4.73709 19.4589 4.88378 19.0102 5.02035 18.5928L5.26867 17.8337L4.98876 17.5051C2.99615 15.166 2.39315 11.8096 3.43992 8.88464C3.53791 8.61087 3.60306 8.37408 3.58473 8.35844C3.51737 8.3008 2.00136 7.45574 1.9654 7.45574C1.94495 7.45574 1.88137 7.56283 1.82413 7.69367ZM21.1975 7.90557C20.7731 8.1488 20.4164 8.35713 20.4049 8.3685C20.3933 8.37983 20.4639 8.61263 20.5616 8.88577C21.608 11.8095 21.0047 15.1664 19.0124 17.5051L18.7325 17.8337L18.9808 18.5928C19.1174 19.0102 19.2641 19.4589 19.3068 19.5898C19.3495 19.7206 19.3987 19.8277 19.4159 19.8277C19.4892 19.8277 20.4788 18.7705 20.8057 18.3429C22.1911 16.5311 22.929 14.4449 22.9928 12.16C23.0205 11.1667 22.9719 10.5723 22.7898 9.67635C22.6156 8.81956 22.1409 7.4508 22.0211 7.4595C21.9925 7.46159 21.6219 7.6623 21.1975 7.90557ZM11.459 8.59061C10.7886 8.70912 10.2118 8.99716 9.71503 9.46159C8.63391 10.4724 8.35774 12.04 9.03059 13.3468C9.28655 13.844 9.82448 14.4055 10.2934 14.6649L10.4811 14.7687V15.2063C10.4811 15.8815 10.3275 16.245 9.93637 16.4951C9.84345 16.5546 9.42555 16.7194 9.0077 16.8615C8.58985 17.0036 8.15625 17.1724 8.04413 17.2365C7.76648 17.3955 7.39886 17.7675 7.25069 18.0395C7.15253 18.2197 5.60042 22.8559 5.60042 22.969C5.60042 22.986 8.48049 23 12.0006 23C15.5207 23 18.4008 22.986 18.4008 22.969C18.4008 22.8559 16.8486 18.2197 16.7505 18.0395C16.6023 17.7675 16.2347 17.3955 15.957 17.2365C15.8449 17.1724 15.4113 17.0036 14.9935 16.8615C14.5756 16.7194 14.1577 16.5546 14.0648 16.4951C13.6737 16.245 13.5201 15.8815 13.5201 15.2063V14.7687L13.7078 14.6649C14.1779 14.4048 14.7146 13.844 14.9722 13.3438C15.3884 12.5353 15.4461 11.6225 15.1369 10.736C14.797 9.76146 13.875 8.92302 12.8524 8.65872C12.5073 8.56954 11.7795 8.53396 11.459 8.59061Z" fill="current"/></svg>