<svg width="24" height="24" viewBox="0 0 24 24" fill="current" xmlns="http://www.w3.org/2000/svg"><path fill-rule="evenodd" clip-rule="evenodd" d="M11.9164 1.03339C11.81 1.15925 6.21487 9.91814 6.19537 9.98923C6.17932 10.0477 11.8104 19.4274 11.9468 19.5693C11.9764 19.6002 17.7705 10.0993 17.7705 10.0198C17.7705 9.98396 12.066 1.07134 12.004 1.01028C11.9836 0.990128 11.9441 1.00053 11.9164 1.03339ZM13.1841 9.70553L14.3791 11.5697L13.1821 13.6248C12.5238 14.7552 11.9679 15.6635 11.9468 15.6432C11.8967 15.5951 9.5754 11.6137 9.5754 11.5759C9.5754 11.5368 11.9624 7.8128 11.9773 7.82869C11.9838 7.83563 12.5268 8.68022 13.1841 9.70553ZM1.99248 10.7476L1 12.6713L1.12099 13.1913C1.60363 15.2649 2.63898 17.0357 4.2235 18.4975C5.6767 19.8382 7.2363 20.7656 11.0204 22.5388L12.0047 23L13.8571 22.1135C15.9475 21.1131 16.6225 20.7567 17.6117 20.1312C20.541 18.2788 22.2053 16.086 22.879 13.1914L23 12.6714L22.0071 10.748C21.4611 9.69014 20.9998 8.83848 20.982 8.85539C20.9643 8.87231 20.3896 9.84678 19.7049 11.0209L18.4602 13.1557L18.6992 13.6096C18.8306 13.8592 19.0074 14.2547 19.0921 14.4883C19.2296 14.8676 19.2462 14.97 19.2478 15.4446C19.2494 15.9332 19.2391 15.995 19.12 16.2101C18.9812 16.4608 18.6981 16.7318 18.4444 16.8568C17.9853 17.0831 17.161 17.2467 16.4782 17.247L16.0831 17.2472L14.0599 20.0898C12.9472 21.6532 12.0202 22.9323 12 22.9323C11.9798 22.9323 11.0528 21.6532 9.94006 20.0898L7.91693 17.2472L7.52177 17.247C6.83896 17.2467 6.01474 17.0831 5.55557 16.8568C5.30186 16.7318 5.01881 16.4608 4.88003 16.2101C4.76093 15.995 4.75061 15.9332 4.75221 15.4446C4.75376 14.97 4.77044 14.8676 4.90791 14.4883C4.99258 14.2547 5.16904 13.8595 5.29997 13.6101L5.53811 13.1567L4.29566 11.0228C3.61236 9.84914 3.03787 8.8743 3.01911 8.85641C3.00034 8.83857 2.53836 9.68958 1.99248 10.7476Z" fill="current"/></svg>