<svg width="24" height="24" viewBox="0 0 24 24" fill="current" xmlns="http://www.w3.org/2000/svg"><path fill-rule="evenodd" clip-rule="evenodd" d="M5.90434 1.08815C5.75419 1.14 5.58968 1.24255 5.48356 1.35047C5.20606 1.63271 2.42273 5.40468 2.39851 5.53132C2.36888 5.68628 2.43971 5.92498 2.54307 6.01854C2.58963 6.0607 3.65624 6.56824 4.91324 7.1464C6.17023 7.72451 7.21313 8.2248 7.23074 8.25811C7.24836 8.29147 7.35108 8.65332 7.45902 9.06225C7.68794 9.92958 7.77524 10.0624 8.1166 10.0624C8.29667 10.0624 8.39796 9.99703 9.57018 9.12475C10.2632 8.60904 11.0934 7.9928 11.4151 7.7553L12 7.32352L12.5849 7.7553C12.9066 7.9928 13.7368 8.60904 14.4298 9.12475C15.602 9.99703 15.7033 10.0624 15.8834 10.0624C16.2247 10.0624 16.312 9.92958 16.541 9.06225C16.6489 8.65332 16.7516 8.29142 16.7693 8.25807C16.7869 8.22471 17.8302 7.72405 19.0877 7.14548C20.3452 6.56691 21.4118 6.05937 21.4579 6.01771C21.5604 5.92488 21.631 5.68577 21.6015 5.53132C21.5745 5.39027 18.7695 1.60151 18.4958 1.33643C18.1935 1.04373 17.9859 1 16.8983 1C15.9919 1 15.9864 1.0006 15.8744 1.11265C15.7601 1.22695 15.7399 1.30248 15.7892 1.43091C15.8042 1.47019 16.3187 2.13768 16.9325 2.91425C17.5463 3.69081 18.0424 4.33225 18.035 4.33963C18.0182 4.35647 14.5655 5.03682 14.4937 5.03746C14.4649 5.03769 14.0009 4.64243 13.4626 4.15907C12.9243 3.67576 12.4214 3.24219 12.3451 3.19566C12.1639 3.08513 11.8352 3.08568 11.6528 3.1969C11.5755 3.24407 11.0723 3.67764 10.5348 4.16031C9.99728 4.64298 9.53417 5.03769 9.50568 5.03746C9.43457 5.03682 5.98173 4.35643 5.96508 4.33973C5.95774 4.33238 6.45425 3.68994 7.06843 2.91209C7.68262 2.13424 8.19707 1.46675 8.21166 1.42871C8.26006 1.30252 8.23932 1.2264 8.12555 1.11265C8.01329 1.00032 8.01017 1 7.08188 1.00151C6.2968 1.00275 6.11215 1.01634 5.90434 1.08815ZM4.30373 9.01467C4.17734 9.0656 1.03403 12.3473 1.00646 12.4571C0.989392 12.5251 1.00701 12.6348 1.04917 12.7233C1.12968 12.8922 0.96494 12.8209 3.11335 13.6166C4.20767 14.022 4.39695 14.1058 4.45021 14.2093C4.4843 14.2755 5.02866 15.6615 5.65982 17.2893C6.29102 18.9171 6.84355 20.3391 6.88764 20.4493C6.9926 20.7114 7.1956 20.8109 7.42746 20.714C7.52086 20.675 7.59968 20.5991 7.6306 20.5184C7.68826 20.3678 8.07596 12.2436 8.03206 12.1053C8.00866 12.0315 5.22171 9.51634 4.71345 9.11025C4.56449 8.99127 4.43613 8.96131 4.30373 9.01467ZM19.2863 9.10993C18.6481 9.63633 15.9899 12.0359 15.9678 12.1057C15.9239 12.2439 16.3116 20.3685 16.3692 20.5184C16.4002 20.599 16.4792 20.6751 16.5725 20.714C16.8044 20.8109 17.0074 20.7114 17.1123 20.4493C17.1564 20.3391 17.709 18.9171 18.3402 17.2893C18.9713 15.6615 19.5157 14.2755 19.5498 14.2093C19.603 14.1058 19.7923 14.022 20.8866 13.6166C23.035 12.8209 22.8703 12.8922 22.9508 12.7233C22.9929 12.6351 23.0106 12.5251 22.9936 12.4574C22.9648 12.3428 19.8728 9.11865 19.7061 9.0294C19.5661 8.95447 19.4471 8.97727 19.2863 9.10993ZM10.5633 10.86C9.81107 11.4079 9.17656 11.8862 9.1534 11.9229C9.13018 11.9596 9.11092 12.0376 9.1105 12.0963C9.11014 12.1551 9.67863 14.5916 10.3739 17.5108C11.3351 21.5471 11.6594 22.8403 11.7274 22.9092C11.7869 22.9695 11.8784 23 12 23C12.1216 23 12.213 22.9695 12.2723 22.9092C12.34 22.8405 12.667 21.5364 13.6259 17.5107C14.3213 14.5914 14.8902 12.152 14.8902 12.0898C14.8902 12.0276 14.854 11.9356 14.8099 11.8853C14.6899 11.7486 12.0507 9.85525 11.9865 9.85988C11.9561 9.86204 11.3157 10.3121 10.5633 10.86Z" fill="current"/></svg>