<svg width="24" height="24" viewBox="0 0 24 24" fill="current" xmlns="http://www.w3.org/2000/svg"><path d="M3.53219 18.5202C5.5782 17.6181 6.2107 17.6481 6.2888 14.9029C6.368 12.1588 5.9181 11.2845 7.0698 9.498C8.2215 7.71044 10.4061 2.17668 12.6743 1.22235C14.9425 0.269136 13.5389 2.59552 13.2078 4.13311C12.8767 5.66958 12.4664 9.78797 13.331 10.9545C14.1956 12.1232 16.3351 14.4885 16.9137 14.9473C17.4923 15.4073 17.1997 16.9438 13.2067 17.6526C9.2137 18.3614 7.3173 17.6526 7.3173 17.6526C7.3173 17.6526 11.8042 19.609 15.7576 18.3169C19.711 17.0237 18.6836 15.6961 18.6836 15.6961C18.6836 15.6961 23.8316 14.9873 22.8834 17.6526C21.9341 20.3189 17.4428 22.5586 13.2617 22.893C9.0861 23.2274 1.17929 22.853 1.01649 20.6877C1.01649 20.6877 0.635885 19.799 3.53219 18.5213V18.5202Z" fill="current"/></svg>