<svg width="24" height="24" viewBox="0 0 24 24" fill="current" xmlns="http://www.w3.org/2000/svg"><path fill-rule="evenodd" clip-rule="evenodd" d="M7.60342 1.03435C6.31887 1.19086 5.19516 1.56562 4.36295 2.11506C3.99315 2.3592 3.45737 2.89818 3.26251 3.22208C2.97782 3.69534 2.90133 3.97336 2.89953 4.54139C2.89816 4.96026 2.91765 5.10734 3.0072 5.35486C3.50614 6.73391 5.27676 8.00107 7.42517 8.51657C8.74912 8.83425 9.94706 8.93423 12.9727 8.97965C15.5771 9.01874 15.71 9.03152 16.1509 9.28537C16.8528 9.68946 16.6808 10.5473 15.77 11.186C15.1041 11.6529 14.2441 11.9469 13.2601 12.044C12.9545 12.0742 11.6883 12.0952 10.1615 12.0953C7.28074 12.0956 6.99014 12.1171 6.17818 12.3903C5.62886 12.5751 5.27047 12.778 4.93379 13.0945C4.17533 13.8075 4.01146 14.7822 4.49252 15.7191C4.68666 16.0973 5.20869 16.6214 5.59291 16.8238L5.87674 16.9734L3.77162 16.9757C1.37244 16.9783 1.39118 16.9756 1.13823 17.3512C0.969252 17.602 0.952979 17.9897 1.10166 18.2205C1.20592 18.3823 2.72469 19.7067 3.29993 20.1376C5.24147 21.5914 7.44986 22.4974 10.0154 22.8925C10.9464 23.0358 13.0594 23.0358 13.9904 22.8925C16.5559 22.4975 18.7634 21.5919 20.7058 20.1376C21.271 19.7145 22.8029 18.3776 22.9061 18.2173C22.9711 18.1165 23 17.9911 23 17.8097C23 17.4732 22.8272 17.1956 22.5372 17.0662C22.346 16.981 22.1242 16.9778 16.0476 16.9753C10.9981 16.9731 9.68578 16.9603 9.40105 16.9102C8.13055 16.6866 7.03735 15.8037 7.03641 15.0003C7.0357 14.4355 7.59159 14.0725 8.63762 13.9547C8.86237 13.9294 10.249 13.9085 11.719 13.9083C13.1891 13.908 14.626 13.8866 14.9122 13.8605C17.5502 13.6203 19.7202 12.688 20.7658 11.3457C21.9982 9.7636 21.391 8.12643 19.2627 7.2933C18.7463 7.09119 18.2625 6.96405 17.514 6.83385C16.989 6.74251 16.7099 6.73261 13.8005 6.70202C10.4397 6.66669 10.4212 6.66544 9.66123 6.41605C8.90684 6.16848 8.1884 5.65999 7.98134 5.22717C7.89402 5.04463 7.87992 4.95101 7.89809 4.67345C7.95973 3.72899 8.64732 3.23751 10.2254 3.00974C10.8671 2.91714 12.0939 2.84519 13.0357 2.84496C13.4607 2.84482 13.8013 2.82673 13.7926 2.8047C13.7647 2.73381 13.326 2.38174 12.9783 2.15118C12.2482 1.66709 11.3643 1.31186 10.4181 1.12216C9.87156 1.0126 8.20804 0.960722 7.60342 1.03435Z" fill="current"/></svg>