<svg width="24" height="24" viewBox="0 0 24 24" fill="current" xmlns="http://www.w3.org/2000/svg"><path fill-rule="evenodd" clip-rule="evenodd" d="M21.4468 7.69903C21.8616 7.52028 22.3467 7.60407 22.6735 7.90459C22.9991 8.2051 23.0915 8.66203 22.9111 9.05527C21.6949 11.7045 20.5435 14.3839 19.4578 17.091H19.4666L18.9605 18.3579L18.9198 18.4562C18.9198 18.4629 18.9176 18.4674 18.9143 18.4719L18.911 18.4786L17.8967 21L16.9572 18.6674C16.9152 18.6086 16.8797 18.5453 16.8516 18.4786L13.9846 11.4784H13.9714C13.6887 11.4873 13.4104 11.4963 13.1375 11.4963C12.0396 11.4963 11.0033 11.4114 10.0242 11.2818L6.73806 18.5098C6.71705 18.5607 6.69048 18.6091 6.65885 18.654L5.61373 21L4.75342 18.5914C4.72702 18.5367 4.70062 18.483 4.67862 18.4249L4.26057 17.2028L4.21986 17.091L1.05368 7.85543C0.984158 7.64668 0.9849 7.42038 1.05579 7.2121C1.12668 7.00382 1.2637 6.82536 1.44533 6.70475C1.82487 6.43663 2.34083 6.42658 2.72918 6.68241H2.73358L2.75998 6.70028L2.892 6.78072C3.01632 6.85222 3.20004 6.95946 3.44757 7.08906C3.93713 7.34489 4.66101 7.69009 5.58182 8.03865C6.45093 8.36598 7.50595 8.69331 8.6919 8.94802L11.1045 3.63143C11.2805 3.24266 11.6876 2.99129 12.1364 3.00023C12.5875 3.00917 12.9835 3.26835 13.1463 3.66383L15.4533 9.28875C17.5162 9.05504 19.5349 8.51959 21.4468 7.69903ZM3.99213 9.6563L5.87446 15.1472L7.81509 10.8829C6.77945 10.6438 5.76008 10.3371 4.76333 9.96464C4.50421 9.86723 4.24709 9.76443 3.99213 9.6563ZM10.9296 9.30663C11.6348 9.37813 12.3762 9.42281 13.143 9.42281L12.0715 6.79412L10.9296 9.30663ZM17.8714 15.1919C18.5152 13.6175 19.1812 12.0525 19.8692 10.4975C18.6907 10.8521 17.4879 11.1172 16.2707 11.2907L17.8714 15.1919ZM7.97791 20.7855L11.1617 14.068L12.6392 14.2289L15.8406 20.7866H7.97901L7.97791 20.7855Z" fill="current"/></svg>