<svg width="24" height="24" viewBox="0 0 24 24" fill="current" xmlns="http://www.w3.org/2000/svg"><path fill-rule="evenodd" clip-rule="evenodd" d="M7.41984 1.25753C6.60393 1.87752 6.13244 2.67161 5.93315 3.76152C5.84792 4.22753 5.84856 5.14863 5.93447 5.73372C6.06479 6.62074 6.47592 7.93018 6.893 8.78658C6.98462 8.9747 7.05959 9.14233 7.05959 9.15905C7.05959 9.17577 6.91591 9.13652 6.74029 9.07186C5.68585 8.68344 4.38562 8.58373 3.14296 8.79599C2.53421 8.89999 1.89442 9.09359 2.01469 9.13741C3.3422 9.62138 4.2946 10.3034 4.94014 11.2325C5.08093 11.4352 5.32977 11.8645 5.49312 12.1866C6.10928 13.4015 6.19004 13.5482 6.42874 13.887C6.57021 14.0878 6.83268 14.3776 7.05048 14.5735C7.68575 15.145 8.43338 15.502 9.58013 15.7813L10.121 15.9131L10.0629 16.0186C9.90589 16.3036 9.56918 16.4754 9.0205 16.5508C8.63062 16.6043 7.8959 16.5832 7.42176 16.5049C7.26684 16.4793 7.13111 16.4668 7.12017 16.4773C7.08978 16.506 7.38332 17.2128 7.55054 17.5134C7.86507 18.0789 8.30826 18.5258 8.84766 18.8215C9.14643 18.9853 9.88669 19.2019 10.4016 19.2762C10.944 19.3545 12.4072 19.3663 13.0624 19.2977C13.65 19.2362 14.5549 19.2448 15.0207 19.3165C15.8344 19.4416 16.7317 19.8006 17.462 20.2934C18.2006 20.7917 19.0189 21.6777 19.5877 22.5949C19.7294 22.8233 19.8498 23.0055 19.8555 22.9999C19.894 22.961 20.1793 21.7704 20.2343 21.4186C20.3475 20.6956 20.3879 19.8361 20.3404 19.16C20.2963 18.532 20.1874 17.7625 20.1352 17.7102C20.1192 17.6941 19.8766 17.7096 19.5962 17.7448C18.8273 17.8411 17.4763 17.8019 16.7846 17.6632C15.2855 17.3626 13.9929 16.7051 12.9347 15.7049C12.5496 15.341 12.4223 15.1976 12.4742 15.1861C12.6157 15.1547 13.5275 15.2939 14.4912 15.4939C15.0312 15.606 15.668 15.7255 15.9065 15.7595C16.3791 15.8268 17.2345 15.8432 17.2345 15.7849C17.2345 15.6983 16.8154 15.232 16.3906 14.8459C15.2176 13.78 13.8295 12.9084 11.3325 11.6696C10.1397 11.0779 9.67408 10.8194 9.51482 10.6602L9.39438 10.5399L9.57868 10.5167C10.041 10.4584 11.4052 10.4411 11.8918 10.4873C13.4337 10.6338 14.9104 11.1141 16.0531 11.8409L16.4682 12.105V11.8519C16.4682 11.7128 16.4486 11.4449 16.4246 11.2567C16.1533 9.12759 15.1249 7.7457 13.0624 6.73882C12.7463 6.58451 12.2673 6.3731 11.9981 6.26907C9.73535 5.39465 8.34457 4.07523 7.83544 2.31998C7.78423 2.14354 7.76281 1.91302 7.76251 1.5351C7.76226 1.24082 7.76132 1 7.76043 1C7.75953 0.99996 7.60627 1.11586 7.41984 1.25753ZM16.2915 4.03174C16.8292 4.89145 17.2696 5.90936 17.5307 6.89616C17.8091 7.94807 17.8983 8.64156 18.0224 10.7172C18.1453 12.7717 18.3368 13.5938 18.9058 14.5116C19.2062 14.9961 19.9042 15.6658 20.4914 16.0328C20.8785 16.2748 21.9019 16.7905 21.995 16.7905C22.0162 16.7905 21.9681 16.6255 21.8883 16.4239C21.5584 15.5908 21.3705 14.7135 21.0238 12.3885C20.7105 10.2866 20.5276 9.43981 20.1653 8.41145C19.4908 6.49752 18.3197 5.0559 16.6336 4.06389C16.1466 3.7774 16.1316 3.77598 16.2915 4.03174Z" fill="current"/></svg>