<svg width="24" height="24" viewBox="0 0 24 24" fill="current" xmlns="http://www.w3.org/2000/svg"><path fill-rule="evenodd" clip-rule="evenodd" d="M7.09359 1.31096C7.61055 1.77488 8.68209 2.84622 8.65552 2.87265C8.64282 2.88535 8.41608 2.872 8.15173 2.84305C7.21472 2.74034 5.51894 2.86827 4.13686 3.1459C3.38798 3.29634 2.1498 3.59809 2.15216 3.62958C2.15317 3.64306 3.1087 4.23413 4.27555 4.94305C6.37164 6.21648 6.39506 6.23241 6.2256 6.26504C6.13131 6.28323 5.82543 6.34118 5.54593 6.39389C3.13684 6.8481 1.38812 8.25567 1.03955 10.0212C0.960687 10.4205 1.00444 11.2505 1.12931 11.7253C1.40498 12.7731 2.05588 13.8772 3.07951 15.033C3.64771 15.6746 4.74498 16.6126 4.92741 16.6126C4.95056 16.6126 4.88339 16.4419 4.77815 16.2334C4.2785 15.2432 4.06687 14.414 4.10526 13.5974C4.1449 12.7551 4.43373 12.1507 4.99967 11.7261C5.81189 11.1167 6.92644 11.0767 8.20236 11.6114C8.25507 11.6335 8.33948 11.5 8.55504 11.0538C8.71092 10.7311 8.96603 10.2742 9.12195 10.0385C9.27792 9.80272 9.39429 9.59175 9.38057 9.56966C9.33724 9.49982 8.65548 9.25819 8.29476 9.18486C7.45024 9.01315 6.58078 9.04888 5.56034 9.29718C4.87807 9.46318 4.30863 9.68073 3.63726 10.0317C3.17486 10.2736 3.11817 10.2932 3.14612 10.2019C3.22147 9.95615 3.3184 9.7699 3.51119 9.50074C4.39178 8.27109 6.41913 7.46569 9.24183 7.22406C9.54675 7.19801 9.96254 7.17628 10.1658 7.17582C10.3691 7.1754 10.676 7.16178 10.8479 7.14562L11.1604 7.1162L10.5707 6.77215C9.88294 6.37083 8.37269 5.4607 7.26106 4.77765L6.48145 4.29858L6.70667 4.26235C6.98821 4.21701 7.84118 4.25881 8.47955 4.34917C10.2391 4.59826 11.8528 5.38543 13.0194 6.56366L13.3782 6.92609L13.8972 6.82104C14.1826 6.76326 14.5876 6.70245 14.7972 6.68588C15.0069 6.66931 15.1784 6.6456 15.1784 6.63327C15.1784 6.59317 14.477 5.74003 13.9785 5.17386C11.6675 2.54885 9.37498 1.14763 7.19051 1.0249L6.7471 1L7.09359 1.31096ZM15.0167 8.08153C14.9151 8.09096 14.6082 8.14027 14.3347 8.19109C12.5508 8.52262 11.1644 9.52555 10.2135 11.1722C9.93727 11.6506 9.5789 12.5168 9.63014 12.5822C10.2809 13.4119 13.4988 17.4816 13.5374 17.5237C13.5806 17.5709 13.6426 17.4942 13.8356 17.1555C15.1388 14.8673 17.1849 13.5217 19.8445 13.2036C20.0859 13.1747 20.2881 13.1466 20.2939 13.1412C20.2998 13.1357 19.3837 11.9933 18.2583 10.6023L16.212 8.07333L15.7068 8.06887C15.4289 8.06638 15.1183 8.07209 15.0167 8.08153ZM19.8688 14.8413C17.6967 15.1933 16.1716 16.3286 15.2044 18.3139C14.9647 18.8058 14.6254 19.802 14.6107 20.0571L14.6009 20.2262L18.7546 21.6191C21.039 22.3852 22.9137 23.0066 22.9204 22.9999C22.927 22.9933 22.9477 21.1817 22.9662 18.9742L23 14.9606L22.889 14.9354C22.227 14.7849 20.5412 14.7324 19.8688 14.8413Z" fill="current"/></svg>