<svg width="24" height="24" viewBox="0 0 24 24" fill="current" xmlns="http://www.w3.org/2000/svg"><path fill-rule="evenodd" clip-rule="evenodd" d="M5.01951 1.38062C4.02842 2.82013 3.75974 4.23676 4.1772 5.82115C4.32847 6.39525 4.5727 6.98565 5.08417 8.01354C5.65968 9.17006 5.75609 9.4334 5.75504 9.84498C5.75148 11.1774 4.87957 12.1385 3.33623 12.5114C2.80223 12.6404 1.87075 12.7215 1.34828 12.6845L1 12.6598V16.6607V20.6616L1.32426 20.4906C1.88094 20.1971 2.96691 19.483 3.61812 18.9822C5.18501 17.7774 6.96149 16.0657 8.53904 14.2408C8.81324 13.9237 9.05209 13.6584 9.06982 13.6514C9.11401 13.6339 9.38822 14.4174 9.48598 14.8406C9.59964 15.3324 9.59998 16.525 9.48665 17.0711C9.14726 18.7067 8.13181 20.4259 6.63055 21.9069C6.15414 22.3768 6.05533 22.4962 6.12527 22.5173C6.17307 22.5318 6.48244 22.5965 6.81271 22.6611C9.04532 23.0981 11.3179 23.1129 13.2739 22.703C16.9516 21.9325 19.9814 19.5254 21.8999 15.8499C22.3278 15.0301 22.8285 13.8009 22.9706 13.2213L23 13.1014L22.4845 13.0726C21.8387 13.0363 21.2149 12.9337 20.5009 12.7462L19.9455 12.6002L19.6479 13.046C18.5173 14.7396 16.989 16.1961 15.4612 17.0361C15.0155 17.2811 14.8917 17.3173 15.0399 17.1592C15.4402 16.7321 16.8177 14.0948 17.5988 12.2598C17.8563 11.655 17.8815 11.7329 17.3332 11.4396C16.4521 10.9682 15.4126 10.224 14.5269 9.43031C12.2329 7.37461 10.6951 4.8512 10.2764 2.45557L10.1954 1.99191L9.81144 2.36099C9.23032 2.9196 8.4321 3.98201 7.83964 4.98545C7.7108 5.20367 7.59099 5.37714 7.57345 5.371C7.50524 5.34701 6.9893 4.70693 6.69655 4.28304C6.02694 3.31355 5.50312 2.09645 5.39383 1.25624C5.37548 1.11529 5.34272 1 5.321 1C5.29934 1 5.16363 1.1713 5.01951 1.38062Z" fill="current"/></svg>