<svg width="24" height="24" viewBox="0 0 24 24" fill="current" xmlns="http://www.w3.org/2000/svg"><path d="M12.9635 2.139C17.5957 2.139 21.0974 7.977 17.2819 12.738C18.4684 13.1909 19.5392 13.8967 20.4183 14.805C21.8797 16.321 23 18.622 23 22H21.4819C21.4819 18.979 20.4932 17.057 19.3192 15.84C18.3557 14.8438 17.1167 14.15 15.7568 13.845L14.3652 13.552L15.3864 12.573H15.3874C19.5611 8.574 16.4652 3.639 12.9635 3.639V2.139ZM11.2774 2V21.556H2C2 15.156 6.21721 12.667 8.3253 12.223V12.222C3.68708 7.778 7.06024 2 11.2774 2Z" fill="current"/></svg>