<svg width="24" height="24" viewBox="0 0 24 24" fill="current" xmlns="http://www.w3.org/2000/svg"><path fill-rule="evenodd" clip-rule="evenodd" d="M17.351 1.11848C17.2655 1.20291 17.1756 1.3964 17.0352 1.79835C16.7627 2.57824 16.5606 2.9832 16.35 3.17101C16.1389 3.35935 15.7719 3.52889 15.0252 3.78306C14.3863 4.00054 14.2168 4.11796 14.2168 4.34319C14.2168 4.61437 14.3318 4.69251 15.127 4.96145C15.8177 5.19505 16.1773 5.37652 16.3726 5.58998C16.563 5.79804 16.7785 6.24603 17.0157 6.92655C17.2202 7.51315 17.3588 7.69776 17.5948 7.69776C17.8728 7.69776 17.9545 7.58553 18.2103 6.85256C18.6601 5.56384 18.8555 5.37441 20.1934 4.93081C20.5742 4.80454 20.7624 4.71938 20.8614 4.62846C21.041 4.46354 21.0459 4.30289 20.8769 4.11285C20.7761 3.99944 20.6478 3.93795 20.1473 3.76309C18.7619 3.2791 18.6396 3.15912 18.1796 1.83257C18.0301 1.40131 17.9508 1.23254 17.8508 1.1324C17.6792 0.960587 17.5155 0.956041 17.351 1.11848ZM11.2161 5.71143C10.0967 5.79407 8.98812 6.2755 8.17652 7.03152C7.64539 7.52626 7.27634 8.09748 7.06826 8.74671C6.90047 9.27044 6.84547 9.62742 6.9114 9.76465C6.97877 9.90489 7.20671 10.0112 7.44006 10.0113C7.54493 10.0113 7.78404 10.0401 7.9714 10.0752C9.2188 10.3088 10.2534 10.9447 11.0157 11.9462C11.3207 12.3468 11.3916 12.4061 11.5655 12.4061C11.7403 12.4061 11.8179 12.3419 12.0975 11.9659C12.9265 10.8505 14.1594 10.1368 15.5727 9.95409C16.0574 9.89142 16.1637 9.84693 16.235 9.67706C16.3319 9.44595 16.156 8.71558 15.8609 8.12395C15.3446 7.08908 14.3841 6.30907 13.148 5.92075C12.5328 5.7275 11.9111 5.66012 11.2161 5.71143ZM15.5733 11.3684C14.7114 11.5467 13.9896 11.9392 13.3918 12.5544C12.9319 13.0278 12.6574 13.4821 12.4471 14.1174C12.2296 14.7745 12.2904 14.9324 12.8192 15.0845C13.4797 15.2744 14.0832 15.6436 14.5868 16.1657C14.9645 16.5572 15.152 16.8328 15.414 17.3812C15.5742 17.7165 15.6366 17.8085 15.7178 17.8286C15.903 17.8745 16.0084 17.8121 16.2206 17.5313C16.9909 16.5119 18.1798 15.8114 19.4275 15.642C19.9186 15.5753 20.0333 15.5131 20.0983 15.278C20.166 15.0331 20.1196 14.2835 20.014 13.9155C19.6776 12.7434 18.7236 11.8287 17.4421 11.4494C17.1285 11.3566 16.9818 11.3383 16.4571 11.3267C16.0445 11.3176 15.7521 11.3314 15.5733 11.3684ZM6.14761 11.4128C5.737 11.4893 5.19029 11.6924 4.77821 11.9215C4.54797 12.0494 4.32801 12.225 4.01857 12.5279C3.62453 12.9135 3.56283 12.9947 3.37127 13.3803C3.10865 13.9088 3.0363 14.1755 3.00691 14.723C2.98122 15.2021 3.02508 15.4074 3.17372 15.5035C3.22457 15.5364 3.4726 15.5933 3.72491 15.6298C4.98777 15.8127 6.10729 16.4587 6.86783 17.4434C6.99374 17.6064 7.13074 17.7383 7.19844 17.7616C7.41174 17.835 7.49038 17.7643 7.71724 17.2953C8.07277 16.5605 8.50639 16.0473 9.13293 15.6201C9.50605 15.3657 9.83029 15.2146 10.3181 15.0678C10.8324 14.913 10.8821 14.8102 10.7206 14.2346C10.3405 12.8802 9.24511 11.8314 7.83008 11.4669C7.39382 11.3545 6.59756 11.3289 6.14761 11.4128ZM10.9283 16.3654C9.45664 16.6753 8.41119 17.9429 8.27246 19.5856C8.23662 20.0098 8.30748 20.1668 8.57874 20.2642C9.38101 20.5524 9.74693 20.7726 10.2537 21.2721C10.6546 21.6672 10.9479 22.0667 11.1944 22.5535C11.3794 22.9189 11.4468 23 11.5655 23C11.6815 23 11.752 22.9181 11.915 22.5941C12.1246 22.1775 12.4022 21.7883 12.7364 21.4423C13.2298 20.9317 13.7807 20.5908 14.4123 20.4052C14.8027 20.2904 14.8579 20.2126 14.8432 19.7985C14.7912 18.34 13.9279 17.0094 12.7251 16.5339C12.1647 16.3124 11.4837 16.2485 10.9283 16.3654Z" fill="current"/></svg>