<svg width="24" height="24" viewBox="0 0 24 24" fill="current" xmlns="http://www.w3.org/2000/svg"><path fill-rule="evenodd" clip-rule="evenodd" d="M11.8688 1.0414C11.802 1.06823 11.736 1.16888 11.6873 1.31828C11.6452 1.44742 11.1038 3.10619 10.4842 5.00449C9.86462 6.90285 9.35771 8.5173 9.35771 8.5922C9.35771 8.81094 11.7413 16.0554 11.8363 16.1252C11.9509 16.2095 12.0673 16.2013 12.1845 16.1009C12.2549 16.0405 12.6374 14.9314 13.4938 12.3045L14.7036 8.59342L13.4931 4.87842C12.6432 2.27048 12.2531 1.13811 12.1838 1.07826C12.0752 0.984471 12.025 0.978579 11.8688 1.0414ZM3.1798 5.61081C3.1353 5.65979 3.09888 5.73766 3.09888 5.78382C3.09888 5.83003 3.43142 6.89106 3.83786 8.14176C4.34096 9.6899 4.61019 10.4489 4.68133 10.5197C4.93618 10.7733 8.59012 13.3617 8.69334 13.3617C8.80233 13.3617 8.96658 13.2277 8.96648 13.1388C8.96643 13.1141 8.62845 12.0566 8.21537 10.7888C7.64758 9.04609 7.43585 8.45629 7.3475 8.3717C7.10937 8.14366 3.428 5.52174 3.3459 5.52174C3.29906 5.52174 3.2243 5.56182 3.1798 5.61081ZM18.5769 6.97146L16.5742 8.42016L16.2716 9.34489C15.0479 13.0843 15.0405 13.1088 15.0987 13.2252C15.2314 13.4903 15.3356 13.4318 17.4396 11.9115L19.4131 10.4856L20.1816 8.12569C20.9762 5.6856 20.988 5.63413 20.7725 5.55183C20.7293 5.53528 20.6681 5.52198 20.6367 5.52223C20.6053 5.52252 19.6784 6.17465 18.5769 6.97146ZM4.63449 12.9374C4.48413 13.0242 1.55368 16.1132 1.30914 16.4427C1.02041 16.8317 0.984222 17.049 1.00476 18.2715C1.02358 19.3893 1.03855 19.4507 1.36234 19.7338C1.74976 20.0725 1.5525 20.0545 5.177 20.0816C8.80219 20.1087 8.57266 20.0872 8.90247 20.4307C8.98824 20.52 9.13747 20.7774 9.23409 21.0028C9.69158 22.0698 10.3877 22.7225 11.2942 22.9343C11.7865 23.0493 12.5977 23.0089 13.0321 22.8477C13.8218 22.5547 14.4832 21.8441 14.8327 20.9137C14.8907 20.759 15.0178 20.5509 15.115 20.4513C15.4731 20.0841 15.2221 20.1088 18.8682 20.0818L22.1443 20.0574L22.3643 19.9423C22.6503 19.7928 22.7925 19.6608 22.9069 19.4385C22.9908 19.2758 23 19.1423 23 18.0967C23 16.9483 22.9986 16.9329 22.8747 16.6853C22.8058 16.5476 22.6023 16.2748 22.4225 16.0792C21.782 15.3822 19.5596 13.0438 19.4593 12.9611C19.317 12.8438 19.0831 12.8544 18.8873 12.987C18.4155 13.3062 18.0059 13.6239 17.963 13.7038C17.876 13.8657 17.9094 14.0783 18.0483 14.2467C18.1219 14.3358 18.4657 14.7216 18.8124 15.1041C19.4474 15.8046 19.5342 15.9562 19.3853 16.1045C19.3437 16.146 18.6936 16.1684 17.0187 16.1861L14.7094 16.2104L14.5654 16.3233C14.3402 16.4998 14.1681 16.7954 13.9222 17.4278C13.4702 18.5904 13.2262 18.9514 12.7229 19.2019C12.4647 19.3303 12.369 19.3513 12.0411 19.3513C11.086 19.3513 10.6675 18.9253 10.0677 17.3422C9.85944 16.7925 9.64698 16.454 9.41159 16.297L9.24544 16.1861H7.05548C5.80259 16.1861 4.81365 16.1665 4.74431 16.1402C4.58755 16.0809 4.53655 15.9203 4.63043 15.782C4.67043 15.723 4.97481 15.3786 5.30682 15.0167C6.08815 14.1648 6.1305 14.1087 6.1305 13.9245C6.1305 13.7138 6.084 13.6638 5.49669 13.2421C4.97535 12.8678 4.83868 12.8195 4.63449 12.9374Z" fill="current"/></svg>