<svg width="24" height="25" viewBox="0 0 24 25" fill="current" xmlns="http://www.w3.org/2000/svg"><path fill-rule="evenodd" clip-rule="evenodd" d="M18.418 1.02513C15.276 1.31482 12.6339 2.04252 9.94832 3.35791C8.44941 4.09209 7.12226 4.92634 5.89859 5.90359C5.30539 6.37734 4.26325 7.31609 4.29513 7.34798C4.30643 7.35932 4.63184 7.34636 5.01825 7.31919C6.33707 7.22658 7.54398 7.2712 8.54272 7.44952L9.00684 7.53237L9.87098 6.86257C11.4401 5.64631 12.118 5.21584 13.2807 4.69742C14.8494 3.99791 16.0772 3.61603 17.0068 3.53851L17.3845 3.50699L17.1553 3.96523C16.3792 5.51718 15.8294 7.75133 15.7267 9.77013L15.6973 10.3497L15.9511 10.5413C16.3211 10.8207 16.9438 11.4215 17.3322 11.874C17.5184 12.0909 17.6849 12.2684 17.702 12.2684C17.7193 12.2684 17.7478 12.0448 17.7654 11.7716C17.8455 10.5329 18.1521 8.81102 18.5168 7.55181C19.0069 5.85958 19.7735 4.29227 20.6806 3.12757C21.175 2.49289 22.0175 1.72664 22.7223 1.27076L23 1.09113L22.7223 1.05665C22.2851 1.00236 18.9314 0.977833 18.418 1.02513ZM14.6229 5.83449C13.4861 6.22766 11.6895 7.52409 10.3184 8.94061C9.32211 9.96989 8.67545 10.8588 8.18379 11.875C7.51353 13.2602 7.4759 14.1693 8.07591 14.4816C8.55896 14.7329 9.18331 14.4286 9.71885 13.6806C10.0924 13.1589 10.3082 13.0089 10.685 13.0089C10.9173 13.0089 11.1445 13.1433 11.2987 13.3721C11.6526 13.8973 11.3394 14.9697 10.6182 15.7026C9.85145 16.4817 8.8231 16.7128 7.76086 16.345C6.99979 16.0815 6.41793 15.5667 6.05632 14.8371C5.41008 13.533 5.69865 11.9014 6.88585 10.1472C7.08107 9.85872 7.24079 9.61402 7.24079 9.60333C7.24079 9.56542 6.005 9.58574 5.45891 9.63263C4.1505 9.74505 2.48798 10.0596 1.30875 10.418L1 10.5118L1.11589 10.8C1.46431 11.6664 2.18544 12.9761 2.76517 13.7957C3.3531 14.6268 4.13999 15.502 4.7425 15.9949L5.05097 16.2473L5.08013 16.9538C5.14646 18.5592 5.47529 20.1102 6.06734 21.61C6.24599 22.0625 6.65078 22.9337 6.71428 23.0025C6.74575 23.0365 7.47095 22.5228 8.12016 22.0064C8.4638 21.7331 9.14194 21.112 9.62707 20.6263C10.5509 19.7013 11.1319 18.9865 11.5976 18.2021L11.8459 17.7837L12.2856 17.7567C13.9213 17.6566 15.1034 17.5144 16.4047 17.2614C17.274 17.0924 18.4496 16.811 18.5035 16.759C18.5445 16.7193 18.1144 16.0974 17.6383 15.5082C16.7244 14.377 15.5722 13.2099 14.5941 12.4246C14.2731 12.1668 13.9738 11.9355 13.9291 11.9104C13.8532 11.8679 13.8514 11.8135 13.9022 11.0832C14.0018 9.65174 14.2185 8.37194 14.649 6.67165C14.7742 6.17717 14.8716 5.76854 14.8655 5.76354C14.8593 5.75854 14.7501 5.79048 14.6229 5.83449Z" fill="current"/></svg>