<svg width="24" height="24" viewBox="0 0 24 24" fill="current" xmlns="http://www.w3.org/2000/svg"><path fill-rule="evenodd" clip-rule="evenodd" d="M6.02388 1.04345C5.97274 1.06883 5.79537 1.35177 5.59633 1.72554C5.09439 2.66799 4.6106 3.48369 4.4613 3.63922C4.20531 3.90589 4.19445 3.89923 3.05407 2.77235C1.53453 1.27076 1.50828 1.24728 1.34758 1.24728C1.1886 1.24728 1.04403 1.36589 1.00404 1.52909C0.971949 1.66 1.12969 2.42816 1.52609 4.07124C2.1452 6.63776 3.08081 9.58028 3.35873 9.83507C3.47993 9.94617 3.73 9.96244 3.90193 9.87043C4.11249 9.75773 4.62817 8.96508 5.28908 7.73818C6.43254 5.61549 6.45957 5.57199 6.66351 5.52609C6.82623 5.48946 7.06876 5.59909 7.09913 5.72296C7.16549 5.99385 6.29574 9.8773 5.51507 12.796C5.19375 13.9972 4.70901 15.7015 4.42015 16.6455C4.3433 16.8966 4.28044 17.1403 4.28044 17.1871C4.28044 17.3341 4.52996 17.548 4.73547 17.5771C5.13841 17.6343 6.57855 17.7291 7.69063 17.7717C8.33808 17.7965 8.92588 17.8256 8.99689 17.8364C9.17841 17.8638 9.34092 18.0422 9.34092 18.2141C9.34092 18.3682 8.95525 19.3303 8.1492 21.1868C7.83343 21.9141 7.61295 22.476 7.61295 22.5536C7.61295 22.863 8.12369 23.0995 8.48664 22.958C8.67487 22.8848 10.8821 21.2824 12.1386 20.3069C14.2466 18.6704 16.0071 17.0637 17.0663 15.8096C17.6641 15.102 17.7645 14.9087 17.6491 14.6879C17.5694 14.5353 17.4334 14.5186 16.6474 14.565C15.703 14.6208 11.9382 14.8066 10.9792 14.8448L10.2518 14.8737L10.1255 14.7443C9.96723 14.5821 9.95299 14.3706 10.0918 14.2429C10.1427 14.1961 10.425 14.0577 10.7192 13.9355C12.0366 13.3881 14.8724 12.1285 16.7465 11.2582C19.0955 10.1675 21.9602 8.77238 22.0966 8.65272C22.2211 8.54351 22.1995 8.36071 22.0436 8.20345C21.97 8.12931 21.5029 7.7335 21.0056 7.32385C20.5082 6.91425 19.9111 6.39174 19.6787 6.16279C19.3145 5.80393 19.2562 5.72781 19.2562 5.61085C19.2562 5.53068 19.2884 5.44529 19.3351 5.40204C19.3822 5.35834 20.0988 5.14249 21.1145 4.86604C22.0498 4.61146 22.8566 4.37547 22.9075 4.34163C23.0383 4.25463 23.0294 4.06349 22.887 3.90252C22.7872 3.78969 22.7085 3.76006 22.2184 3.65052C19.7583 3.10073 16.764 2.72253 14.3115 2.65185C13.2769 2.622 13.2199 2.63334 13.1341 2.88535C13.1006 2.98377 13.1062 3.03822 13.1602 3.14014C13.2643 3.33676 14.0248 4.21505 15.2254 5.52537C16.8167 7.26202 16.8411 7.29346 16.7621 7.50446C16.7288 7.59331 16.5327 7.69603 16.3963 7.69603C16.1698 7.69603 14.9483 7.12559 14.0891 6.61845C12.8867 5.9088 12.1068 5.34497 8.9295 2.88821C8.19408 2.31959 7.3094 1.66085 6.96356 1.42435C6.32631 0.988617 6.22066 0.945794 6.02388 1.04345ZM10.5863 7.17081C12.3543 8.18095 13.8125 9.06194 13.9386 9.19622C14.109 9.37767 14.1156 9.54424 13.9591 9.71448C13.7783 9.91127 12.8673 10.4195 10.9117 11.4147C9.23189 12.2696 9.0751 12.3409 8.92197 12.3198C8.72091 12.2922 8.52886 12.1189 8.49578 11.9351C8.46751 11.7782 8.58913 10.693 8.81023 9.12908C9.13463 6.83438 9.11497 6.91885 9.36149 6.75969C9.56745 6.62676 9.72897 6.68096 10.5863 7.17081Z" fill="current"/></svg>