<svg width="24" height="24" viewBox="0 0 24 24" fill="current" xmlns="http://www.w3.org/2000/svg"><path fill-rule="evenodd" clip-rule="evenodd" d="M3.76027 1.02762C3.71488 1.14366 3.83333 4.56479 3.91315 5.44251C4.15103 8.05984 4.61925 9.54752 5.49206 10.4596C5.90011 10.886 6.1269 11.0448 7.02975 11.5365C9.66231 12.9703 10.7692 13.8664 11.1998 14.9124C11.3527 15.284 11.3617 15.7294 11.2214 15.9911C11.0433 16.3237 10.6414 16.5831 10.0849 16.7246C9.69594 16.8235 8.93614 16.8913 8.60007 16.8571L8.32851 16.8295V16.6118C8.32851 16.3031 8.16836 15.7278 7.98885 15.3916C7.78936 15.0179 7.22069 14.458 6.78341 14.2046C6.34962 13.9533 5.98082 13.8139 4.81005 13.459C3.77373 13.1448 2.97639 12.8501 2.41428 12.5735C2.21356 12.4747 2.03821 12.3939 2.02465 12.3939C2.0111 12.3939 2 12.706 2 13.0874C2 15.7833 3.08274 17.8554 4.98082 18.7918C5.68017 19.1369 6.28841 19.2959 7.37626 19.4182C8.98691 19.5992 10.0165 19.9475 12.7443 21.234C14.3969 22.0134 14.9896 22.2645 15.832 22.5427C17.7865 23.1878 19.2285 23.1526 20.7354 22.4231C21.3632 22.1192 21.6852 21.8531 21.8687 21.4863C21.9939 21.2361 22.0009 21.1889 21.9999 20.5965C21.9987 19.8397 21.962 19.6854 21.3378 17.8159C20.7142 15.9482 20.5553 15.3048 20.4855 14.3634C20.4294 13.6072 20.6126 12.7029 20.9366 12.1362C21.3891 11.3448 21.4335 10.1039 21.0521 8.91096C20.5072 7.20695 19.2279 5.8893 17.4588 5.20997C17.1945 5.10848 16.9693 5.02543 16.9584 5.02543C16.9475 5.02543 16.9246 5.2913 16.9075 5.6163C16.8904 5.94125 16.8006 6.71809 16.7079 7.34255C16.4319 9.20139 16.4381 9.88591 16.7381 10.6942C16.8586 11.019 17.3263 11.7899 17.4474 11.8633C17.5067 11.8993 17.0497 12.7539 16.7235 13.2169C16.1525 14.0274 15.5913 14.2456 14.9369 13.9116C14.3641 13.6192 14.103 13.0241 13.9458 11.6524C13.911 11.3487 13.8917 10.453 13.8946 9.26928C13.8997 7.15065 13.8811 6.96917 13.5973 6.38285C13.3742 5.92188 13.1906 5.66797 12.7711 5.24028C11.4455 3.8887 9.06866 2.70035 4.97893 1.34423C3.93893 0.999397 3.78676 0.959867 3.76027 1.02762Z" fill="current"/></svg>