<svg width="24" height="24" viewBox="0 0 24 24" fill="current" xmlns="http://www.w3.org/2000/svg"><path fill-rule="evenodd" clip-rule="evenodd" d="M9.31311 3.99553C9.62054 3.65473 9.91377 3.27638 10.1946 2.8595C10.2531 2.77266 10.3101 2.68891 10.3659 2.60821C10.3701 2.60113 10.3743 2.59405 10.3784 2.58695C11.0316 1.4684 11.4952 0.935114 12.0109 1.00629C12.5265 0.935116 12.9901 1.46837 13.6433 2.58694C15.0161 4.93657 17.6196 6.40993 20.403 6.41214C21.1635 6.41277 21.721 6.30771 22.1201 6.23253C22.7708 6.10991 23 6.06673 23 6.69078C23 7.33376 22.0727 9.96755 21.274 11.452C19.9071 13.9907 19.8754 14.2124 20.736 15.1743C21.608 16.1485 21.607 16.2911 18.6044 18.1675C18.2839 18.3678 17.966 18.5642 17.6536 18.7572C16.2758 19.6083 15.0045 20.3936 14.0831 21.1667C13.5689 21.598 13.1767 22.0163 12.8692 22.3441C12.5008 22.737 12.2541 23 12.0655 23C12.0508 23 12.0359 22.9979 12.0209 22.9937C11.9977 22.9979 11.9761 23 11.9563 23C11.7676 23 11.5209 22.737 11.1525 22.3441C10.8451 22.0163 10.4528 21.598 9.93862 21.1667C9.0172 20.3937 7.746 19.6084 6.36812 18.7572L6.35797 18.7509C6.04886 18.56 5.7344 18.3657 5.41737 18.1675C2.41476 16.2911 2.41371 16.1485 3.28573 15.1744C4.14628 14.2124 4.11458 13.9907 2.74777 11.452C1.97376 10.0136 1.07905 7.4959 1.02434 6.75622C0.993698 6.58202 0.991066 6.46215 1.0217 6.41214C1.03005 6.39844 1.04132 6.38616 1.05534 6.37518C1.13964 6.08896 1.39072 6.13626 1.90166 6.23253C2.30069 6.30773 2.85829 6.41281 3.61869 6.41216C5.79385 6.41042 7.85916 5.51025 9.31311 3.99553ZM12.0737 10.1667L15.5057 7.13218L12.0109 2.58694L12.0737 10.1667ZM17.5368 12.1264L21.6596 7.57471L17.0128 8.52299L17.5368 12.1264ZM15.6192 12.4427C15.6192 10.3147 14.9123 10.0737 13.411 11.6891L12.1376 13.0602L10.6965 11.6648C9.90426 10.8969 9.03544 10.4195 8.40983 11.0517C7.78422 11.6839 8.56205 14.0288 9.66808 15.0361L10.8177 16.2356L6.36812 16.7414L11.7921 21.1667V18.481C11.7921 16.9324 11.9499 16.1667 12.6388 15.9195C14.6483 15.3506 15.6192 13.9934 15.6192 12.4427Z" fill="current"/></svg>