<svg width="24" height="24" viewBox="0 0 24 24" fill="current" xmlns="http://www.w3.org/2000/svg"><path fill-rule="evenodd" clip-rule="evenodd" d="M1.42151 1.06586C1.20946 1.15886 1.03047 1.42281 1.00642 1.67797C0.983362 1.92253 0.985136 1.9256 1.68791 2.84965C2.77363 4.27722 3.78404 6.35861 4.31214 8.25551L4.41087 8.61003L3.86867 9.14775C3.57044 9.44346 3.25816 9.78804 3.17467 9.91348C2.97131 10.219 2.81642 10.6095 2.8151 10.8198L2.81401 10.9917H5.83592H8.85779L9.07052 10.6594C9.95088 9.2841 11.5864 8.67828 13.0667 9.17914C13.8509 9.44447 14.4586 9.93232 14.939 10.6823L15.1372 10.9917H18.1615H21.186L21.1849 10.8198C21.1836 10.6096 21.0287 10.2191 20.8254 9.91348C20.742 9.78804 20.4273 9.44213 20.1262 9.14481L19.5787 8.60416L19.7494 8.04481C20.0534 7.04872 20.3637 6.26763 20.8456 5.28542C21.3792 4.19793 21.7298 3.61534 22.3092 2.85359C23.0153 1.92492 23.0167 1.92263 22.9936 1.67797C22.9572 1.29255 22.6348 1 22.2465 1C22.0474 1 21.6727 1.16977 20.9813 1.57315C18.9667 2.74868 17.1386 4.38035 15.753 6.23962L15.3598 6.76725L14.8963 6.63874C14.6415 6.56802 14.1771 6.43813 13.8645 6.35008C12.4103 5.94038 11.5897 5.94038 10.1355 6.35008C9.82286 6.43813 9.35852 6.56802 9.10363 6.63874L8.64015 6.76725L8.24697 6.23962C6.87703 4.40138 5.00368 2.72925 3.01865 1.57273C2.04798 1.00724 1.76203 0.916492 1.42151 1.06586ZM2.92929 13.6615C3.16671 13.9481 4.71141 15.6074 5.88344 16.8348C7.203 18.2167 11.9486 23 12 23C12.0511 23 16.8394 18.1734 18.1164 16.8348C19.2777 15.6174 20.8495 13.9292 21.0709 13.6615L21.1941 13.5125H18.1968H15.1996L15.1461 13.9173C15.1168 14.1399 15.0533 14.4374 15.0051 14.5785C14.6214 15.7026 13.6962 16.7356 12.3728 17.5176L12 17.7379L11.6271 17.5176C10.3038 16.7356 9.37857 15.7026 8.99485 14.5785C8.94669 14.4374 8.88321 14.1399 8.85383 13.9173L8.80035 13.5125H5.80313H2.80591L2.92929 13.6615Z" fill="current"/></svg>